<svg xmlns="http://www.w3.org/2000/svg" width="20" height="20.001" viewBox="0 0 20 20.001">
  <g id="Group_7088" data-name="Group 7088" transform="translate(0 0)">
    <path id="path2198" d="M1891.123-522.409a9.952,9.952,0,0,1-.987,1.312l-.017.018a10.094,10.094,0,0,1-.823.82l-.068.059-.136.116-.105.086-.1.08,0,0-.147.115c-.063.049-.127.1-.191.143s-.139.1-.209.147l-.09.06c-.062.041-.124.082-.186.122l-.14.088-.052.033c-.03.018-.06.036-.09.053l-.01.006c-.051.032-.105.063-.158.093l-.005,0c-.052.03-.1.059-.159.088-.039.021-.078.043-.12.063l-.013.007c-.114.06-.229.118-.348.173-.049.024-.1.046-.146.069h0c-.028.014-.058.027-.089.04l-.068.031-.026.011-.031.013-.069.029-.153.062-.05.019-.032.013-.085.031-.014.005-.017.006c-.026.011-.054.02-.081.031l-.054.019-.018.008-.02.006-.031.011-.173.059-.079.026-.163.05h0l-.03.009-.053.016-.019.006-.114.032-.026.007-.058.016-.058.015-.064.017-.064.017-.04.009-.029.007-.176.042-.07.015-.158.033h-.006l-.028.006c-.081.016-.162.03-.242.043-.127.021-.255.041-.382.056l-.058.008-.1.012-.168.017-.107.01c-.06.006-.12.01-.181.014s-.12.008-.181.01-.128.007-.191.008l-.1,0h0c-.019,0-.04,0-.059,0h-.079l-.066,0h-.128l-.1,0-.16-.005c-.137,0-.274-.013-.41-.024l-.044,0h-.017l-.068-.008-.115-.012c-.156-.015-.313-.035-.469-.059-.037,0-.073-.011-.109-.017l-.223-.04-.072-.014-.063-.011-.023-.005-.11-.023-.029-.006-.127-.029h0c-.155-.036-.309-.076-.463-.12l-.046-.013-.033-.01-.219-.066c-.074-.024-.147-.048-.221-.074l-.087-.031-.077-.028-.109-.041-.14-.054-.09-.036-.063-.026-.039-.016-.005,0-.022-.009-.021-.008-.026-.01-.026-.011-.069-.031-.037-.018c-.031-.014-.061-.027-.091-.042l-.082-.037-.064-.029-.131-.065-.109-.056-.021-.01c-.041-.02-.083-.044-.123-.065l-.013-.006-.016-.01-.129-.068-.06-.034-.014-.008-.078-.045-.018-.01-.077-.044c-.024-.015-.05-.029-.073-.044l0,0-.024-.014-.036-.022-.046-.028-.023-.014-.044-.028-.046-.029-.091-.059-.017-.012-.014-.009-.015-.01-.008-.006,0,0c-.027-.017-.051-.033-.077-.053s-.063-.041-.094-.063l-.006,0-.011-.007-.04-.029-.037-.026-.06-.043-.007-.006c-.078-.055-.154-.112-.228-.17-.049-.037-.1-.074-.145-.112s-.116-.094-.173-.141l-.026-.022c-.071-.057-.141-.118-.208-.18L1876-520.3c-.062-.054-.122-.109-.181-.166-.018-.016-.035-.032-.051-.048-.046-.042-.09-.086-.135-.13-.028-.026-.055-.053-.082-.081h0c-.055-.055-.109-.111-.161-.167l-.024-.025,0-.005c-.033-.034-.065-.069-.1-.1-.059-.065-.117-.13-.172-.2-.019-.02-.037-.042-.055-.062-.15-.179-.295-.361-.432-.549-.077-.106-.151-.212-.224-.32l-.039-.055-.061-.094,0-.008c-.111-.171-.218-.346-.317-.524a.5.5,0,0,1-.035-.064c-.07-.123-.135-.249-.2-.376-.042-.084-.083-.167-.123-.251q-.2-.443-.365-.9c-.049-.142-.1-.283-.138-.428a.246.246,0,0,1-.01-.034c-.009-.03-.018-.058-.027-.089-.023-.081-.046-.162-.067-.243a9.969,9.969,0,0,1,1.223-7.865,10,10,0,0,1,13.793-3.112,10,10,0,0,1,3.112,13.794" transform="translate(-1872.671 537.75)" fill="#f7f2da"/>
    <path id="path2200" d="M2011.666-338.839l-.018.008a.718.718,0,0,1,.108-.134.75.75,0,0,1,.272-.1c.108-.026.245-.054.405-.081-.028.014-.058.027-.088.04l-.068.031-.026.011-.031.013-.069.03-.153.062-.05.019-.032.013-.084.031-.014.005-.017.007c-.026.011-.054.02-.081.031l-.054.019" transform="translate(-1998.285 358.248)" fill="#1b313d"/>
    <path id="path2202" d="M2014.264-349.763c.223,0,.463.007.716.016-.07.05-.139.1-.209.147l-.09.06c-.061.042-.123.082-.186.122l-.14.088-.135,0c-.419-.008-.819,0-1.188.021-.165.012-.324.026-.477.044.046-.08.022-.317.072-.365a1.2,1.2,0,0,1,.528-.105c.282-.022.663-.031,1.109-.026" transform="translate(-1999.104 367.841)" fill="#36474f"/>
    <path id="path2204" d="M1910.947-367.11l-.087-.031-.077-.028-.109-.041-.14-.054-.09-.036-.063-.026-.038-.016-.005,0-.022-.009-.021-.008-.026-.01-.026-.011-.069-.03-.037-.018c-.031-.014-.062-.027-.091-.042l-.082-.037-.064-.029-.131-.065-.109-.056-.021-.01c-.041-.02-.083-.044-.123-.065l-.013-.006-.017-.01-.13-.069-.06-.034-.014-.008-.078-.045-.018-.01q-.038-.021-.077-.044c-.024-.015-.05-.029-.073-.044l0,0-.024-.014-.036-.022-.046-.028-.023-.014-.044-.028-.046-.029-.09-.059-.018-.012-.014-.009-.015-.01-.008-.006,0,0c-.027-.017-.051-.033-.077-.053s-.063-.041-.094-.063l-.006,0-.011-.007c-.013-.01-.026-.019-.04-.029l-.037-.026-.06-.043-.006-.005c-.078-.056-.154-.112-.228-.17-.049-.037-.1-.074-.145-.112s-.117-.093-.173-.141l-.026-.022c-.07-.057-.141-.118-.206-.18.3-.767.618-1.32.931-1.369a1.955,1.955,0,0,1,1.877,1.2,3.458,3.458,0,0,1,.163.33,3.306,3.306,0,0,1,.15.419,8.993,8.993,0,0,1,.271,1.4" transform="translate(-1904.201 386.566)" fill="#29526d"/>
    <path id="path2206" d="M1956.9-395.642l2.349-.729a1.254,1.254,0,0,1,1.49,1.073c.079,1.248-2.365,2.052-2.365,2.052s-2.078-1.567-1.473-2.4" transform="translate(-1948.704 410.005)" fill="#fcbd88"/>
    <path id="path2208" d="M1957.924-439.836l0,.752-.014,2.88,0,.574,3.653-.8s-.038-.745-.124-1.785c-.046-.562-.108-1.211-.183-1.875-.04-.352-.085-.708-.133-1.058-.119-.853-3.19,1.311-3.19,1.311" transform="translate(-1949.706 450.617)" fill="#fcbd88"/>
    <path id="path2210" d="M1957.956-427.267l-.014,2.879c1.609.4,2.953-1.14,3.525-2.01-.046-.562-.108-1.211-.183-1.875l-2.226.717-1.1.288" transform="translate(-1949.742 438.799)" fill="#fca265"/>
    <path id="path2212" d="M1941.845-451.362a.651.651,0,0,0-.876-.122c-.234.222.131,1.449.4,1.459.628.022.473-1.337.473-1.337" transform="translate(-1934.334 459.884)" fill="#fcbd88"/>
    <path id="path2214" d="M1943.3-449.249a1.926,1.926,0,0,0,.026-.284,1.177,1.177,0,0,0-.017-.15.281.281,0,0,0-.017-.077c-.077-.169-.269-.181-.4-.2a.4.4,0,0,0-.2.007c-.04.021-.062.081-.085.116.114-.108.355-.04.471.043a.436.436,0,0,1,.1.451.209.209,0,0,0-.215.217c.009.109.22.178.258.075-.183-.044-.024-.186.085-.2" transform="translate(-1935.872 458.41)" fill="#fca265"/>
    <path id="path2216" d="M1950.181-483.1c-.083-.048-.379-.367-.452-.268-.417.566-.4,3.347-.427,3.965.294-.857,1.048-2.716,1.321-3.57l-.441-.127" transform="translate(-1941.933 488.617)" fill="#261411"/>
    <path id="path2218" d="M1950.338-478.622c-.042-1.528-.036-3.28-.077-4.75,0,0-1.3-.932-1.5-1.008a2.144,2.144,0,0,0-.4-.105,2.161,2.161,0,0,0-.416.036c-.219.041-1.653.741-1.653.741-.287,1.442-.7,2.99-1.055,4.475a2.223,2.223,0,0,0,.285,1.985c.4.714.706,1.362,1.519,1.452a4.208,4.208,0,0,0,2.831-1.4,1.638,1.638,0,0,0,.472-1.428" transform="translate(-1938.156 489.607)" fill="#fcbd88"/>
    <path id="path2220" d="M1979.193-456.266c.064-.006.183-.011.183-.011l.108.166s.052-.157.087-.156c.89.02.985.5.985.5a4.828,4.828,0,0,0-1.454-.087,1.3,1.3,0,0,1,.091-.413" transform="translate(-1968.867 464.112)" fill="#261411"/>
    <path id="path2222" d="M1962.536-431.063a.174.174,0,0,0-.223.114c-.051.181.245.288.377.358a.975.975,0,0,0,.87.016,1.254,1.254,0,0,1-1.024-.488" transform="translate(-1953.688 441.327)" fill="#fca265"/>
    <path id="path2224" d="M1962.835-454.906a3.842,3.842,0,0,1,.142,2.421,2.024,2.024,0,0,0-.142-2.421" transform="translate(-1954.165 462.872)" fill="#fca265"/>
    <path id="path2226" d="M1952.752-449.482l-.013-.009a.182.182,0,0,0-.038-.02c-.017-.007-.037-.015-.062-.023l-.082-.024c-.031-.009-.064-.016-.1-.025l-.112-.022c-.037-.008-.078-.013-.118-.019s-.083-.011-.124-.015-.082-.009-.123-.01-.082-.006-.122,0-.077,0-.113,0-.07,0-.1,0l-.087,0-.067.006-.044,0,0,0-.01-.02h0v0a.736.736,0,0,1,.782-.506c.337.027.473.292.535.689" transform="translate(-1943.861 458.594)" fill="#fff"/>
    <path id="path2228" d="M1956.146-451.24v.025a.568.568,0,0,1-.042.2.405.405,0,0,1-.037.07l-.012,0c-.037-.008-.078-.013-.118-.019s-.083-.011-.125-.015-.082-.009-.123-.01-.073,0-.108,0a.507.507,0,0,1-.026-.077.565.565,0,0,1-.018-.168c.01-.238.155-.425.323-.417a.321.321,0,0,1,.265.266.6.6,0,0,1,.02.154" transform="translate(-1947.568 459.938)" fill="#496b7a"/>
    <path id="path2230" d="M1956.966-449.407c-.005.131.065.24.156.244s.172-.1.177-.229-.064-.24-.157-.244-.17.1-.177.229" transform="translate(-1948.86 458.109)" fill="#261411"/>
    <path id="path2232" d="M1959.516-449.028l.268-.1s.06.139.027.167c-.056.047-.295-.07-.295-.07" transform="translate(-1951.164 457.648)" fill="#fff"/>
    <path id="path2234" d="M1952.752-449.723c-.114-.319-.232-.652-.537-.676a.736.736,0,0,0-.778.5h0c0-.018.007-.036.01-.054a.734.734,0,0,1,.772-.48c.305.024.383.265.5.583l.037.131" transform="translate(-1943.861 458.836)" fill="#6d4a44"/>
    <path id="path2236" d="M1952.161-453.405c-.317-.027-.581.2-.7.68v0c-.01.043-.02.085-.027.126v.01a.744.744,0,0,1,.779-.521c.339.026.4.334.537.7h.008c-.009-.593-.254-.97-.6-1" transform="translate(-1943.862 461.518)" fill="#fca265"/>
    <path id="path2238" d="M1952.728-445.357l-.013-.009a.181.181,0,0,0-.038-.02c-.017-.007-.037-.015-.062-.023l-.082-.024c-.031-.009-.064-.016-.1-.025l-.1-.02-.011,0c-.037-.008-.078-.013-.118-.019s-.083-.011-.124-.015-.082-.009-.123-.01-.073,0-.108,0h-.014c-.038,0-.077,0-.113,0s-.07,0-.1,0l-.087,0-.067.006-.044,0h-.015l.013-.005.042-.016.065-.022c.024-.007.054-.015.086-.022a.871.871,0,0,1,.1-.019.973.973,0,0,1,.107-.011h.01a1.148,1.148,0,0,1,.126,0h.019c.037,0,.073,0,.11.007s.086.011.128.019h0c.042.007.083.017.123.028l.031.008.081.027a.861.861,0,0,1,.1.041.6.6,0,0,1,.08.041.559.559,0,0,1,.057.038.242.242,0,0,1,.033.031l.009.012" transform="translate(-1943.837 454.47)" fill="#fca265"/>
    <path id="path2240" d="M1977.835-446.079l.015-.005a.2.2,0,0,1,.041-.009l.067-.006.086,0c.031,0,.066,0,.1,0l.113.007c.038,0,.078.008.119.012s.082.011.123.018.083.013.123.023.081.016.118.027.074.018.109.029.068.019.1.029l.082.027.063.023.042.014,0,0,.015-.016h0v0a.735.735,0,0,0-.623-.692c-.333-.062-.533.159-.7.526" transform="translate(-1967.723 455.379)" fill="#fff"/>
    <path id="path2242" d="M1981.909-447.513l-.006.024a.578.578,0,0,0-.009.2.363.363,0,0,0,.016.077h.011c.038,0,.078.008.119.012s.082.011.123.018.083.013.123.023.07.014.1.023a.493.493,0,0,0,.046-.068.567.567,0,0,0,.06-.158c.051-.233-.039-.451-.2-.487a.323.323,0,0,0-.327.188.607.607,0,0,0-.059.144" transform="translate(-1971.386 456.494)" fill="#496b7a"/>
    <path id="path2244" d="M1983.687-445.58c-.028.128-.125.215-.214.2s-.14-.139-.112-.267.124-.215.214-.195.14.139.112.267" transform="translate(-1972.71 454.686)" fill="#261411"/>
    <path id="path2246" d="M1981.7-446.073l-.233-.163s-.094.119-.069.155c.042.06.3.008.3.008" transform="translate(-1970.939 455.036)" fill="#fff"/>
    <path id="path2248" d="M1977.835-446.3c.193-.278.393-.569.695-.513a.735.735,0,0,1,.622.681h0c0-.018,0-.037,0-.055a.736.736,0,0,0-.62-.665c-.3-.056-.44.157-.632.435l-.071.116" transform="translate(-1967.723 455.602)" fill="#6d4a44"/>
    <path id="path2250" d="M1979.1-448.725c.011-.492-.183-.782-.5-.838-.339-.061-.676.239-.837.81l.006,0c.229-.321.368-.6.7-.54a.746.746,0,0,1,.618.706v-.01q.006-.063.008-.129v0" transform="translate(-1967.663 458.05)" fill="#fca265"/>
    <path id="path2252" d="M1977.835-441.9l.015-.005a.205.205,0,0,1,.041-.009c.018,0,.041,0,.067-.006l.086,0c.031,0,.065,0,.1,0l.1.006h.012c.038,0,.078.008.119.012s.082.011.123.018.083.013.123.023.071.014.1.023l.014,0c.037.01.074.018.109.029s.068.019.1.03l.082.027.063.023.042.014.014,0-.012-.008-.036-.027-.057-.038c-.023-.013-.049-.028-.078-.043a.929.929,0,0,0-.095-.045,1.007,1.007,0,0,0-.1-.038l-.01,0a1.114,1.114,0,0,0-.12-.036l-.019,0c-.036-.009-.072-.015-.108-.022s-.086-.012-.13-.015h0c-.042,0-.085,0-.126-.005h-.031l-.086.005a1.011,1.011,0,0,0-.105.014.647.647,0,0,0-.087.02.516.516,0,0,0-.066.022.192.192,0,0,0-.038.022l-.013.009" transform="translate(-1967.722 451.195)" fill="#fca265"/>
    <path id="path2254" d="M1967.79-406.843l-.008-.011c-.005-.007-.013-.018-.023-.029a.592.592,0,0,0-.1-.092.735.735,0,0,0-.168-.091.838.838,0,0,0-.215-.051.828.828,0,0,0-.113,0,.665.665,0,0,0-.109.014.532.532,0,0,0-.184.074.341.341,0,0,0-.06.052.215.215,0,0,0-.036.05.136.136,0,0,0-.014.036l0,.013.01-.008a.289.289,0,0,1,.03-.021.428.428,0,0,1,.046-.025.558.558,0,0,1,.064-.021,1.066,1.066,0,0,1,.357-.017c.033,0,.067.007.1.012l.093.017.088.021.08.023.068.022.053.019.047.018" transform="translate(-1957.708 419.682)" fill="#fca265"/>
    <path id="path2256" d="M1960.452-422.846a2.339,2.339,0,0,0,.149.855,1.786,1.786,0,0,0,2.354-1.205,6.879,6.879,0,0,1-2.5.35" transform="translate(-1952.005 434.212)" fill="#b76049"/>
    <path id="path2258" d="M1986.82-425.373c-.013-.044-.1-.046-.158-.06a3.913,3.913,0,0,1,.042,1.073,3.007,3.007,0,0,0,.115-1.013" transform="translate(-1975.701 436.234)" fill="#fca265"/>
    <path id="path2260" d="M1961.025-421.7a2.678,2.678,0,0,1-.231.771l-.032.029a.656.656,0,0,1-.059.04l0,0-.038.022a2.25,2.25,0,0,1-.617.2l-.086.016a1.689,1.689,0,0,1-.97-.02.562.562,0,0,1-.1-.115,1.373,1.373,0,0,1-.133-.28,2.393,2.393,0,0,1-.093-.337l2.071-.29.292-.039" transform="translate(-1950.393 432.858)" fill="#fff"/>
    <path id="path2262" d="M1961.9-421.7a2.669,2.669,0,0,1-.23.771l-.032.029a.649.649,0,0,1-.059.04l0,0a2.269,2.269,0,0,1-.655.223l-.086.016c-.449.084-.91.095-.971-.02a.514.514,0,0,0-.1-.115,1.355,1.355,0,0,1-.133-.28,3.83,3.83,0,0,0,.991.068c.253-.037.853-.007.986-.7l.292-.039" transform="translate(-1951.273 432.858)" fill="#ededed"/>
    <path id="path2264" d="M1958.13-424.057h.005c.071,0,.156-.008.195-.007a7.2,7.2,0,0,0,1.133-.062c.183-.025.364-.059.543-.1.107-.025.211-.052.314-.082.069-.02.136-.04.2-.062a2.1,2.1,0,0,1-.331.513h0a1.634,1.634,0,0,1-1.009.54,1.529,1.529,0,0,1-.941-.156.221.221,0,0,1-.068-.066.774.774,0,0,1-.081-.159.924.924,0,0,1-.062-.331v-.021Zm2.555-.576-.05.018a6.086,6.086,0,0,1-1.183.288c-.168.023-.324.038-.467.047h0c-.277.019-.5.017-.658.014a.473.473,0,0,0-.417.2c-.013.019-.019.031-.019.031s.005.033.019.086v0h0a.986.986,0,0,0,1.286.824,1.825,1.825,0,0,0,1.479-1.326l.027-.074v0l.051-.135-.067.023" transform="translate(-1949.694 435.531)" fill="#fca265"/>
    <path id="path2266" d="M1952.87-493.767c-.055-.126-1.481-1.519-5.425-1.254-.378.025.211,1.052.211,1.052.255.733,1.554,1.129,1.668,1.127.091,0,2.007-.316,2.1-.337,1.018.939.822,4.2.9,4.292.026-.367,1.117-3.584.547-4.88" transform="translate(-1940.141 499.16)" fill="#261411"/>
    <path id="path2268" d="M1954.089-490.583c-.539,0-1.239-.649-1.553-1.059a3.391,3.391,0,0,1,.482.17,2.1,2.1,0,0,1-.556-.734,4.379,4.379,0,0,0,1,.648,2.828,2.828,0,0,0,1.134.306,1.166,1.166,0,0,0,.129.007,4.172,4.172,0,0,0,.5-.044,4.254,4.254,0,0,1,.521-.045c.319,0,.588.082.688.4a10.413,10.413,0,0,1-2.287.347l-.055,0m-1.045-.869h0" transform="translate(-1944.789 496.586)" fill="#492620"/>
    <path id="path2270" d="M1998.491-443.553a.71.71,0,0,1,.932.246c.142.322-.741,1.4-1.018,1.3-.641-.242.086-1.544.086-1.544" transform="translate(-1986.076 452.691)" fill="#fcbd88"/>
    <path id="path2272" d="M1999.888-441.237a2.2,2.2,0,0,1,.094-.3,1.437,1.437,0,0,1,.079-.144.355.355,0,0,1,.05-.07c.147-.139.347-.069.491-.031a.432.432,0,0,1,.2.092c.032.038.028.108.038.153-.07-.156-.341-.189-.492-.155a.474.474,0,0,0-.294.411.228.228,0,0,1,.124.309c-.055.106-.3.087-.291-.034.2.033.1-.177,0-.235" transform="translate(-1987.655 451.053)" fill="#fca265"/>
    <path id="path2274" d="M1953.835-458.778c-.062-.02-.177-.052-.177-.052l-.141.138s-.017-.165-.05-.172c-.873-.178-1.072.271-1.072.271a4.84,4.84,0,0,1,1.437.237,1.3,1.3,0,0,0,0-.423" transform="translate(-1944.729 466.487)" fill="#261411"/>
    <path id="path2276" d="M2002.107-384.856a10.8,10.8,0,0,0-.494,2.09c-.063.049-.127.1-.191.144s-.139.1-.209.147l-.09.06c-.061.042-.123.082-.186.122l-.14.088-.052.032c-.029.019-.06.036-.09.053l-.01.006c-.051.032-.105.063-.158.093l-.005,0c-.052.03-.1.059-.159.088-.038.021-.078.043-.119.063l-.014.007c-.114.06-.229.118-.347.173-.049.024-.1.046-.146.069h0c-.028.014-.058.027-.088.04l-.068.031-.026.011-.031.013-.069.03-.152.062-.05.019-.032.013-.085.031-.014.005-.017.007c-.026.011-.054.02-.081.031l-.054.019-.018.008-.019.006-.031.011-.173.059-.079.026-.163.05h0l-.03.009-.052.016-.019.005-.114.032-.026.007-.057.016-.058.015-.064.017.5-1.9-.967-1.182.967-1.376.121-.626.005-.029c.2.086.4.164.6.238.9.331,1.85.578,2.854,1.043" transform="translate(-1985.546 400.715)" fill="#29526d"/>
    <path id="path2278" d="M1972-391.4l-.391,1.444-.163.05h0l-.029.009-.053.016-.019.005-.114.032-.026.007-.058.016-.058.015-.064.017-.064.017-.04.009-.029.007-.176.042-.071.015-.158.033h-.006l-.028.006c-.081.016-.161.03-.242.043-.127.021-.255.041-.382.056l-.058.008-.1.012-.168.017-.106.01c-.06.007-.121.01-.181.014s-.12.008-.181.01-.128.007-.191.008l-.1,0h0c-.019,0-.04,0-.059,0h-.08l-.065,0h-.128l-.1,0c-.054,0-.108,0-.16-.006-.137,0-.274-.013-.41-.024l-.044,0h-.017c.071-.972.15-1.851.235-2.569.013-.11.025-.217.04-.319.008-.059.015-.118.023-.175v-.007q.021-.151.042-.289c.036-.229.073-.428.11-.6.008-.034.015-.067.023-.1q.031-.122.062-.216l.009-.005h0a6.961,6.961,0,0,0,1.222-.783,3.271,3.271,0,0,0,.565-.636c.077-.11.14-.214.191-.3.086-.15.137-.263.155-.3h0l.005-.014h0l.217.618,1.055.343.117.038.09.055-.251.456-.991,1.453L1972-391.4" transform="translate(-1958.552 409.478)" fill="#efe6e8"/>
    <path id="path2280" d="M1918.033-378.695l-.078-.045-.018-.01c-.026-.014-.051-.029-.077-.044s-.05-.029-.073-.044l0,0-.024-.014-.036-.022-.046-.028a11.366,11.366,0,0,0-.441-2.393c.5-.256,1.591-.741,2.183-1,.2-.087.343-.148.386-.166l.011,0,.565,1.027.339.613-.078.1-.358.448-.586.735-.117.145.335,1.532c-.074-.024-.148-.048-.221-.074l-.087-.031-.077-.028c-.037-.013-.073-.027-.109-.041l-.14-.054-.09-.036-.063-.026-.038-.016-.005,0-.022-.009-.021-.008-.026-.01-.026-.011-.069-.031-.037-.018c-.031-.014-.062-.027-.091-.042l-.082-.037-.064-.029-.131-.065-.109-.056-.021-.01c-.041-.02-.083-.044-.123-.065l-.013-.006-.017-.01-.129-.068-.061-.034-.014-.008" transform="translate(-1912.95 397.4)" fill="#29526d"/>
    <path id="path2282" d="M1936.661-381.989c-.054,0-.108,0-.16-.006-.137,0-.274-.013-.41-.024l-.043,0h-.017l-.068-.008-.115-.012c-.156-.015-.313-.035-.469-.059-.037,0-.073-.011-.109-.017l-.223-.04-.07-.014-.064-.011-.023-.005-.11-.023-.029-.007-.127-.029h0c-.155-.036-.309-.076-.463-.119l-.046-.013-.033-.01-.219-.067c-.074-.024-.148-.048-.221-.074l-.087-.031-.077-.028c-.037-.013-.073-.027-.109-.041l-.14-.054-.09-.036-.063-.026-.038-.016-.361-1.265v0l-.012-.042,0,0,.554-.282,1.009-.516.419-.214.021-.01-.014-.037-.068-.187-.26-.711-.324-.891c.494-.178.46-.232.474-.355.159-.035.508-.116.508-.116l.024-.153.027.022.058.052.431.374.918.8.006.005c.008.022.015.046.023.072.011.044.023.092.035.143a6.19,6.19,0,0,1,.1.78c0,.018,0,.036.005.054l.011.149q.006.125.014.261c.005.109.01.223.014.341.024.708.024,1.561.009,2.5" transform="translate(-1926.893 401.986)" fill="#efe6e8"/>
    <path id="path2284" d="M1968.726-358.969c-.137,0-.275-.013-.41-.024l.2-2.55.026-.337.014-.181v-.007h.523l.02.184.03.276.288,2.641-.1,0h0c-.019,0-.04,0-.059,0h-.079l-.066,0h-.128l-.1,0c-.054,0-.108,0-.16-.006" transform="translate(-1959.119 378.961)" fill="#b20d28"/>
    <path id="path2286" d="M1960.668-374.582h2.4l0,.014a3.9,3.9,0,0,1-.219.722c-.2.489-.924,1.174-1.241,1.1a3.638,3.638,0,0,1-1.1-1.818c.013,0,.076-.005.158-.014" transform="translate(-1952.062 390.272)" fill="#b20d28"/>
    <path id="path2288" d="M1973.262-393.785l1.982,1.426.045.032.341-2.888-.217-.618h0a7.2,7.2,0,0,1-1.022,1.148,7.932,7.932,0,0,1-1.128.9" transform="translate(-1963.589 409.48)" fill="#fff"/>
    <path id="path2290" d="M1952.915-390.646l.535-.4,1.324-.988.1-.072a8.887,8.887,0,0,1-.937-.9,2.724,2.724,0,0,1-.519-.97l-.1.619-.025.152-.329,2.26-.006.048-.037.249" transform="translate(-1945.198 407.799)" fill="#fff"/>
    <path id="path2292" d="M1992.94-386.268s-.077.274-.2.706l-.123.426c-.057.2-.118.418-.185.649-.009.034-.019.069-.029.1l-.05.019-.032.013-.085.031-.014.006-.017.007c-.026.011-.054.02-.081.031l-.054.019-.018.008-.019.006-.031.011-.173.059-.079.026-.163.05h0l-.03.009-.053.016-.019.005-.114.032-.026.007-.058.016-.058.015-.064.017-.064.017-.04.009-.029.007-.176.042-.071.015-.158.033h-.007l-.028.006c-.081.016-.161.031-.242.044-.127.021-.255.041-.382.056l.377-2.795.249-1.855.1-.744.035-.256a2.873,2.873,0,0,1,.972.213c.178.072.7.33.7.33l0,.009a5.965,5.965,0,0,1-.44.885,4.713,4.713,0,0,1-.8.982,3.283,3.283,0,0,0,.735.487,2.806,2.806,0,0,0,1.049.226" transform="translate(-1978.689 403.665)" fill="#346682"/>
    <path id="path2294" d="M1932.306-381.152c-.037-.013-.073-.027-.109-.041l-.14-.054-.09-.036-.063-.026-.038-.016-.005,0-.022-.009-.021-.008-.026-.01-.026-.011c-.1-.472-.192-.9-.263-1.223v0c0-.015-.006-.029-.009-.043-.078-.364-.127-.588-.127-.588a2.807,2.807,0,0,0,.518-.024,2.363,2.363,0,0,0,.542-.134,3.3,3.3,0,0,0,.767-.438,4.662,4.662,0,0,1-.733-1.031c-.118-.224-.239-.519-.269-.6-.006-.013-.009-.021-.009-.021s.178-.068.395-.145l.012,0a6.384,6.384,0,0,1,.668-.21c.013,0,.028-.007.047-.009.159-.035.508-.116.508-.116l0,.05.018.247.14,1.862.233,3.129c-.037,0-.073-.011-.109-.017l-.223-.04-.071-.014-.064-.011-.023-.005-.11-.023-.029-.007-.127-.029h0c-.155-.036-.309-.076-.463-.119l-.046-.013-.033-.01-.219-.067c-.074-.024-.148-.048-.221-.074l-.087-.031-.077-.028" transform="translate(-1925.724 400.55)" fill="#346682"/>
    <path id="path2296" d="M1978.1-364.309l.059-.065a.207.207,0,0,1-.059.065" transform="translate(-1967.964 381.045)" fill="#aa0e28"/>
    <path id="path2298" d="M1966.358-371.024c.109-.054.513-.264.59-.324a1.685,1.685,0,0,0,.109.684c.079.139.57.081.693-.013,0,0-.469.733-1,.4a1,1,0,0,1-.395-.747" transform="translate(-1957.347 387.349)" fill="#aa0e28"/>
    <path id="path2300" d="M2032.152-372.229l-.017.019a10.16,10.16,0,0,1-.823.82l-.068.059-.136.116-.1.086-.1.081,0,0c-.049.039-.1.077-.147.115s-.127.1-.191.144-.138.1-.209.147l-.09.06c-.062.042-.123.082-.186.122l-.14.088-.052.032c-.03.019-.06.036-.09.053,0-.03,0-.058.008-.088.013-.145.027-.29.043-.43.115-1.006.318-1.879.646-2.077a1.021,1.021,0,0,1,.754-.142,1.378,1.378,0,0,1,.905.793" transform="translate(-2014.686 388.882)" fill="#29526d"/>
  </g>
</svg>
