<svg xmlns="http://www.w3.org/2000/svg" xmlns:xlink="http://www.w3.org/1999/xlink" width="19.647" height="20" viewBox="0 0 19.647 20">
  <defs>
    <linearGradient id="linear-gradient" y1="0.027" x2="1" y2="0.91" gradientUnits="objectBoundingBox">
      <stop offset="0" stop-color="#1d0b77"/>
      <stop offset="1" stop-color="#6a5fa2"/>
    </linearGradient>
  </defs>
  <path id="Subtraction_257" data-name="Subtraction 257" d="M7.8,20a1,1,0,0,1-.946-.681l-.611-1.83a1,1,0,0,0-1.15-.66l-1.879.38a1,1,0,0,1-1.07-.48l-2-3.46a1,1,0,0,1,.1-1.169l1.27-1.44a1,1,0,0,0,0-1.32L.243,7.9a1,1,0,0,1-.1-1.17l2-3.459a1,1,0,0,1,1-.48l1.93.38a1,1,0,0,0,1.15-.659L6.781.681A1,1,0,0,1,7.73,0h4.051a1,1,0,0,1,.95.68l.61,1.83a1,1,0,0,0,1.15.659l1.879-.38a1,1,0,0,1,1.07.48l2,3.459a1,1,0,0,1-.12,1.17L18.04,9.34a1,1,0,0,0,0,1.32l1.349,1.44a1,1,0,0,1,.12,1.169l-2,3.46a1,1,0,0,1-1.069.48l-1.88-.38a1,1,0,0,0-1.15.66l-.61,1.83a1,1,0,0,1-.947.68H7.8ZM9.781,6a4,4,0,1,0,4,4A4,4,0,0,0,9.781,6Zm0,6a2,2,0,1,1,2-2A2,2,0,0,1,9.781,12Z" transform="translate(0.001 0.001)" opacity="0.8" fill="url(#linear-gradient)"/>
</svg>
