<svg xmlns="http://www.w3.org/2000/svg" xmlns:xlink="http://www.w3.org/1999/xlink" width="20" height="20" viewBox="0 0 20 20">
  <defs>
    <linearGradient id="linear-gradient" y1="0.027" x2="1" y2="0.91" gradientUnits="objectBoundingBox">
      <stop offset="0" stop-color="#1d0b77"/>
      <stop offset="1" stop-color="#6a5fa2"/>
    </linearGradient>
  </defs>
  <path id="User_icon" data-name="User icon" d="M10,20A10,10,0,1,1,20,10,10.011,10.011,0,0,1,10,20Zm0-9.333a6.615,6.615,0,0,0-5.333,2.667,6.668,6.668,0,0,0,10.668,0A6.619,6.619,0,0,0,10,10.667ZM10,4a2.667,2.667,0,1,0,2.667,2.667A2.67,2.67,0,0,0,10,4Z" opacity="0.8" fill="url(#linear-gradient)"/>
</svg>
