<svg xmlns="http://www.w3.org/2000/svg" xmlns:xlink="http://www.w3.org/1999/xlink" width="189.273" height="50" viewBox="0 0 189.273 50">
  <defs>
    <linearGradient id="linear-gradient" x2="0.977" y2="1" gradientUnits="objectBoundingBox">
      <stop offset="0" stop-color="#fa9c2b"/>
      <stop offset="0.587" stop-color="#814d55"/>
      <stop offset="1" stop-color="#1d0b77"/>
    </linearGradient>
  </defs>
  <g id="ralvie_Logo" data-name="ralvie Logo" transform="translate(-407.178 -362.997)">
    <path id="Subtraction_105" data-name="Subtraction 105" d="M21.667,50h0Zm-1.717-.067h0a21.465,21.465,0,0,1-7.827-2.143A21.679,21.679,0,0,1,1.661,20H15a5,5,0,1,1,0,10H5.452l3.077,4.231L10.3,36.667,19.95,49.933ZM26.3,49.5h0L16.861,36.52A11.667,11.667,0,0,0,15,13.334H6.031a21.706,21.706,0,0,1,6.992-4.875,21.5,21.5,0,0,1,4.163-1.329,21.866,21.866,0,0,1,8.847-.024,21.544,21.544,0,0,1,7.747,3.26,21.732,21.732,0,0,1,7.85,9.533,21.531,21.531,0,0,1,1.262,4.067,21.684,21.684,0,0,1-9.821,22.791A21.5,21.5,0,0,1,26.3,49.5ZM24.166,5h-5A2.5,2.5,0,0,1,17.4.732,2.484,2.484,0,0,1,19.166,0h5a2.5,2.5,0,0,1,1.768,4.268A2.482,2.482,0,0,1,24.166,5Z" transform="translate(407.178 362.997)" fill="url(#linear-gradient)"/>
    <path id="Union_407" data-name="Union 407" d="M0,36.667V10.389H4.591v4.327A10.333,10.333,0,0,1,13.666,9.6v4.538a4,4,0,0,0-.792-.053c-5.013.159-8.284,3.483-8.284,8.654v13.93ZM103,22.625c0-8.031,5.638-14.042,13.4-14.042,8.137,0,12.871,6.383,12.871,13.138a11.285,11.285,0,0,1-.16,2.287H107.307c.638,6.223,5.159,8.829,9.573,8.829a8.786,8.786,0,0,0,7.712-4.1l3.3,2.234a12.6,12.6,0,0,1-11.063,5.691C108.583,36.667,103,30.763,103,22.625Zm4.414-2.181h17.605c-.426-4.149-3.351-8.085-8.563-8.085A9.194,9.194,0,0,0,107.413,20.445ZM92.421,36.667V10.179h4.628V36.667ZM60.267,9.116h4.84l9.149,19.147,9.1-19.147h4.787L74.2,36.667Zm-8.8,27.551V0H56.1V36.667Zm-12.635,0v-6.01a11.673,11.673,0,0,1-10.319,6.01C20.8,36.667,15,30.71,15,22.732c0-8.138,5.851-14.148,13.669-14.148a11.37,11.37,0,0,1,10.212,6.063L43.3,7.892V36.667Zm-19.2-13.988A9.392,9.392,0,0,0,29.2,32.465a9.84,9.84,0,0,0,.106-19.679A9.5,9.5,0,0,0,19.628,22.679ZM91.3,3.458A3.439,3.439,0,0,1,94.708,0a3.521,3.521,0,0,1,3.457,3.458,3.511,3.511,0,0,1-3.457,3.4A3.394,3.394,0,0,1,91.3,3.458Z" transform="translate(467.178 369.995)" fill="#1d0b77"/>
  </g>
</svg>
