<svg xmlns="http://www.w3.org/2000/svg" xmlns:xlink="http://www.w3.org/1999/xlink" width="20" height="20" viewBox="0 0 20 20">
  <defs>
    <linearGradient id="linear-gradient" y1="0.027" x2="1" y2="0.91" gradientUnits="objectBoundingBox">
      <stop offset="0" stop-color="#1d0b77"/>
      <stop offset="1" stop-color="#6a5fa2"/>
    </linearGradient>
  </defs>
  <g id="Group_28580" data-name="Group 28580" transform="translate(21910 13846.999)">
    <path id="Subtraction_253" data-name="Subtraction 253" d="M12,20H5.136a5.222,5.222,0,0,1-3.729-1.33A5.09,5.09,0,0,1,0,14.9V8.282H18.139v1.8A5.835,5.835,0,0,0,9.228,14.15a.7.7,0,0,0-.145-.015H9.075a.7.7,0,0,0,0,1.395h.008a.7.7,0,0,0,.106-.008A5.851,5.851,0,0,0,11.993,20ZM4.938,14.135a.7.7,0,1,0,0,1.395h.008a.7.7,0,0,0,0-1.395ZM9.075,10.52a.7.7,0,0,0,0,1.4h.008a.7.7,0,1,0,0-1.4Zm-4.137,0a.7.7,0,1,0,0,1.4h.008a.7.7,0,0,0,0-1.4Zm13.2-3.633H0v-.4A4.964,4.964,0,0,1,1.411,2.772a4.6,4.6,0,0,1,2.041-1.1V3.759a1.864,1.864,0,1,0,3.729,0V1.469h3.786v2.29a1.864,1.864,0,1,0,3.728,0V1.672a4.555,4.555,0,0,1,2.119,1.173,5,5,0,0,1,1.325,3.643v.4ZM12.832,4.457a.7.7,0,0,1-.7-.7V.7a.7.7,0,0,1,1.4,0V3.759A.7.7,0,0,1,12.832,4.457Zm-7.515,0a.7.7,0,0,1-.7-.7V.7A.7.7,0,1,1,6.014.7V3.759A.7.7,0,0,1,5.317,4.457Z" transform="translate(-21910 -13846.999)" fill="url(#linear-gradient)"/>
    <path id="Subtraction_252" data-name="Subtraction 252" d="M5,10A5,5,0,0,1,1.464,1.465,5,5,0,0,1,8.536,8.536,4.967,4.967,0,0,1,5,10ZM5,2a.5.5,0,0,0-.5.5V4.711l-1.049.606a.5.5,0,1,0,.5.866l1.3-.75A.5.5,0,0,0,5.5,5V2.5A.5.5,0,0,0,5,2Z" transform="translate(-21900 -13837)" fill="#fa9c2b"/>
  </g>
</svg>
