<svg xmlns="http://www.w3.org/2000/svg" xmlns:xlink="http://www.w3.org/1999/xlink" width="370" height="480" viewBox="0 0 930 1020">
  <defs>
    <linearGradient id="linear-gradient" x2="0.977" y2="1" gradientUnits="objectBoundingBox">
      <stop offset="0" stop-color="#fa9c2b"/>
      <stop offset="0.516" stop-color="#8f5f66" stop-opacity="0.502"/>
      <stop offset="1" stop-color="#1d0b77" stop-opacity="0"/>
    </linearGradient>
    <linearGradient id="linear-gradient-2" y1="0.5" x2="1" y2="0.5" gradientUnits="objectBoundingBox">
      <stop offset="0" stop-color="#ff9340"/>
      <stop offset="1" stop-color="#ffce45"/>
    </linearGradient>
    <linearGradient id="linear-gradient-3" y1="0.5" x2="1" y2="0.5" gradientUnits="objectBoundingBox">
      <stop offset="0" stop-color="#c97332"/>
      <stop offset="1" stop-color="#ffce45"/>
    </linearGradient>
    <linearGradient id="linear-gradient-4" x2="0.977" y2="1" gradientUnits="objectBoundingBox">
      <stop offset="0" stop-color="#eead60"/>
      <stop offset="0.587" stop-color="#a3777e"/>
      <stop offset="1" stop-color="#8b7fc4"/>
    </linearGradient>
    <linearGradient id="linear-gradient-6" y1="0.5" x2="1" y2="0.5" gradientUnits="objectBoundingBox">
      <stop offset="0" stop-color="#ff9f55"/>
      <stop offset="1" stop-color="#ffd255"/>
    </linearGradient>
  </defs>
  <g id="Group_29493" data-name="Group 29493" transform="translate(-960 -30)">
    <rect id="Rectangle_8022" data-name="Rectangle 8022" width="930" height="1020" rx="20" transform="translate(960 30)" opacity="0.2" fill="url(#linear-gradient)"/>
    <text id="_Automated_AI-driven_time_tracking_software_of_the_future" data-name=" Automated, AI-driven time tracking software of the future" transform="translate(1162.639 328.738)" fill="#242424" font-size="18" font-family="Gotham-Book, Gotham"><tspan x="0" y="0" xml:space="preserve"> Automated, AI-driven time tracking software of the future</tspan></text>
    <g id="Quote" transform="translate(1264.391 -609.369)">
      <path id="Path_13887" data-name="Path 13887" d="M23.085-49.247c10.272,0,16.931-5.11,16.931-16.776V-86.051H29.847v20.338c0,5.059-2.633,7.433-6.659,7.433s-6.659-2.478-6.659-7.691v-20.08H6.36v20.287C6.36-54.46,12.812-49.247,23.085-49.247Zm22.3-.671h9.808V-65.042c0-3.046,1.755-4.7,4.13-4.7,2.323,0,3.923,1.652,3.923,4.7v15.125h9.808V-68.191c0-6.349-3.562-10.272-9.5-10.272-3.975,0-6.556,2.22-8.362,4.543v-3.923H45.384Zm32.933,0h9.808V-87.6H78.318Zm29.113.671a14.626,14.626,0,0,0,12.131-5.678l-5.42-4.491a8.426,8.426,0,0,1-6.194,2.839,5.765,5.765,0,0,1-6.039-4.594h18.686c.052-.671.052-1.394.052-2.013,0-8.208-4.439-15.279-14.092-15.279-8.259,0-14.092,6.452-14.092,14.608v.1C92.462-55.08,98.656-49.247,107.431-49.247Zm-5.678-16.931c.516-3.046,2.271-5.059,4.852-5.059,2.684,0,4.491,1.962,4.852,5.059ZM132.828-49.3a10.531,10.531,0,0,0,8.208-3.51v2.891h9.7V-65.971c0-3.923-.878-6.814-2.994-8.879-2.22-2.22-5.627-3.407-10.634-3.407a28.054,28.054,0,0,0-11.3,2.168l2.013,6.917a19.668,19.668,0,0,1,7.691-1.549c3.768,0,5.575,1.652,5.575,4.543v.465a21.418,21.418,0,0,0-6.711-1.084c-6.556,0-10.943,2.994-10.943,8.775v.1C123.433-52.344,127.511-49.3,132.828-49.3Zm3.51-6.143c-2.013,0-3.459-1.136-3.459-3.046v-.1c0-2.065,1.652-3.459,4.491-3.459a10.275,10.275,0,0,1,3.82.723v1.29C141.19-57.248,139.177-55.441,136.338-55.441ZM166.845-49.3c6.814,0,11.408-3.2,11.408-9.343v-.1c0-5.42-4.388-7.33-9.911-8.879C165.4-68.5,163.8-69.017,163.8-70.1v-.1c0-.774.774-1.342,2.271-1.342a18.882,18.882,0,0,1,8.259,2.581l3.355-6.194a21.841,21.841,0,0,0-11.511-3.252c-6.452,0-11.2,3.3-11.2,9.24v.1c0,5.627,4.388,7.485,9.911,8.93,2.942.826,4.491,1.29,4.491,2.375v.1c0,.981-.774,1.5-2.478,1.5a18.147,18.147,0,0,1-9.6-3.2l-3.665,5.936A22.525,22.525,0,0,0,166.845-49.3Zm15.434-.619h9.808V-65.042c0-3.046,1.755-4.7,4.13-4.7,2.323,0,3.923,1.652,3.923,4.7v15.125h9.808V-68.191c0-6.349-3.562-10.272-9.5-10.272a10.276,10.276,0,0,0-8.362,4.439V-87.6H182.28Z" transform="translate(-128.114 857.58)" fill="#242424"/>
      <path id="Path_13888" data-name="Path 13888" d="M13.6-50.089H23.614V-77.447h10.84v-8.775H2.76v8.775H13.6Zm24.674,0h9.808V-65.213c0-3.046,1.755-4.7,4.13-4.7,2.323,0,3.923,1.652,3.923,4.7v15.125h9.808V-68.362c0-6.349-3.562-10.272-9.5-10.272A10.276,10.276,0,0,0,48.082-74.2V-87.771H38.274Zm46.561.671A14.626,14.626,0,0,0,96.966-55.1l-5.42-4.491a8.426,8.426,0,0,1-6.194,2.839,5.765,5.765,0,0,1-6.039-4.594H98c.052-.671.052-1.394.052-2.013,0-8.208-4.439-15.279-14.092-15.279-8.259,0-14.092,6.452-14.092,14.608v.1C69.866-55.251,76.06-49.418,84.835-49.418ZM79.157-66.349c.516-3.046,2.271-5.059,4.852-5.059,2.684,0,4.491,1.962,4.852,5.059Z" transform="translate(98.121 857.751)" fill="#242424"/>
      <path id="Path_13889" data-name="Path 13889" d="M214.389-48.771H224.4V-59.1h4.955c8.982,0,15.538-4.491,15.538-13.008v-.1c0-8-5.885-12.7-15.021-12.7H214.389ZM224.4-66.941v-9.55h4.7c3.613,0,5.781,1.652,5.781,4.749v.1c0,2.839-2.168,4.7-5.73,4.7ZM262.55-48.1c8.982,0,15.486-6.659,15.486-14.608v-.1c0-7.949-6.452-14.505-15.383-14.505-8.982,0-15.486,6.659-15.486,14.608v.1C247.167-54.656,253.62-48.1,262.55-48.1Zm.1-8.311a6.054,6.054,0,0,1-5.936-6.3v-.1c0-3.355,2.271-6.194,5.833-6.194a6.054,6.054,0,0,1,5.936,6.3v.1C268.486-59.25,266.215-56.411,262.653-56.411Zm24.726,7.846h8.414l4.646-14.505,4.543,14.505h8.466l8.62-28.133h-9.446l-3.768,14.144L304.517-76.8h-8.1l-4.284,14.144L288.463-76.7h-9.6Zm50.484.465a14.626,14.626,0,0,0,12.131-5.678l-5.42-4.491a8.426,8.426,0,0,1-6.194,2.839,5.765,5.765,0,0,1-6.039-4.594h18.686c.052-.671.052-1.394.052-2.013,0-8.208-4.439-15.279-14.092-15.279-8.259,0-14.092,6.452-14.092,14.608v.1C322.893-53.933,329.088-48.1,337.863-48.1Zm-5.678-16.931c.516-3.046,2.271-5.059,4.852-5.059,2.684,0,4.491,1.962,4.852,5.059Zm23.074,16.26h9.808v-8.672c0-6.452,2.891-9.395,8-9.395h.826V-77.162c-4.646-.206-7.227,2.271-8.827,6.091V-76.7h-9.808Z" transform="translate(0.83 856.433)" fill="#fa9c2b"/>
      <path id="Path_13890" data-name="Path 13890" d="M555.766-49.725c8.982,0,15.486-6.659,15.486-14.608v-.1c0-7.949-6.452-14.505-15.383-14.505-8.982,0-15.486,6.659-15.486,14.608v.1C540.383-56.281,546.836-49.725,555.766-49.725Zm.1-8.311a6.054,6.054,0,0,1-5.936-6.3v-.1c0-3.355,2.271-6.194,5.833-6.194a6.054,6.054,0,0,1,5.936,6.3v.1C561.7-60.875,559.431-58.036,555.869-58.036Zm21.009,7.64h9.756v-20.08h6.246v-7.536h-6.4v-.671c0-1.807.981-2.633,2.787-2.633a11.617,11.617,0,0,1,3.665.568v-6.917a21.393,21.393,0,0,0-6.4-.774c-3.3,0-5.575.723-7.278,2.426-1.652,1.652-2.375,4.026-2.375,7.227v.619h-3.252v7.691h3.252Z" transform="translate(-149.039 858.058)" fill="#242424"/>
      <path id="Path_13891" data-name="Path 13891" d="M7.44-48.6H36.76v-8.517H17.351v-5.73H34.7v-7.9H17.351v-5.472H36.5v-8.517H7.44Zm42.38.206h8.93L69.9-76.526H59.731L54.362-60.214,48.994-76.526H38.67Zm35.411.465a14.626,14.626,0,0,0,12.131-5.678L91.941-58.1a8.426,8.426,0,0,1-6.194,2.839,5.765,5.765,0,0,1-6.039-4.594H98.394c.052-.671.052-1.394.052-2.013,0-8.208-4.439-15.279-14.092-15.279-8.259,0-14.092,6.452-14.092,14.608v.1C70.261-53.762,76.455-47.929,85.231-47.929ZM79.553-64.86c.516-3.046,2.271-5.059,4.852-5.059,2.684,0,4.491,1.962,4.852,5.059ZM102.627-48.6h9.808v-8.672c0-6.452,2.891-9.395,8-9.395h.826V-76.991c-4.646-.206-7.227,2.271-8.827,6.091v-5.627h-9.808Zm30.352,8.414c5.575,0,8.208-2.581,10.634-9.085l10.221-27.255H143.767L138.5-59.7l-5.575-16.828H122.655L133.6-49.116a2.448,2.448,0,0,1-2.271,1.136,9.48,9.48,0,0,1-4.284-1.5L124-42.612A18.045,18.045,0,0,0,132.979-40.186Z" transform="translate(-27.994 911.822)" fill="#242424"/>
      <path id="Path_13892" data-name="Path 13892" d="M311.842-49.918h9.808V-70.566l9.188,14.041h.207l9.24-14.144v20.751h9.963V-86.051H339.665l-8.62,13.989-8.621-13.989H311.842ZM356.08-80.373H366.3V-87.6H356.08Zm.206,30.456h9.808V-77.844h-9.808Zm15.279,0h9.808V-65.042c0-3.046,1.755-4.7,4.13-4.7,2.323,0,3.923,1.652,3.923,4.7v15.125h9.808V-68.191c0-6.349-3.562-10.272-9.5-10.272-3.975,0-6.556,2.22-8.362,4.543v-3.923h-9.808Zm42.018.619a10.276,10.276,0,0,0,8.362-4.439v3.82h9.808V-77.844h-9.808v15.125c0,3.046-1.755,4.7-4.078,4.7-2.375,0-3.975-1.652-3.975-4.7V-77.844h-9.808v18.273C404.086-53.221,407.648-49.3,413.584-49.3Zm34.534-.052a13.989,13.989,0,0,0,6.814-1.6v-7.691a8.6,8.6,0,0,1-3.717.929c-1.807,0-2.684-.826-2.684-2.787v-9.446h6.5v-7.9h-6.5v-7.072h-9.808v7.072h-3.3v7.9h3.3V-58.59C438.723-51.931,442.233-49.35,448.117-49.35Zm24.21.1a14.626,14.626,0,0,0,12.131-5.678l-5.42-4.491a8.426,8.426,0,0,1-6.194,2.839,5.764,5.764,0,0,1-6.039-4.594H485.49c.052-.671.052-1.394.052-2.013,0-8.208-4.439-15.279-14.092-15.279-8.259,0-14.092,6.452-14.092,14.608v.1C457.357-55.08,463.552-49.247,472.327-49.247Zm-5.678-16.931c.516-3.046,2.271-5.059,4.852-5.059,2.684,0,4.491,1.962,4.852,5.059Z" transform="translate(-167.935 913.14)" fill="#fa9c2b"/>
    </g>
    <g id="Group_29213" data-name="Group 29213" transform="translate(1042.252 303.67)">
      <g id="Group_28979" data-name="Group 28979" transform="translate(196.114 186.053)">
        <g id="Group_28976" data-name="Group 28976" transform="translate(0.531)">
          <g id="Group_28969" data-name="Group 28969" transform="translate(6.019 65.899)">
            <g id="Group_28968" data-name="Group 28968">
              <g id="Group_28967" data-name="Group 28967">
                <path id="Path_14390" data-name="Path 14390" d="M352.674,591.052s34.512-14.832,47.842,5.27-5.344,18.85-5.344,18.85-1.037,9.294-18.666-12.7C368.2,592.1,352.674,591.052,352.674,591.052Z" transform="translate(-352.674 -585.782)" fill="#bbd070"/>
              </g>
            </g>
          </g>
          <g id="Group_28972" data-name="Group 28972" transform="translate(0 12.841)">
            <g id="Group_28971" data-name="Group 28971">
              <g id="Group_28970" data-name="Group 28970">
                <path id="Path_14391" data-name="Path 14391" d="M331.064,396.326s30.637-9.5,50.807,29.358,38.3,41.931,38.3,41.931S350.884,480.048,331.064,396.326Z" transform="translate(-331.064 -395.301)" fill="#97a43c"/>
              </g>
            </g>
          </g>
          <g id="Group_28975" data-name="Group 28975" transform="translate(38.214)">
            <g id="Group_28974" data-name="Group 28974">
              <g id="Group_28973" data-name="Group 28973">
                <path id="Path_14392" data-name="Path 14392" d="M506.413,436.6c-2.683,12.919-32.255-11.993-35.167-34.334s2.887-38.733-2.992-53.064C468.254,349.2,519.624,372.979,506.413,436.6Z" transform="translate(-468.254 -349.201)" fill="#48753a"/>
              </g>
            </g>
          </g>
        </g>
        <g id="Group_28977" data-name="Group 28977" transform="translate(53.489 17.319)">
          <path id="Path_14393" data-name="Path 14393" d="M552.6,416.741a11.833,11.833,0,0,0-3.46.508,9.882,9.882,0,0,0-18.5,1.187,7.214,7.214,0,0,0-2.555-.464,6.736,6.736,0,0,0-6.9,6.558h41.134C562.323,420.229,557.971,416.741,552.6,416.741Z" transform="translate(-521.189 -411.379)" fill="#ebebeb"/>
        </g>
        <g id="Group_28978" data-name="Group 28978" transform="translate(0 44.501)">
          <path id="Path_14394" data-name="Path 14394" d="M353.113,513.052a9.03,9.03,0,0,0-2.638.387,7.535,7.535,0,0,0-14.107.905,5.5,5.5,0,0,0-1.948-.354,5.136,5.136,0,0,0-5.261,5h31.364C360.524,515.712,357.206,513.052,353.113,513.052Z" transform="translate(-329.159 -508.964)" fill="#ebebeb"/>
        </g>
      </g>
      <g id="Group_28984" data-name="Group 28984" transform="translate(168.44 408.571)">
        <path id="Path_14395" data-name="Path 14395" d="M233.975,1148.258c4.113-1.967,8.206,11.126,8.206,11.126,6.991,9.237,16.76-3.052,15.8,10.757-1.672,24.163,27.813,7.6,14.21,32.825s12.011,14.264,3.558,34.6,2.5,44.6-10.216,34.633c0,0-11.2-24.559-22.749-32.157s6.919-16.614,3.306-26.934c-5.249-14.99-17.895-14.4-8.777-30.51S219.994,1154.943,233.975,1148.258Z" transform="translate(-229.808 -1148.057)" fill="#97a43c"/>
        <g id="Group_28980" data-name="Group 28980" transform="translate(16.556 25.615)">
          <path id="Path_14396" data-name="Path 14396" d="M312.447,1329.305c-5.513-3.877-11.965-30.9-12.35-46.991-.2-8.244-2.634-11.678-4.784-14.709-2.055-2.9-3.83-5.4-2.8-11.142,1.976-10.976-3.219-15.715-3.272-15.761l.6-.686c.231.2,5.641,5.089,3.568,16.609-.966,5.367.626,7.611,2.642,10.453,2.116,2.981,4.748,6.692,4.952,15.214.413,17.272,7.01,42.783,11.963,46.268Z" transform="translate(-289.245 -1240.017)" fill="#fff"/>
        </g>
        <g id="Group_28981" data-name="Group 28981" transform="translate(34.991 62.785)">
          <path id="Path_14397" data-name="Path 14397" d="M362.258,1427.585a11.764,11.764,0,0,1-2.331-.253,5.087,5.087,0,0,1-4.141-3.332c-1.486-4.251,1.957-11.155,4.752-14.483a21.25,21.25,0,0,0,4.225-13.7c-.084-1.328-.221-2.558-.343-3.642-.352-3.136-.606-5.4.741-6.915,1.187-1.334,3.478-1.911,7.662-1.931,7.337-.035,10.238-3.073,12.57-5.514a13.308,13.308,0,0,1,3.061-2.636h0c3.657-2,7.53-2.29,9.21-.7.8.756,1.471,2.238.15,5a19.312,19.312,0,0,1-4.033,5.407c-1.694,1.728-2.812,2.87-2.23,5.145.137.534.295,1.073.453,1.615,1.131,3.869,2.413,8.254-4.208,11.229-1.4.632-2.685,1.134-3.815,1.577-4.622,1.814-7.412,2.908-10.561,9.557-.61,1.287-1.148,2.506-1.668,3.686C369.268,1423.327,367.389,1427.583,362.258,1427.585Zm26.634-51.6a12.459,12.459,0,0,0-2.839,2.465c-2.45,2.566-5.5,5.759-13.225,5.8-3.847.018-6,.519-6.985,1.625-1.077,1.21-.841,3.306-.516,6.208.123,1.095.262,2.336.347,3.686a21.781,21.781,0,0,1-4.436,14.34c-2.767,3.294-5.9,9.851-4.59,13.6a4.231,4.231,0,0,0,3.461,2.739c6.236,1.26,7.957-2.641,10.809-9.105.523-1.186,1.064-2.411,1.679-3.709,3.3-6.975,6.387-8.185,11.053-10.016,1.12-.439,2.389-.938,3.774-1.56,5.9-2.65,4.833-6.289,3.707-10.142-.161-.551-.322-1.1-.461-1.645-.71-2.772.69-4.2,2.462-6.009a18.285,18.285,0,0,0,3.861-5.163c.6-1.251,1.093-2.952.045-3.945-1.378-1.309-4.88-.949-8.146.836Z" transform="translate(-355.427 -1373.462)" fill="#bbd070"/>
        </g>
        <g id="Group_28982" data-name="Group 28982" transform="translate(38.678 70.065)">
          <path id="Path_14398" data-name="Path 14398" d="M369.575,1451.7l-.911-.048c.045-.855,1.194-21.02,9.29-26.921,8.883-6.474,11.683-13.432,13.017-18.1,1.572-5.5,9.571-6.974,9.911-7.034l.158.9c-.077.014-7.778,1.432-9.192,6.386-1.371,4.8-4.247,11.949-13.356,18.589C370.742,1431.118,369.585,1451.5,369.575,1451.7Z" transform="translate(-368.664 -1399.597)" fill="#bbd070"/>
        </g>
        <path id="Path_14399" data-name="Path 14399" d="M357.805,1221.232c-5.755-1.973-4.559,9.118-6.991,17.325s-27.051,3.58-16.717,24.129-13.069,6.872-6.079,24.8.608,37.111,8.206,32.233,4.269-27.46,12.171-30.143,9.192-5.813,1.368-13.107,20.5-14.536,13.512-29.266S364.454,1223.513,357.805,1221.232Z" transform="translate(-299.705 -1200.683)" fill="#48753a"/>
        <g id="Group_28983" data-name="Group 28983" transform="translate(36.471 46.274)">
          <path id="Path_14400" data-name="Path 14400" d="M364.317,1386.091c-.724-3.07-6.9-30.086-1.138-33.351,5.083-2.878,4.958-14.073,4.165-24.644-.7-9.358,11.316-13.731,11.828-13.913l.3.86c-.119.042-11.874,4.324-11.224,12.985.814,10.856.9,22.376-4.624,25.506-4.379,2.48-.347,24.192,1.575,32.349Z" transform="translate(-360.743 -1314.183)" fill="#fff"/>
        </g>
        <path id="Path_14401" data-name="Path 14401" d="M330.422,1537.8l-8.216,31.172H303.845l-8.216-31.172Z" transform="translate(-277.295 -1429.239)" fill="url(#linear-gradient-2)"/>
        <path id="Path_14402" data-name="Path 14402" d="M330.423,1537.8s-18.087,3.4-18.087,31.171h-8.49L295.63,1537.8Z" transform="translate(-277.296 -1429.239)" fill="url(#linear-gradient-3)"/>
      </g>
      <rect id="Rectangle_8121" data-name="Rectangle 8121" width="284.166" height="284.166" transform="translate(238.851 263.373)" fill="#fff"/>
      <g id="Group_28985" data-name="Group 28985" transform="translate(464.408 180.767)">
        <path id="Path_14403" data-name="Path 14403" d="M1418.276,384a58.818,58.818,0,0,0-6.29-15.166l6.4-9.631-8.885-8.884-8.884-8.884-9.631,6.4a58.807,58.807,0,0,0-15.166-6.29l-2.28-11.329h-25.128l-2.28,11.329a58.8,58.8,0,0,0-15.166,6.29l-9.631-6.4-8.885,8.884-8.884,8.884,6.4,9.631A58.81,58.81,0,0,0,1303.684,384l-11.329,2.28v25.128l11.329,2.28a58.8,58.8,0,0,0,6.291,15.166l-6.4,9.631,8.884,8.884,8.885,8.884,9.631-6.4a58.8,58.8,0,0,0,15.166,6.29l2.28,11.329h25.129l2.28-11.329a58.8,58.8,0,0,0,15.166-6.29l9.631,6.4,8.884-8.884,8.884-8.884-6.4-9.631a58.819,58.819,0,0,0,6.29-15.166l11.329-2.28V386.283Zm-57.3,58.869A44.025,44.025,0,1,1,1405,398.847,44.025,44.025,0,0,1,1360.979,442.872Z" transform="translate(-1292.355 -330.222)" fill="url(#linear-gradient-4)"/>
      </g>
      <g id="Group_28986" data-name="Group 28986" transform="translate(558.279 310.74)">
        <path id="Path_14404" data-name="Path 14404" d="M1687.089,821.492a26.962,26.962,0,0,0-2.884-6.953l2.936-4.415-4.073-4.073L1679,801.978l-4.415,2.936a26.966,26.966,0,0,0-6.953-2.884l-1.045-5.194h-11.52l-1.045,5.194a26.95,26.95,0,0,0-6.953,2.884l-4.416-2.936-4.073,4.073-4.073,4.073,2.936,4.415a26.967,26.967,0,0,0-2.884,6.953l-5.193,1.045v11.52l5.193,1.045a26.968,26.968,0,0,0,2.884,6.953l-2.936,4.415,4.073,4.073,4.073,4.073,4.416-2.936a26.958,26.958,0,0,0,6.953,2.884l1.045,5.194h11.52l1.045-5.194a26.962,26.962,0,0,0,6.953-2.884l4.415,2.936,4.073-4.073,4.073-4.073-2.936-4.415a26.968,26.968,0,0,0,2.884-6.953l5.194-1.045v-11.52Zm-26.267,26.988a20.183,20.183,0,1,1,20.183-20.183A20.183,20.183,0,0,1,1660.823,848.48Z" transform="translate(-1629.361 -796.836)" fill="url(#linear-gradient-4)"/>
      </g>
      <g id="Group_28987" data-name="Group 28987" transform="translate(238.851 234.428)">
        <path id="Path_14405" data-name="Path 14405" d="M482.587,551.862H766.75v-6.131a22.863,22.863,0,0,0-22.862-22.862H505.449a22.863,22.863,0,0,0-22.862,22.862Z" transform="translate(-482.587 -522.869)" fill="url(#linear-gradient-6)"/>
      </g>
      <g id="Group_28990" data-name="Group 28990" transform="translate(348.809 198.02)">
        <g id="Group_28988" data-name="Group 28988" transform="translate(9.71)">
          <path id="Path_14406" data-name="Path 14406" d="M913.611,414.392a1.4,1.4,0,0,1-1.4-1.4v-19.42a1.4,1.4,0,1,1,2.808,0v19.42A1.4,1.4,0,0,1,913.611,414.392Z" transform="translate(-912.207 -392.164)" fill="#ffdf69"/>
        </g>
        <g id="Group_28989" data-name="Group 28989" transform="translate(0 9.71)">
          <path id="Path_14407" data-name="Path 14407" d="M898.171,429.831h-19.42a1.4,1.4,0,1,1,0-2.808h19.42a1.4,1.4,0,0,1,0,2.808Z" transform="translate(-877.347 -427.023)" fill="#ffdf69"/>
        </g>
      </g>
      <g id="Group_28993" data-name="Group 28993" transform="translate(168.272 350.132)">
        <g id="Group_28992" data-name="Group 28992" transform="translate(0)">
          <g id="Group_28991" data-name="Group 28991">
            <path id="Path_14408" data-name="Path 14408" d="M237.594,951.953l-7.859-6.851a1.548,1.548,0,0,1,2.034-2.334l5.558,4.845,7.925-8.84a1.548,1.548,0,1,1,2.305,2.067Z" transform="translate(-229.204 -938.259)" fill="#ffdf69"/>
          </g>
        </g>
      </g>
      <path id="Path_14409" data-name="Path 14409" d="M1299.856,123.064H1261.47v33.683l5.861-5.86h32.526Z" transform="translate(-805.665)" fill="#ffce55"/>
      <g id="Group_28998" data-name="Group 28998" transform="translate(554.789 399.388)">
        <g id="Group_28994" data-name="Group 28994">
          <path id="Path_14410" data-name="Path 14410" d="M1627.293,1141.486a4.756,4.756,0,0,1-2.836-.855,3.562,3.562,0,0,1-1.545-2.594,21.616,21.616,0,0,0-1.786-5.415,9.555,9.555,0,1,1,11.436-.688,20.558,20.558,0,0,0-.8,5.368c.164,2.1-1.677,3.965-4.112,4.167C1627.536,1141.478,1627.413,1141.483,1627.293,1141.486Zm-1.028-25.612a8.772,8.772,0,0,0-4.62,16.152l.094.061.048.1a22.543,22.543,0,0,1,1.9,5.74l0,.029a2.791,2.791,0,0,0,1.222,2.038,4.022,4.022,0,0,0,2.678.694c2.012-.167,3.535-1.665,3.4-3.338v-.03a21.5,21.5,0,0,1,.855-5.712l.033-.12.1-.078a8.771,8.771,0,0,0-5.7-15.537Z" transform="translate(-1616.832 -1115.092)" fill="#ffd255"/>
        </g>
        <g id="Group_28995" data-name="Group 28995" transform="translate(6.228 12.431)">
          <path id="Path_14411" data-name="Path 14411" d="M1641.368,1170.594l-2.178-10.256,2.323,1.593,1.209-1.607,1.284,1.29,1.866-1.894-.3,10.5-.783-.022.242-8.512-1.028,1.042-1.2-1.212-1.117,1.485-1.326-.911,1.771,8.345Z" transform="translate(-1639.19 -1159.72)" fill="#ffd255"/>
        </g>
        <g id="Group_28996" data-name="Group 28996" transform="translate(7.389 25.141)">
          <rect id="Rectangle_8122" data-name="Rectangle 8122" width="6.777" height="2.731" transform="matrix(0.997, -0.083, 0.083, 0.997, 0, 0.561)" fill="#ffd255"/>
        </g>
        <g id="Group_28997" data-name="Group 28997" transform="translate(6.071 22.267)">
          <rect id="Rectangle_8123" data-name="Rectangle 8123" width="8.956" height="4.396" transform="matrix(0.997, -0.083, 0.083, 0.997, 0, 0.742)" fill="#ffd255"/>
        </g>
      </g>
      <path id="Path_14412" data-name="Path 14412" d="M1790.074,283.939h10.175l-3.114-6.459H1786.96Z" transform="translate(-1184.783 -111.404)" fill="#ffd179"/>
      <path id="Path_14413" data-name="Path 14413" d="M1772.984,283.939h2.426l-3.117-6.459h-2.423Z" transform="translate(-1172.453 -111.404)" fill="#ffd179"/>
      <path id="Path_14414" data-name="Path 14414" d="M1651.315,264.687h41.2l-1.368-3.229h-41.2Z" transform="translate(-1085.936 -99.845)" fill="#ffd179"/>
      <path id="Path_14415" data-name="Path 14415" d="M171.082,668.755h13.261l-4.059-8.419H167.023Z" transform="translate(-16.071 -387.618)" fill="#ffd179"/>
      <path id="Path_14416" data-name="Path 14416" d="M148.806,668.755h3.16l-4.059-8.419h-3.16Z" transform="translate(0 -387.618)" fill="#ffd179"/>
      <rect id="Rectangle_8124" data-name="Rectangle 8124" width="67.21" height="67.21" transform="translate(238.851 335.74)" fill="#f8eab6"/>
      <rect id="Rectangle_8125" data-name="Rectangle 8125" width="67.21" height="67.21" transform="translate(238.851 263.373)" fill="#f0f0f0"/>
      <rect id="Rectangle_8126" data-name="Rectangle 8126" width="67.21" height="67.21" transform="translate(311.169 263.373)" fill="#f0f0f0"/>
      <rect id="Rectangle_8127" data-name="Rectangle 8127" width="67.21" height="67.21" transform="translate(383.486 335.421)" fill="#f0f0f0"/>
      <rect id="Rectangle_8128" data-name="Rectangle 8128" width="67.21" height="67.21" transform="translate(455.805 335.421)" fill="#f8eab6"/>
      <rect id="Rectangle_8129" data-name="Rectangle 8129" width="67.21" height="67.21" transform="translate(455.805 263.421)" fill="#f0f0f0"/>
      <rect id="Rectangle_8130" data-name="Rectangle 8130" width="67.21" height="67.21" transform="translate(311.169 407.739)" fill="#f0f0f0"/>
      <rect id="Rectangle_8131" data-name="Rectangle 8131" width="67.21" height="67.21" transform="translate(311.169 480.06)" fill="#f8eab6"/>
      <rect id="Rectangle_8132" data-name="Rectangle 8132" width="67.21" height="67.21" transform="translate(383.486 480.06)" fill="#f0f0f0"/>
      <rect id="Rectangle_8133" data-name="Rectangle 8133" width="67.21" height="67.21" transform="translate(238.851 407.9)" fill="#f0f0f0"/>
      <g id="Group_28999" data-name="Group 28999" transform="translate(445.327 480.06)">
        <path id="Path_14417" data-name="Path 14417" d="M1301.538,1404.71s-.047,31.11-7.34,57.482l-15.543,9.728h-54.8c10.412-27.708,10.475-67.21,10.475-67.21Z" transform="translate(-1223.853 -1404.71)" fill="#dfb88b"/>
        <path id="Path_14418" data-name="Path 14418" d="M1420.6,1620.222v-9.952h15.543Z" transform="translate(-1365.797 -1553.012)" fill="#a86e28"/>
      </g>
      <g id="Group_29000" data-name="Group 29000" transform="translate(373.01 407.739)">
        <path id="Path_14419" data-name="Path 14419" d="M1041.916,1145.07s-.047,31.11-7.34,57.482l-15.543,9.728h-54.8c10.412-27.708,10.475-67.21,10.475-67.21Z" transform="translate(-964.229 -1145.07)" fill="#948aca"/>
        <path id="Path_14420" data-name="Path 14420" d="M1160.97,1360.582v-9.952h15.546Z" transform="translate(-1106.169 -1293.372)" fill="#4e4386"/>
      </g>
      <g id="Group_29001" data-name="Group 29001" transform="translate(373.01 263.421)">
        <path id="Path_14421" data-name="Path 14421" d="M1041.916,626.958s-.047,31.11-7.34,57.482l-15.543,9.728h-54.8c10.412-27.708,10.475-67.21,10.475-67.21h67.212Z" transform="translate(-964.229 -626.958)" fill="#dfb88b"/>
        <path id="Path_14422" data-name="Path 14422" d="M1160.97,842.469v-9.954h15.546Z" transform="translate(-1106.169 -775.258)" fill="#a86e28"/>
      </g>
      <g id="Group_29003" data-name="Group 29003" transform="translate(228.373 480.06)">
        <g id="Group_29002" data-name="Group 29002" transform="translate(0 0)">
          <path id="Path_14423" data-name="Path 14423" d="M522.656,1404.71s-.047,31.11-7.34,57.482l-15.543,9.728h-54.8c10.412-27.708,10.475-67.21,10.475-67.21Z" transform="translate(-444.971 -1404.71)" fill="#f0f0f0"/>
          <path id="Path_14424" data-name="Path 14424" d="M641.716,1620.222v-9.952h15.543Z" transform="translate(-586.914 -1553.012)" fill="#c9c9c9"/>
        </g>
      </g>
      <g id="Group_29008" data-name="Group 29008" transform="translate(300.691 335.74)">
        <g id="Group_29004" data-name="Group 29004">
          <path id="Path_14425" data-name="Path 14425" d="M782.285,886.587s-.047,31.11-7.339,57.482L759.4,953.8H704.6c10.412-27.708,10.475-67.21,10.475-67.21h67.21Z" transform="translate(-704.6 -886.587)" fill="#948aca"/>
          <path id="Path_14426" data-name="Path 14426" d="M901.345,1102.1v-9.955h15.543Z" transform="translate(-846.543 -1034.884)" fill="#4e4386"/>
        </g>
        <g id="Group_29007" data-name="Group 29007" transform="translate(29.425 21.24)">
          <g id="Group_29005" data-name="Group 29005" transform="translate(10.803)">
            <path id="Path_14427" data-name="Path 14427" d="M850.581,987.571a1.562,1.562,0,0,1-1.562-1.562V964.4a1.562,1.562,0,0,1,3.124,0v21.605A1.562,1.562,0,0,1,850.581,987.571Z" transform="translate(-849.019 -962.842)" fill="#fff"/>
          </g>
          <g id="Group_29006" data-name="Group 29006" transform="translate(0 10.803)">
            <path id="Path_14428" data-name="Path 14428" d="M833.4,1004.749H811.8a1.562,1.562,0,1,1,0-3.124H833.4a1.562,1.562,0,1,1,0,3.124Z" transform="translate(-810.237 -1001.625)" fill="#fff"/>
          </g>
        </g>
      </g>
      <g id="Group_29009" data-name="Group 29009" transform="translate(445.327 407.739)">
        <path id="Path_14429" data-name="Path 14429" d="M1301.538,1145.07s-.047,31.11-7.34,57.482l-15.543,9.728h-54.8c10.412-27.708,10.475-67.21,10.475-67.21Z" transform="translate(-1223.853 -1145.07)" fill="#f0f0f0"/>
        <path id="Path_14430" data-name="Path 14430" d="M1420.6,1360.582v-9.952h15.543Z" transform="translate(-1365.797 -1293.372)" fill="#c9c9c9"/>
      </g>
      <g id="Group_29012" data-name="Group 29012" transform="translate(402.587 287.555)">
        <g id="Group_29011" data-name="Group 29011">
          <g id="Group_29010" data-name="Group 29010">
            <path id="Path_14431" data-name="Path 14431" d="M1080.836,730.613l-9.763-8.511a1.923,1.923,0,0,1,2.527-2.9l6.9,6.018,9.845-10.981a1.923,1.923,0,0,1,2.864,2.567Z" transform="translate(-1070.414 -713.602)" fill="#fff"/>
          </g>
        </g>
      </g>
      <rect id="Rectangle_8134" data-name="Rectangle 8134" width="18.84" height="1.321" transform="translate(293.215 181.568) rotate(180)" fill="#ffd887"/>
      <rect id="Rectangle_8135" data-name="Rectangle 8135" width="18.84" height="5.552" transform="translate(293.215 188.288) rotate(180)" fill="#ffd887"/>
      <rect id="Rectangle_8136" data-name="Rectangle 8136" width="11.114" height="0.83" transform="translate(386.49 155.216) rotate(180)" fill="#ffd887"/>
      <rect id="Rectangle_8137" data-name="Rectangle 8137" width="11.114" height="2.247" transform="translate(386.49 157.826) rotate(180)" fill="#ffd887"/>
      <rect id="Rectangle_8138" data-name="Rectangle 8138" width="0.83" height="15.557" transform="translate(297.139 188.686) rotate(180)" fill="#ffd989"/>
      <g id="Group_29048" data-name="Group 29048" transform="translate(394.516 158.024)">
        <g id="Group_29014" data-name="Group 29014" transform="translate(4.066 110.626)">
          <g id="Group_29013" data-name="Group 29013">
            <path id="Path_14432" data-name="Path 14432" d="M1061.411,648.323s-3.11,5.272-4.423,6.133c-1.782,1.169-.666,2.351.181,2.352s5.169.31,6.122-.771,1.425-4.321,2.311-5.168,1.8-4.215-.432-5.034C1063.2,645.111,1061.411,648.323,1061.411,648.323Z" transform="translate(-1056.037 -645.729)" fill="#484e7d"/>
          </g>
        </g>
        <g id="Group_29016" data-name="Group 29016" transform="translate(6.483 110.732)">
          <g id="Group_29015" data-name="Group 29015">
            <path id="Path_14433" data-name="Path 14433" d="M1069.018,646.279s-3.562,6.174-4.176,7.086,1.156.911,2.253.477,3.855-4.861,4.251-5.668a2.976,2.976,0,0,0,.084-2.065Z" transform="translate(-1064.716 -646.11)" fill="#202338"/>
          </g>
        </g>
        <g id="Group_29018" data-name="Group 29018" transform="translate(13.136 114.223)">
          <g id="Group_29017" data-name="Group 29017">
            <path id="Path_14434" data-name="Path 14434" d="M1089.859,658.643l-.822,6.33-.437.02.136-4.554Z" transform="translate(-1088.6 -658.643)" fill="#484e7d"/>
          </g>
        </g>
        <g id="Group_29020" data-name="Group 29020" transform="translate(34.907 110.645)">
          <g id="Group_29019" data-name="Group 29019">
            <path id="Path_14435" data-name="Path 14435" d="M1172.132,648.374s-3.11,5.272-4.423,6.133c-1.782,1.169-.666,2.351.181,2.352s5.169.31,6.122-.771,1.425-4.321,2.311-5.168,1.831-4.3-.432-5.034C1173.909,645.244,1172.132,648.374,1172.132,648.374Z" transform="translate(-1166.758 -645.799)" fill="#484e7d"/>
          </g>
        </g>
        <g id="Group_29022" data-name="Group 29022" transform="translate(37.327 110.732)">
          <g id="Group_29021" data-name="Group 29021">
            <path id="Path_14436" data-name="Path 14436" d="M1179.562,646.292s-3.375,6.161-3.989,7.073,1.156.911,2.253.477,3.855-4.861,4.251-5.668a2.977,2.977,0,0,0,.085-2.065Z" transform="translate(-1175.447 -646.11)" fill="#202338"/>
          </g>
        </g>
        <g id="Group_29024" data-name="Group 29024" transform="translate(43.977 114.223)">
          <g id="Group_29023" data-name="Group 29023">
            <path id="Path_14437" data-name="Path 14437" d="M1200.579,658.643l-.822,6.33-.437.02.136-4.554Z" transform="translate(-1199.32 -658.643)" fill="#484e7d"/>
          </g>
        </g>
        <g id="Group_29026" data-name="Group 29026" transform="translate(10.783 60.848)">
          <g id="Group_29025" data-name="Group 29025">
            <path id="Path_14438" data-name="Path 14438" d="M1082.569,516.906s8.143-17.272,9.242-28.16a5.423,5.423,0,0,1,3.494-4.509l28.144-12.824s-6.139-4.679-18.071-4.377c0,0-15.891,6.484-19.752,9.615-.522.422-.824.784-.838,1.061-.021.406-.115,1.676-.266,3.532-.716,8.759-2.72,30.545-4.367,35.831C1080.154,517.075,1079.953,518.184,1082.569,516.906Z" transform="translate(-1080.151 -467.022)" fill="#202338"/>
          </g>
        </g>
        <g id="Group_29028" data-name="Group 29028" transform="translate(23.385 58.913)">
          <g id="Group_29027" data-name="Group 29027">
            <path id="Path_14439" data-name="Path 14439" d="M1161.4,471.91c-.872,7.608-11.73,6.736-11.73,6.736H1136.5a82.112,82.112,0,0,1,4.792,14.181c1.417,6.886,4.756,19.069,4.756,19.069s-.219.414-2.6.182c0,0-10.331-20.591-14.286-25.767a34.951,34.951,0,0,1-3.709-10.767c-.141-1.214-.054-2.151.4-2.531a32.891,32.891,0,0,1,2.906-1.986c4.122-2.6,11.282-6.6,15.271-7.5,5.342-1.2,13.792-3.451,13.792-3.451A14.552,14.552,0,0,1,1161.4,471.91Z" transform="translate(-1125.395 -460.078)" fill="#202338"/>
          </g>
        </g>
        <g id="Group_29029" data-name="Group 29029" transform="translate(15.415 58.914)">
          <path id="Path_14440" data-name="Path 14440" d="M1117.233,478.647h11.788s10.859.871,11.73-6.736a14.545,14.545,0,0,0-3.571-11.832s-5.737,1.528-10.745,2.738a38.783,38.783,0,0,0-9.059-.79s-19.324,1.962-20.593,10.725C1096.785,472.751,1105.665,467.987,1117.233,478.647Z" transform="translate(-1096.783 -460.079)" fill="#384c9e"/>
        </g>
        <g id="Group_29031" data-name="Group 29031" transform="translate(33.551 0)">
          <g id="Group_29030" data-name="Group 29030">
            <path id="Path_14441" data-name="Path 14441" d="M1172.818,248.638s5.14-.8,7.3,3.232-.124,6.5.716,7.888,3.9,3.281,3.476,5.474-3.817,4.642-2.966,6.581a19.137,19.137,0,0,1,1.355,3.372c-.07.158-20.807,3.724-20.807,3.724a19.449,19.449,0,0,1,2.812-4.091c1.294-1.184,2.671-1.558,1.07-5.741s-2.971-6.165-2.3-9.3.427-6.028,3.547-8.817A9.224,9.224,0,0,1,1172.818,248.638Z" transform="translate(-1161.891 -248.574)" fill="#282b45"/>
          </g>
        </g>
        <g id="Group_29032" data-name="Group 29032" transform="translate(17.076 21.792)">
          <path id="Path_14442" data-name="Path 14442" d="M1139.747,359.26c-.124-.8-1.441-3.651-2.2-6.873,6.415-10.419,8.706-17.524,6.576-20.963-2.352-3.8-8.243-4.615-8.243-4.615l-7.681.289s-7.093,2.176-10.451,5.91c-3.116,3.463-8.672,20.766-9,21.531-1.668,3.875-5.773,15.713-5.991,15.756s3.218.385,3.218.385,3.329-7.192,5.626-13.006c.408-1.033,1.7-3.974,3.033-6.745h0c.272-.565.547-1.124.816-1.658a16.821,16.821,0,0,1,1.636-2.674,18.994,18.994,0,0,0,2.49,4.877,32.091,32.091,0,0,0,1.132,5.009,7.219,7.219,0,0,1,.286,1.817c.135,1.854.122,4.517.248,6.167l-.13.154c-3.05,3.63-2.82,2.808-2.6,2.97.464.348,3.349,2.555,3.691,2.155.479-.56.261-.1,3.344-3.171.883.075,1.866.138,2.9.173h0c5.025.17,11.246-.289,13.04-2.817C1141.479,363.931,1140.362,363.194,1139.747,359.26Zm-2.29-15.8a2.529,2.529,0,0,1,.459-.542l0,.005-.007.009c-.054.073-.286.39-.643.877A3.406,3.406,0,0,1,1137.457,343.455Z" transform="translate(-1102.743 -326.809)" fill="#4ba2f4"/>
        </g>
        <g id="Group_29034" data-name="Group 29034" transform="translate(41.882 13.586)">
          <g id="Group_29033" data-name="Group 29033">
            <path id="Path_14443" data-name="Path 14443" d="M1200.125,298.421a9.489,9.489,0,0,0,0,7.135c-.29,2.555-7.462,10.032-8.117,9.2-.528-.667.078-6.049.333-8.113.062-.5.1-.8.1-.8a3.974,3.974,0,0,0-.062-1h0s0,0,0,0a5.337,5.337,0,0,0-.373-1.211s6.051-5.9,7.805-6.261C1200.273,297.273,1200.44,297.556,1200.125,298.421Z" transform="translate(-1191.799 -297.35)" fill="#eea886"/>
          </g>
        </g>
        <g id="Group_29035" data-name="Group 29035" transform="translate(47.927 33.618)">
          <path id="Path_14444" data-name="Path 14444" d="M1224.14,369.264s-5.959,11.876-4.511,20.5c.733,4.362-6.126-15.185-6.126-15.185Z" transform="translate(-1213.503 -369.264)" fill="#4ba2f4"/>
        </g>
        <g id="Group_29037" data-name="Group 29037" transform="translate(37.583 1.761)">
          <g id="Group_29036" data-name="Group 29036">
            <path id="Path_14445" data-name="Path 14445" d="M1179.565,256.4s-5.243,4.406-2.3,13.166,9.138,2.76,9.733,2.089c.916-1.034,2.242-6.175,2.033-8.638C1188.83,260.693,1188.913,251.288,1179.565,256.4Z" transform="translate(-1176.367 -254.898)" fill="#eea886"/>
          </g>
        </g>
        <g id="Group_29039" data-name="Group 29039" transform="translate(36.537 0.882)">
          <g id="Group_29038" data-name="Group 29038">
            <path id="Path_14446" data-name="Path 14446" d="M1177.467,255.874c.573-.247,3.046,3.383,4.24,4.208s3.941,3.421,4.454,6.027,1.244-6.474.1-9.488-2.72-7.445-9.22-2.992-3.924,10.7-3.924,10.7S1174.573,257.123,1177.467,255.874Z" transform="translate(-1172.613 -251.741)" fill="#282b45"/>
          </g>
        </g>
        <g id="Group_29041" data-name="Group 29041" transform="translate(47.129 8.393)">
          <g id="Group_29040" data-name="Group 29040">
            <path id="Path_14447" data-name="Path 14447" d="M1210.649,280.154c.055-1.086,2.292-2.269,2.451-.667s-.913,3.6-1.66,3.574S1210.6,281.155,1210.649,280.154Z" transform="translate(-1210.637 -278.705)" fill="#eea886"/>
          </g>
        </g>
        <g id="Group_29042" data-name="Group 29042" transform="translate(35.324 37.896)">
          <path id="Path_14448" data-name="Path 14448" d="M1185.181,384.622l0,.005-.007.009c-.054.078-.307.441-.7,1-1.8,2.569-6.525,9.282-8.266,11.383l0,.006,0,0-6.93,8.24-.308.364-.305.363-.154.183c-.126-1.65-.113-4.313-.248-6.167,1.9-1.021,7.842-4.714,16.465-14.845q.229-.267.459-.542h0Z" transform="translate(-1168.255 -384.622)" fill="#3c82c4"/>
        </g>
        <g id="Group_29043" data-name="Group 29043" transform="translate(39.875 51.11)">
          <path id="Path_14449" data-name="Path 14449" d="M1194.21,432.064l-6.716,10.619h0c-1.033-.035-2.016-.1-2.9-.173,0,0,7.888-7.862,8.42-8.654Z" transform="translate(-1184.593 -432.064)" fill="#3c82c4"/>
        </g>
        <g id="Group_29044" data-name="Group 29044" transform="translate(42.427 17.095)">
          <path id="Path_14450" data-name="Path 14450" d="M1200.267,309.947s-.269,4.519-6.511,5.788c.062-.5.1-.8.1-.8a3.979,3.979,0,0,0-.062-1l.012,0a6.014,6.014,0,0,0,2.849-.467l0,0a6.411,6.411,0,0,0,1.629-.989A7.951,7.951,0,0,0,1200.267,309.947Z" transform="translate(-1193.756 -309.947)" fill="#a77860"/>
        </g>
        <g id="Group_29045" data-name="Group 29045" transform="translate(28.916 35.123)">
          <path id="Path_14451" data-name="Path 14451" d="M1147.749,381.126a16.777,16.777,0,0,0-1.636,2.674c-.269.534-.544,1.092-.816,1.658a19.027,19.027,0,0,1,2.616-10.788C1147.256,376.009,1147.749,381.126,1147.749,381.126Z" transform="translate(-1145.25 -374.669)" fill="#3c82c4"/>
        </g>
        <g id="Group_29046" data-name="Group 29046" transform="translate(17.085 61.078)">
          <path id="Path_14452" data-name="Path 14452" d="M1105.994,472.433s-2.589.433-3.218-.385l1.631-4.2,3.37.643Z" transform="translate(-1102.776 -467.848)" fill="#e55353"/>
        </g>
        <path id="Path_14453" data-name="Path 14453" d="M1141.311,484.827l-22.671-2.453,10.242,7.7Z" transform="translate(-1097.136 -417.25)" fill="#026bba"/>
        <path id="Path_14454" data-name="Path 14454" d="M1154.321,496.432l12.429-3.916v-1.334l-12.849,3.81Z" transform="translate(-1122.575 -423.604)" fill="#013963"/>
        <g id="Group_29047" data-name="Group 29047" transform="translate(26.332 63.948)">
          <path id="Path_14455" data-name="Path 14455" d="M1138.8,478.153s-1.015.863-1.263,1.167-1.273,1.466-1.522,1.743.553.468,2.49-1.08S1138.8,478.153,1138.8,478.153Z" transform="translate(-1135.973 -478.153)" fill="#eea886"/>
        </g>
        <path id="Path_14456" data-name="Path 14456" d="M1146.1,469.316s-1.757.46-2.987.705a8.794,8.794,0,0,0-3.668,2.028c-.485.7-1.667,4.734-1.976,5.074s.313.6.879.121a1.367,1.367,0,0,0,2.134.135c1.281-1.089,1.909-2.711,2.595-3.206s4.79-3.147,4.79-3.147S1147.125,468.534,1146.1,469.316Z" transform="translate(-1110.663 -407.72)" fill="#eea886"/>
        <path id="Path_14457" data-name="Path 14457" d="M1073.186,444.819l-6.61-22.724-25.136-2.453,6.888,20.917Z" transform="translate(-1041.44 -371.992)" fill="#013963"/>
        <path id="Path_14458" data-name="Path 14458" d="M1085.58,453.941c.49,1.3,1.48,2.128,2.21,1.852s.925-1.552.435-2.851-1.48-2.128-2.211-1.852S1085.089,452.642,1085.58,453.941Z" transform="translate(-1073.09 -394.642)" fill="#026bba"/>
        <path id="Path_14459" data-name="Path 14459" d="M1159.33,462.85a26.258,26.258,0,0,1,3.372,2.9s4.849-4.752,5.346-5.251l-5.359-1.167Z" transform="translate(-1126.492 -400.628)" fill="#4ba2f4"/>
        <path id="Path_14460" data-name="Path 14460" d="M1123.878,517.381v0a5.3,5.3,0,0,1,1.511-1.792s-1.378-3.919-1.06-6.212A44.779,44.779,0,0,0,1123.878,517.381Z" transform="translate(-1100.882 -436.733)" fill="#202338"/>
      </g>
      <g id="Group_29091" data-name="Group 29091" transform="translate(325.965 449.151)">
        <g id="Group_29049" data-name="Group 29049" transform="translate(48.366 17.554)">
          <path id="Path_14461" data-name="Path 14461" d="M969.008,1362.116a7.939,7.939,0,0,1,.046-1.823c.253-1-.12-2.623,1.14-3.41s4.88,2.508,5.165,3.429-1.069,2.49-3.9,3.807S969.008,1362.116,969.008,1362.116Z" transform="translate(-968.975 -1356.763)" fill="#eea886"/>
        </g>
        <g id="Group_29050" data-name="Group 29050" transform="translate(49.2 11.089)">
          <path id="Path_14462" data-name="Path 14462" d="M971.968,1340.463a42.893,42.893,0,0,1,2.836-3.719c1.416-1.649,3.4-3.5,3.823-3.147.637.533-1.166,1.863-2.459,3.592-1.19,1.592-.685,1.48-.685,1.48s-.146.024,1.493-1.457c1.762-1.592,3.721-3.229,4.07-2.948.432.349.457.428-.087,1.111.4-.325.545-.261.7-.108.794.8-1.425,3.542-2.307,4.632.682-.833,1.273-1.371,1.444-.57.2.916-3.12,4.656-4.177,6.109C975.464,1347.026,971.968,1340.463,971.968,1340.463Z" transform="translate(-971.968 -1333.553)" fill="#eea886"/>
        </g>
        <g id="Group_29054" data-name="Group 29054" transform="translate(0 149.673)">
          <g id="Group_29053" data-name="Group 29053">
            <g id="Group_29052" data-name="Group 29052">
              <g id="Group_29051" data-name="Group 29051">
                <path id="Path_14463" data-name="Path 14463" d="M802.181,1831.513s3.446,2.037,5.006,2.795,7.622.974,8.222,1.543.38,2.381-.625,2.566-8.373.851-10.831.276-7.056.393-8.075.047-.361-5.835.032-7.067S802.181,1831.513,802.181,1831.513Z" transform="translate(-795.335 -1831.082)" fill="#181929"/>
              </g>
            </g>
          </g>
        </g>
        <g id="Group_29058" data-name="Group 29058" transform="translate(0.843 147.862)">
          <g id="Group_29057" data-name="Group 29057">
            <g id="Group_29056" data-name="Group 29056">
              <g id="Group_29055" data-name="Group 29055">
                <path id="Path_14464" data-name="Path 14464" d="M804.652,1824.58l-.287,2.244s-4.607.862-6,.152l.346-2.332Z" transform="translate(-798.362 -1824.58)" fill="#22243b"/>
              </g>
            </g>
          </g>
        </g>
        <g id="Group_29059" data-name="Group 29059" transform="translate(0 61.375)">
          <path id="Path_14465" data-name="Path 14465" d="M820.95,1523.907c-.049,1.554-.332,4.927-.662,8.468-.073.786-.151,1.583-.227,2.368-.46,4.766-.923,9.174-.923,9.174-.582,3.794-1.782,10.38-3.124,15.36h0c-.388,1.437-.785,2.74-1.185,3.8a9.393,9.393,0,0,1-1.158,2.328c-2.855,3.647-9.4,35.977-9.4,35.977l-8.935-.068s1.965-21.892,3.94-27.441c2.2-6.2,6.032-14.55,5.081-20.527-.595-3.751-1.362-15.69-1.362-15.69s-.747-13.417,2.762-23.243C806.633,1511.96,820.95,1523.907,820.95,1523.907Z" transform="translate(-795.336 -1514.084)" fill="#292c47"/>
        </g>
        <g id="Group_29063" data-name="Group 29063" transform="translate(25.049 150.462)">
          <g id="Group_29062" data-name="Group 29062">
            <g id="Group_29061" data-name="Group 29061">
              <g id="Group_29060" data-name="Group 29060">
                <path id="Path_14466" data-name="Path 14466" d="M892.17,1834.4s3.421,2.079,4.972,2.854,7.61,1.066,8.2,1.642.351,2.385-.656,2.559-8.383.75-10.834.146-7.061.308-8.074-.05-.291-5.839.117-7.066S892.17,1834.4,892.17,1834.4Z" transform="translate(-885.264 -1833.915)" fill="#181929"/>
              </g>
            </g>
          </g>
        </g>
        <g id="Group_29067" data-name="Group 29067" transform="translate(25.951 148.696)">
          <g id="Group_29066" data-name="Group 29066">
            <g id="Group_29065" data-name="Group 29065">
              <g id="Group_29064" data-name="Group 29064">
                <path id="Path_14467" data-name="Path 14467" d="M894.821,1827.581l-.314,2.241s-4.617.806-6,.08l.374-2.328Z" transform="translate(-888.503 -1827.574)" fill="#22243b"/>
              </g>
            </g>
          </g>
        </g>
        <g id="Group_29068" data-name="Group 29068" transform="translate(12.564 62.473)">
          <path id="Path_14468" data-name="Path 14468" d="M849.467,1572.2c-.233-7.151-.864-11.9-2.7-16.032-1.545-3.469-2.868-14.363-2.868-14.363s-4.188-12.766-3.339-23.167c.213-2.6,16.4,3.932,16.4,3.932a95.8,95.8,0,0,1,1.821,9.815c2.192,20.2,1.371,33.351,1.371,33.351-1.252,4.459,1.911,39.544,1.911,39.544h-9.11s-2.388-12.481-2.64-20.243C850.308,1585.033,849.376,1573.435,849.467,1572.2Z" transform="translate(-840.442 -1518.025)" fill="#292c47"/>
        </g>
        <g id="Group_29070" data-name="Group 29070" transform="translate(7.604 22.372)">
          <g id="Group_29069" data-name="Group 29069">
            <path id="Path_14469" data-name="Path 14469" d="M836.415,1375.806s4.245,6.959,5.486,10.842.241,15.173.46,17.443c.679,7.04,1.67,14.791,1.67,14.791l-14.23,9.089a140.675,140.675,0,0,1-4.781-13.394,62.476,62.476,0,0,1-2.386-18.585c.065-14.017,7.642-21.933,7.642-21.933Z" transform="translate(-822.633 -1374.06)" fill="#cfbeb6"/>
          </g>
        </g>
        <g id="Group_29072" data-name="Group 29072" transform="translate(12.426 2.729)">
          <g id="Group_29071" data-name="Group 29071">
            <path id="Path_14470" data-name="Path 14470" d="M854.133,1306.264s2.918,3.123,2.094,3.944c-.681.678,2,3.79,2.383,4.313s-1.191,1.389-1.45,1.859-.106,5.367-1.457,5.871-8.17-.029-10.336-1.352-5.661-8.947-5.41-12.616S849,1300.822,854.133,1306.264Z" transform="translate(-839.944 -1303.54)" fill="#eea886"/>
          </g>
        </g>
        <g id="Group_29074" data-name="Group 29074" transform="translate(16.069 8.029)">
          <g id="Group_29073" data-name="Group 29073">
            <path id="Path_14471" data-name="Path 14471" d="M860.811,1334.921s-.05.416-.116,1.061c-.025.271-.059.578-.087.916-.017.2-.033.412-.054.628,0,.058-.013.117-.017.175-.008.1-.017.2-.025.3-.033.47-.067.957-.092,1.44a15.164,15.164,0,0,0,.062,3.1c.358,1.815-7.458-5.843-7.458-5.843a89.48,89.48,0,0,0,.341-12.614C853.04,1317.409,860.811,1334.921,860.811,1334.921Z" transform="translate(-853.024 -1322.567)" fill="#eea886"/>
          </g>
        </g>
        <g id="Group_29076" data-name="Group 29076" transform="translate(11.182 0)">
          <g id="Group_29075" data-name="Group 29075">
            <path id="Path_14472" data-name="Path 14472" d="M851.51,1299.884s1.38-3.256-2.877-5.517c-5.011-2.661-10.325,4.021-11.029,4.414s-3.909,4-.774,8.779c3.956,6.031,3.748,5.829,3.748,5.829s.4-4.449.371-5.308c-.047-1.569,4.068-1.755,4.068-1.755s-1.69-2.25.189-3.259S849.283,1299.661,851.51,1299.884Z" transform="translate(-835.478 -1293.742)" fill="#3a3f47"/>
          </g>
        </g>
        <g id="Group_29078" data-name="Group 29078" transform="translate(15.432 10.706)">
          <g id="Group_29077" data-name="Group 29077">
            <path id="Path_14473" data-name="Path 14473" d="M853.865,1333.485c-.3-.421-1.4-2.28-2.813-.647s2.378,4.684,2.691,4.654S856.387,1337.028,853.865,1333.485Z" transform="translate(-850.738 -1332.178)" fill="#eea886"/>
          </g>
        </g>
        <g id="Group_29079" data-name="Group 29079" transform="translate(8.123 66.369)">
          <path id="Path_14474" data-name="Path 14474" d="M846.154,1535.839s-.708-3.329-.845-3.827l-20.81,3.463.213,2.69S839.706,1537.265,846.154,1535.839Z" transform="translate(-824.499 -1532.012)" fill="#23263d"/>
        </g>
        <g id="Group_29080" data-name="Group 29080" transform="translate(4.443 55.527)">
          <path id="Path_14475" data-name="Path 14475" d="M813.114,1493.09A62.93,62.93,0,0,1,811.3,1523c-.611,1.967,13.859-.306,13.859-.306Z" transform="translate(-811.285 -1493.09)" fill="#384c9e"/>
        </g>
        <g id="Group_29082" data-name="Group 29082" transform="translate(5.41 22.375)">
          <g id="Group_29081" data-name="Group 29081">
            <path id="Path_14476" data-name="Path 14476" d="M834,1435.821s-10.278,2.256-13.165,1.236a206.527,206.527,0,0,1-5.666-30.792c-.113-1.2-.21-2.4-.287-3.59v0c-.818-12.618,2.394-25.419,9.712-28.6.206.139,10.513,9.226,10.317,17.543q-.021.844-.026,1.693c-.006,1.022,0,2.047.023,3.07h0c.066,3.164.261,6.32.541,9.385.028.319.059.639.09.955q.075.773.157,1.535.11,1.016.229,2.014A68.645,68.645,0,0,1,834,1435.821Z" transform="translate(-814.758 -1374.07)" fill="#384c9e"/>
          </g>
        </g>
        <g id="Group_29083" data-name="Group 29083" transform="translate(24.231 30.046)">
          <path id="Path_14477" data-name="Path 14477" d="M882.326,1401.76a114.331,114.331,0,0,1,2.675,17.31c.618,8.07,1.442,13.776,1.442,13.776l1.236,3.995.508-3.853s-.453-10.414-1.058-14.651c-.609-4.271-.875-9.694-4.29-16.728Z" transform="translate(-882.326 -1401.61)" fill="#d44040"/>
        </g>
        <g id="Group_29084" data-name="Group 29084" transform="translate(23.693 27.767)">
          <path id="Path_14478" data-name="Path 14478" d="M880.717,1395.864a1.145,1.145,0,0,0,.564.273c.33.049.8-.479-.885-2.707Z" transform="translate(-880.395 -1393.429)" fill="#d44040"/>
        </g>
        <g id="Group_29086" data-name="Group 29086" transform="translate(15.247 21.222)">
          <g id="Group_29085" data-name="Group 29085">
            <path id="Path_14479" data-name="Path 14479" d="M850.986,1369.93s4.786,4.507,7.634,5.5l.543,4.318-9.089-8.667Z" transform="translate(-850.074 -1369.93)" fill="#eddad3"/>
          </g>
        </g>
        <g id="Group_29087" data-name="Group 29087" transform="translate(11.382 21.327)">
          <path id="Path_14480" data-name="Path 14480" d="M844.187,1387.651c-1.886-.67-9.727-4.476-7.641-8.919s7.461-2.079,11.507-.272c4.234,1.891,14.228,7.7,15.019,7.161s4.248-5.488,4.873-6.591,4.4-8.149,4.754-8.68,5.829,4.084,5.829,4.084-9.842,17.479-12.49,20.262S844.187,1387.651,844.187,1387.651Z" transform="translate(-836.196 -1370.309)" fill="#384c9e"/>
        </g>
        <g id="Group_29088" data-name="Group 29088" transform="translate(16.376 91.779)">
          <path id="Path_14481" data-name="Path 14481" d="M858.427,1638.022h0c-.388,1.437-.786,2.74-1.185,3.8h0l-3.116-18.59C854.913,1625,858.427,1638.022,858.427,1638.022Z" transform="translate(-854.125 -1623.235)" fill="#181929"/>
        </g>
        <g id="Group_29089" data-name="Group 29089" transform="translate(16.543 37.315)">
          <path id="Path_14482" data-name="Path 14482" d="M863.745,1435.073l-9.018-7.366c2.389,1.28,8.259,3.961,8.995,4.3C863.715,1433.025,863.723,1434.05,863.745,1435.073Z" transform="translate(-854.727 -1427.707)" fill="#27356e"/>
        </g>
        <g id="Group_29090" data-name="Group 29090" transform="translate(18.158 20.263)">
          <path id="Path_14483" data-name="Path 14483" d="M866.115,1367.719c-.025.271-.068.529-.1.866-.017.2-.033.412-.054.628a9.326,9.326,0,0,1-5.439-2.726C861.739,1367.452,866.115,1367.719,866.115,1367.719Z" transform="translate(-860.524 -1366.487)" fill="#a77860"/>
        </g>
      </g>
      <g id="Group_29184" data-name="Group 29184" transform="translate(230.458 359.668)">
        <g id="Group_29094" data-name="Group 29094" transform="translate(34.166 129.33)">
          <g id="Group_29093" data-name="Group 29093">
            <g id="Group_29092" data-name="Group 29092">
              <path id="Path_14484" data-name="Path 14484" d="M580.98,1437.84s-.789,3.1-.9,3.567-4.968-.819-4.968-.819l0-3.791S580.41,1437.33,580.98,1437.84Z" transform="translate(-575.115 -1436.797)" fill="#666fb3"/>
            </g>
          </g>
        </g>
        <g id="Group_29097" data-name="Group 29097" transform="translate(32.29 132.783)">
          <g id="Group_29096" data-name="Group 29096">
            <g id="Group_29095" data-name="Group 29095">
              <path id="Path_14485" data-name="Path 14485" d="M575.322,1449.956a13.468,13.468,0,0,0,2.786,3.057c1.425.991,6.925,2.272,7.728,3.224.58.688,1.386,3.291-7.439,2.1-6.27-.844-9.363-.631-9.927-1.724s1.788-7.423,1.788-7.423S571.6,1449.923,575.322,1449.956Z" transform="translate(-568.383 -1449.194)" fill="#2d314f"/>
            </g>
          </g>
        </g>
        <g id="Group_29100" data-name="Group 29100" transform="translate(35.909 38.912)">
          <g id="Group_29099" data-name="Group 29099" transform="translate(0 0)">
            <g id="Group_29098" data-name="Group 29098">
              <rect id="Rectangle_8139" data-name="Rectangle 8139" width="212.178" height="2.231" transform="translate(0 211.18) rotate(-84.445)" fill="#b8b8b8"/>
            </g>
          </g>
        </g>
        <g id="Group_29103" data-name="Group 29103" transform="translate(0 35.427)">
          <g id="Group_29102" data-name="Group 29102" transform="translate(0 0)">
            <g id="Group_29101" data-name="Group 29101">
              <rect id="Rectangle_8140" data-name="Rectangle 8140" width="212.178" height="2.231" transform="translate(0 211.18) rotate(-84.445)" fill="#b8b8b8"/>
            </g>
          </g>
        </g>
        <g id="Group_29131" data-name="Group 29131" transform="translate(8.161 38.573)">
          <g id="Group_29106" data-name="Group 29106" transform="translate(12.974 0)">
            <g id="Group_29105" data-name="Group 29105" transform="translate(0)">
              <g id="Group_29104" data-name="Group 29104">
                <rect id="Rectangle_8141" data-name="Rectangle 8141" width="2.231" height="36.079" transform="translate(0 2.22) rotate(-84.456)" fill="#b8b8b8"/>
              </g>
            </g>
          </g>
          <g id="Group_29109" data-name="Group 29109" transform="translate(11.352 16.694)">
            <g id="Group_29108" data-name="Group 29108" transform="translate(0 0)">
              <g id="Group_29107" data-name="Group 29107">
                <rect id="Rectangle_8142" data-name="Rectangle 8142" width="2.231" height="36.079" transform="translate(0 2.22) rotate(-84.456)" fill="#b8b8b8"/>
              </g>
            </g>
          </g>
          <g id="Group_29112" data-name="Group 29112" transform="translate(9.734 33.401)">
            <g id="Group_29111" data-name="Group 29111" transform="translate(0 0)">
              <g id="Group_29110" data-name="Group 29110">
                <rect id="Rectangle_8143" data-name="Rectangle 8143" width="2.231" height="36.079" transform="translate(0 2.22) rotate(-84.456)" fill="#b8b8b8"/>
              </g>
            </g>
          </g>
          <g id="Group_29115" data-name="Group 29115" transform="translate(8.113 50.1)">
            <g id="Group_29114" data-name="Group 29114" transform="translate(0 0)">
              <g id="Group_29113" data-name="Group 29113">
                <rect id="Rectangle_8144" data-name="Rectangle 8144" width="2.231" height="36.079" transform="translate(0 2.22) rotate(-84.456)" fill="#b8b8b8"/>
              </g>
            </g>
          </g>
          <g id="Group_29118" data-name="Group 29118" transform="translate(6.491 66.794)">
            <g id="Group_29117" data-name="Group 29117" transform="translate(0 0)">
              <g id="Group_29116" data-name="Group 29116">
                <rect id="Rectangle_8145" data-name="Rectangle 8145" width="2.231" height="36.079" transform="translate(0 2.22) rotate(-84.456)" fill="#b8b8b8"/>
              </g>
            </g>
          </g>
          <g id="Group_29121" data-name="Group 29121" transform="translate(4.87 83.493)">
            <g id="Group_29120" data-name="Group 29120" transform="translate(0 0)">
              <g id="Group_29119" data-name="Group 29119">
                <rect id="Rectangle_8146" data-name="Rectangle 8146" width="2.23" height="36.079" transform="translate(0 2.22) rotate(-84.456)" fill="#b8b8b8"/>
              </g>
            </g>
          </g>
          <g id="Group_29124" data-name="Group 29124" transform="translate(3.248 100.197)">
            <g id="Group_29123" data-name="Group 29123" transform="translate(0 0)">
              <g id="Group_29122" data-name="Group 29122">
                <rect id="Rectangle_8147" data-name="Rectangle 8147" width="2.231" height="36.079" transform="translate(0 2.22) rotate(-84.456)" fill="#b8b8b8"/>
              </g>
            </g>
          </g>
          <g id="Group_29127" data-name="Group 29127" transform="translate(1.626 116.89)">
            <g id="Group_29126" data-name="Group 29126" transform="translate(0 0)">
              <g id="Group_29125" data-name="Group 29125">
                <rect id="Rectangle_8148" data-name="Rectangle 8148" width="2.231" height="36.079" transform="translate(0 2.22) rotate(-84.456)" fill="#b8b8b8"/>
              </g>
            </g>
          </g>
          <g id="Group_29130" data-name="Group 29130" transform="translate(0 133.566)">
            <g id="Group_29129" data-name="Group 29129" transform="translate(0 0)">
              <g id="Group_29128" data-name="Group 29128">
                <rect id="Rectangle_8149" data-name="Rectangle 8149" width="2.231" height="36.079" transform="translate(0 2.22) rotate(-84.456)" fill="#b8b8b8"/>
              </g>
            </g>
          </g>
        </g>
        <g id="Group_29144" data-name="Group 29144" transform="translate(1.685 188.852)">
          <g id="Group_29134" data-name="Group 29134" transform="translate(4.854 0)">
            <g id="Group_29133" data-name="Group 29133" transform="translate(0)">
              <g id="Group_29132" data-name="Group 29132">
                <rect id="Rectangle_8150" data-name="Rectangle 8150" width="2.231" height="36.079" transform="matrix(0.097, -0.995, 0.995, 0.097, 0, 2.22)" fill="#b8b8b8"/>
              </g>
            </g>
          </g>
          <g id="Group_29137" data-name="Group 29137" transform="translate(3.24 16.707)">
            <g id="Group_29136" data-name="Group 29136" transform="translate(0 0)">
              <g id="Group_29135" data-name="Group 29135">
                <rect id="Rectangle_8151" data-name="Rectangle 8151" width="2.231" height="36.079" transform="translate(0 2.22) rotate(-84.456)" fill="#b8b8b8"/>
              </g>
            </g>
          </g>
          <g id="Group_29140" data-name="Group 29140" transform="translate(1.621 33.412)">
            <g id="Group_29139" data-name="Group 29139" transform="translate(0 0)">
              <g id="Group_29138" data-name="Group 29138">
                <rect id="Rectangle_8152" data-name="Rectangle 8152" width="2.231" height="36.079" transform="translate(0 2.22) rotate(-84.456)" fill="#b8b8b8"/>
              </g>
            </g>
          </g>
          <g id="Group_29143" data-name="Group 29143" transform="translate(0 50.111)">
            <g id="Group_29142" data-name="Group 29142" transform="translate(0 0)">
              <g id="Group_29141" data-name="Group 29141">
                <rect id="Rectangle_8153" data-name="Rectangle 8153" width="2.231" height="36.079" transform="translate(0 2.22) rotate(-84.456)" fill="#b8b8b8"/>
              </g>
            </g>
          </g>
        </g>
        <g id="Group_29147" data-name="Group 29147" transform="translate(77.616 3.812)">
          <g id="Group_29146" data-name="Group 29146">
            <g id="Group_29145" data-name="Group 29145">
              <path id="Path_14486" data-name="Path 14486" d="M741.038,992a3.321,3.321,0,0,1-.781.719s-.607.229-1.028.418a3.156,3.156,0,0,0-.319.16,6.1,6.1,0,0,1-1.719.91c-.83.239-4.585,1.094-4.585,1.094l-.873-2.228-.626-1.8s3.476-4.5,4.224-4.815a2.073,2.073,0,0,1,.218-.077,7.759,7.759,0,0,1,1.592-.144c.132-.024,1.456-.173,1.742.1a1.3,1.3,0,0,1,.45,1.183,3.111,3.111,0,0,1,.8,1.512,1.934,1.934,0,0,1,.521,1.626S741.3,991.457,741.038,992Z" transform="translate(-731.107 -986.177)" fill="#eea886"/>
            </g>
          </g>
        </g>
        <g id="Group_29150" data-name="Group 29150" transform="translate(43.144 8.374)">
          <g id="Group_29149" data-name="Group 29149">
            <g id="Group_29148" data-name="Group 29148">
              <path id="Path_14487" data-name="Path 14487" d="M611.507,1033.029a51.516,51.516,0,0,1,5.874-3.257c7.231-3.618,16.159-10.176,17.857-11.124,2.61-1.456,10.855-11.531,10.855-11.531-.425-1.518-4.335-4.563-4.335-4.563s-12.5,11.84-15.232,13.3c-2.35,1.253-13.953,2.519-17.149,2.848-.519.053-.816.082-.816.082C605.222,1023.336,609.643,1034.23,611.507,1033.029Z" transform="translate(-607.349 -1002.555)" fill="#3e426b"/>
            </g>
          </g>
        </g>
        <g id="Group_29153" data-name="Group 29153" transform="translate(19.605 62.631)">
          <g id="Group_29152" data-name="Group 29152">
            <g id="Group_29151" data-name="Group 29151">
              <path id="Path_14488" data-name="Path 14488" d="M549.264,1199.81s3.537,13.136,4.47,17.831c.812,4.091,2.447,14.987,2.679,17.578s-10.442,27.665-11.552,32.195l-9.725-1.561s10.261-26.1,7.584-31.9c-3.981-8.625-4.5-8.365-7.635-15.47s-10.315-7.274-12.243-20.457C522.842,1198.027,546.654,1195.629,549.264,1199.81Z" transform="translate(-522.842 -1197.343)" fill="#2d314f"/>
            </g>
          </g>
        </g>
        <g id="Group_29156" data-name="Group 29156" transform="translate(24.692 0.686)">
          <g id="Group_29155" data-name="Group 29155">
            <g id="Group_29154" data-name="Group 29154">
              <path id="Path_14489" data-name="Path 14489" d="M545.146,975.547s6.458-2.412,9.435,2.5,2.691,14.757-.564,15.967-8.145.577-9.811-2.5-3.171-7.523-3.1-10.494S543.45,976.4,545.146,975.547Z" transform="translate(-541.104 -974.955)" fill="#eea886"/>
            </g>
          </g>
        </g>
        <g id="Group_29159" data-name="Group 29159" transform="translate(26.451 13.497)">
          <g id="Group_29158" data-name="Group 29158">
            <g id="Group_29157" data-name="Group 29157">
              <path id="Path_14490" data-name="Path 14490" d="M557.487,1026.9a5.42,5.42,0,0,0,.17,2.526c.431.834-8.122.856-8.122.856a56.351,56.351,0,0,0-2.011-8.367C546.208,1018.078,557.487,1026.9,557.487,1026.9Z" transform="translate(-547.417 -1020.946)" fill="#eea886"/>
            </g>
          </g>
        </g>
        <g id="Group_29162" data-name="Group 29162" transform="translate(24.143)">
          <g id="Group_29161" data-name="Group 29161">
            <g id="Group_29160" data-name="Group 29160">
              <path id="Path_14491" data-name="Path 14491" d="M541.549,986.953s.59.974,3,.6,5.35-3.584,6.356-3.936,1.016-.943,1.016-.943l.63.92,1.069.067s-.975-2.868.5-4.038-1.526-9.283-9.255-6.582c0,0-5.936,1.636-5.72,5.012S540.221,985.271,541.549,986.953Z" transform="translate(-539.134 -972.491)" fill="#d88a51"/>
            </g>
          </g>
        </g>
        <g id="Group_29165" data-name="Group 29165" transform="translate(34.517 7.719)">
          <g id="Group_29164" data-name="Group 29164">
            <g id="Group_29163" data-name="Group 29163">
              <path id="Path_14492" data-name="Path 14492" d="M578.629,1001.433c-.135-.566-1.575-2.184-2.126-.452s.833,4.063,1.605,3.863S578.972,1002.87,578.629,1001.433Z" transform="translate(-576.376 -1000.202)" fill="#eea886"/>
            </g>
          </g>
        </g>
        <g id="Group_29167" data-name="Group 29167" transform="translate(12.093 24.804)">
          <g id="Group_29166" data-name="Group 29166">
            <path id="Path_14493" data-name="Path 14493" d="M495.92,1080.871a3.807,3.807,0,0,0,1.7,2.216,2.762,2.762,0,0,0,1.473.484l.384.013h0l6.71.228s4.989-16.123-4.369-22.272C501.526,1061.571,495.271,1073.1,495.92,1080.871Z" transform="translate(-495.873 -1061.54)" fill="#3e426b"/>
          </g>
        </g>
        <g id="Group_29170" data-name="Group 29170" transform="translate(32.29 132.782)">
          <g id="Group_29169" data-name="Group 29169">
            <g id="Group_29168" data-name="Group 29168">
              <path id="Path_14494" data-name="Path 14494" d="M568.47,1456.613c.564,1.093,3.657.88,9.928,1.724a28.677,28.677,0,0,0,4.123.305l.366-3.772a28.443,28.443,0,0,1-4.778-1.86,13.468,13.468,0,0,1-2.786-3.057c-3.723-.033-5.064-.763-5.064-.763S567.907,1455.521,568.47,1456.613Z" transform="translate(-568.383 -1449.19)" fill="#2d314f"/>
            </g>
          </g>
        </g>
        <g id="Group_29172" data-name="Group 29172" transform="translate(27.735 20.864)">
          <g id="Group_29171" data-name="Group 29171">
            <path id="Path_14495" data-name="Path 14495" d="M560.82,1048.012s-5.266-1.225-8.234-.223l-.448.415s-.9,1.729,2.494,1.878S563.366,1050.477,560.82,1048.012Z" transform="translate(-552.03 -1047.395)" fill="#3e426b"/>
          </g>
        </g>
        <g id="Group_29175" data-name="Group 29175" transform="translate(10.083 143.831)">
          <g id="Group_29174" data-name="Group 29174">
            <g id="Group_29173" data-name="Group 29173">
              <path id="Path_14496" data-name="Path 14496" d="M494.521,1489.9s-.789,3.1-.9,3.567-4.968-.818-4.968-.818l0-3.792S493.951,1489.386,494.521,1489.9Z" transform="translate(-488.656 -1488.855)" fill="#666fb3"/>
            </g>
          </g>
        </g>
        <g id="Group_29178" data-name="Group 29178" transform="translate(8.441 63.316)">
          <g id="Group_29177" data-name="Group 29177">
            <g id="Group_29176" data-name="Group 29176">
              <path id="Path_14497" data-name="Path 14497" d="M493.925,1199.8a102.417,102.417,0,0,0-2.3,14.631c-.485,6.764-1.368,14.183-2.07,21.258-.782,7.887-3.014,20.637-3.13,24.855s-3.668,22.657-3.668,22.657l9.084,1.044s5.9-32.583,7.3-35.914,8.306-27.075,8.538-29.74S493.925,1199.8,493.925,1199.8Z" transform="translate(-482.76 -1199.8)" fill="#2d314f"/>
            </g>
          </g>
        </g>
        <g id="Group_29181" data-name="Group 29181" transform="translate(8.208 147.281)">
          <g id="Group_29180" data-name="Group 29180">
            <g id="Group_29179" data-name="Group 29179">
              <path id="Path_14498" data-name="Path 14498" d="M488.864,1502.005a13.471,13.471,0,0,0,2.786,3.057c1.425.991,6.925,2.272,7.728,3.224.58.688,1.386,3.291-7.439,2.1-6.27-.844-9.363-.631-9.927-1.724s1.788-7.423,1.788-7.423S485.141,1501.972,488.864,1502.005Z" transform="translate(-481.925 -1501.243)" fill="#2d314f"/>
            </g>
          </g>
        </g>
        <g id="Group_29183" data-name="Group 29183" transform="translate(16.279 21.481)">
          <g id="Group_29182" data-name="Group 29182">
            <path id="Path_14499" data-name="Path 14499" d="M542.485,1109.634c.774-.111-1.921-23.173-1.715-24.619.138-.965.116-8.459.06-13.132l.843-4.728a21.6,21.6,0,0,1,1.852-1.17c1.171-.676,2.64-1.448,4.272-2.264-.19-1.117-.322-2-.372-2.51a9.445,9.445,0,0,0-4.779-7.281,7.83,7.83,0,0,0-1.089-.543c-.6-.255-1.191-.5-1.764-.738-3.809-1.567-8.647-3.039-8.647-3.039h-7.773a65.864,65.864,0,0,0-9.444,2.625,6.623,6.623,0,0,0-1.274.7l1.056,22.16,0,.014c0,.007,0,.017,0,.029.476,3.118.977,6.8,1.143,9.374.068,1.053-1.135,6.706-1.764,11.895l-2.2,12.417S512.17,1113.968,542.485,1109.634Z" transform="translate(-510.899 -1049.61)" fill="#3e426b"/>
          </g>
        </g>
      </g>
      <g id="Group_29187" data-name="Group 29187" transform="translate(474.325 501.302)">
        <g id="Group_29185" data-name="Group 29185" transform="translate(10.8)">
          <path id="Path_14500" data-name="Path 14500" d="M1368.294,1505.7a1.562,1.562,0,0,1-1.562-1.562v-21.6a1.562,1.562,0,0,1,3.124,0v21.6A1.561,1.561,0,0,1,1368.294,1505.7Z" transform="translate(-1366.732 -1480.971)" fill="#fff"/>
        </g>
        <g id="Group_29186" data-name="Group 29186" transform="translate(0 10.8)">
          <path id="Path_14501" data-name="Path 14501" d="M1351.126,1522.868h-21.6a1.562,1.562,0,0,1,0-3.124h21.6a1.562,1.562,0,1,1,0,3.124Z" transform="translate(-1327.959 -1519.744)" fill="#fff"/>
        </g>
      </g>
      <g id="Group_29212" data-name="Group 29212" transform="translate(382.947 482.944)">
        <path id="Path_14502" data-name="Path 14502" d="M1012.676,1813.14s-1.6,4.83-1.512,5.879,6.089,1.092,6.089,1.092l1.974-2.813Z" transform="translate(-1008.025 -1702.258)" fill="#163342"/>
        <g id="Group_29188" data-name="Group 29188" transform="translate(0 115.679)">
          <path id="Path_14503" data-name="Path 14503" d="M1002.728,1830.36a7.1,7.1,0,0,0-1.5,2.678c-.081,1.015-1.826,5.479-1.177,6.574s5.763,1.258,8.319.852,8.116.447,8.684-.649.893-2.694-.771-3.315-5.478-2.245-6.168-3.949S1002.728,1830.36,1002.728,1830.36Z" transform="translate(-999.905 -1830.36)" fill="#21243b"/>
        </g>
        <g id="Group_29190" data-name="Group 29190" transform="translate(71.045 0.412)">
          <g id="Group_29189" data-name="Group 29189">
            <path id="Path_14504" data-name="Path 14504" d="M1263.86,1416.567s6.749,1.2,6.808,6.92-5.169,13.992-8.568,13.38-7.263-3.63-7.132-7.106,1.1-8.044,2.661-10.552S1261.977,1416.444,1263.86,1416.567Z" transform="translate(-1254.964 -1416.542)" fill="#eea886"/>
          </g>
        </g>
        <g id="Group_29192" data-name="Group 29192" transform="translate(71.243 0)">
          <g id="Group_29191" data-name="Group 29191">
            <path id="Path_14505" data-name="Path 14505" d="M1255.717,1426.046s.013,1.167,2.334,2.09,6.586-.37,7.656-.156,1.387-.3,1.387-.3l.076,1.14.907.617s.636-3.037,2.543-3.3,3.5-8.98-4.726-10.629c0,0-6.086-1.653-7.657,1.435S1255.422,1423.873,1255.717,1426.046Z" transform="translate(-1255.673 -1415.064)" fill="#3a3f47"/>
          </g>
        </g>
        <g id="Group_29193" data-name="Group 29193" transform="translate(91.751 42.527)">
          <path id="Path_14506" data-name="Path 14506" d="M1330.066,1570.424a2.045,2.045,0,0,0,1.047-.478c.665-.677.726-2.109,2.064-2.206s2.572,3.959,2.359,4.793-1.992,1.5-4.787,1.368S1330.066,1570.424,1330.066,1570.424Z" transform="translate(-1329.3 -1567.738)" fill="#eea886"/>
        </g>
        <g id="Group_29194" data-name="Group 29194" transform="translate(95.135 39.905)">
          <path id="Path_14507" data-name="Path 14507" d="M1341.49,1561.047a41.882,41.882,0,0,1,3.927-1.736c1.863-.7,4.167-1.2,4.416-.885.556.712-1.617,1.214-3.423,2.032a14.191,14.191,0,0,0-1.377.633s-.123-.041,1.832-.523c2.1-.519,4.3-.843,4.579-.449.137.192.382.859-.5.831.459-.09.387-.16.432.023.235.947-2.76,2.177-3.95,2.665.916-.37,1.623-.546,1.377.148-.281.795-4.585,2.349-6.081,3.05C1341.095,1567.6,1341.49,1561.047,1341.49,1561.047Z" transform="translate(-1341.448 -1558.327)" fill="#eea886"/>
        </g>
        <g id="Group_29195" data-name="Group 29195" transform="translate(38.111 17.13)">
          <path id="Path_14508" data-name="Path 14508" d="M1161.834,1476.7a51.205,51.205,0,0,0-7.193,0c-2.976.3-7.088,2.74-9.577,3.443s-8.495,4.741-8.332,5.292a44.858,44.858,0,0,0,6.79,12.455C1147.205,1502.456,1161.834,1476.7,1161.834,1476.7Z" transform="translate(-1136.729 -1476.564)" fill="#4ba2f4"/>
        </g>
        <g id="Group_29196" data-name="Group 29196" transform="translate(45.869 19.912)">
          <path id="Path_14509" data-name="Path 14509" d="M1172.829,1486.55s-4.546,3.366-6.129,6.45a24.941,24.941,0,0,0-2.122,6.759Z" transform="translate(-1164.578 -1486.55)" fill="#3c82c4"/>
        </g>
        <g id="Group_29197" data-name="Group 29197" transform="translate(49.207 119.778)">
          <path id="Path_14510" data-name="Path 14510" d="M1184.921,1845.442a11.03,11.03,0,0,0,2.049,1.745c.751.365,9.719,1.907,10.328,2.638s.609,3.612-1.7,3.612-10.023-.041-11.322,0-6.784,1.136-7.349,0-.512-6.439.49-7.71S1184.921,1845.442,1184.921,1845.442Z" transform="translate(-1176.562 -1845.076)" fill="#21243b"/>
        </g>
        <g id="Group_29198" data-name="Group 29198" transform="translate(50.056 118.531)">
          <path id="Path_14511" data-name="Path 14511" d="M1186.84,1840.6l.276,1.612s-2.394,1.1-7.507.284v-1.664Z" transform="translate(-1179.609 -1840.6)" fill="#2a617d"/>
        </g>
        <g id="Group_29201" data-name="Group 29201" transform="translate(65.646 14.155)">
          <g id="Group_29200" data-name="Group 29200">
            <g id="Group_29199" data-name="Group 29199">
              <path id="Path_14512" data-name="Path 14512" d="M1240.995,1465.88s-4.083,3.468-5.245,3.185,4,7.335,4,7.335,4.919-4.842,6.027-4.988S1240.995,1465.88,1240.995,1465.88Z" transform="translate(-1235.58 -1465.88)" fill="#eea886"/>
            </g>
          </g>
        </g>
        <g id="Group_29202" data-name="Group 29202" transform="translate(69.831 26)">
          <path id="Path_14513" data-name="Path 14513" d="M1252.11,1510.258c-1.39.839-1.623,1.109-1.461,5.086s1.813,7.183,1.934,8.279,2.331,11.963,2.939,12.572,7.884-.809,9.355-1.265c2.2-.682,11.525-3.84,11.525-3.84l-2.05-4.276s-11.769,2.625-12.147,1.7-1.3-8.645-1.625-10.322.241-4.313-1.763-8.292C1257.024,1506.341,1252.11,1510.258,1252.11,1510.258Z" transform="translate(-1250.605 -1508.407)" fill="#4ba2f4"/>
        </g>
        <g id="Group_29203" data-name="Group 29203" transform="translate(33.922 48.68)">
          <path id="Path_14514" data-name="Path 14514" d="M1145.307,1598.92s2.494,2.654,3.192,3.517a139.028,139.028,0,0,1,12.093,18.64c.812,1.894-4.021,15.286-6.006,19.965-1.041,2.453-7.927,19.358-7.71,19.736s-7.284.629-10.639-1.1c0,0,4.823-14.29,5.839-17.092,1.535-4.232,6.855-15.95,7.017-17.087s-8.6-10.506-11.523-12.292-10.064-8.116-10.876-8.928-5.411-2.976-4.978-7.088a14.379,14.379,0,0,1,3.49-7.359Z" transform="translate(-1121.688 -1589.831)" fill="#2d314f"/>
        </g>
        <g id="Group_29204" data-name="Group 29204" transform="translate(1.374 47.994)">
          <path id="Path_14515" data-name="Path 14515" d="M1047.891,1607.318s-.456,1.2-1.1,2.884c-1.377,3.615-3.6,9.449-3.97,10.371-.541,1.354-3.247,7.2-4.545,8.334s-22.67,26.783-22.725,27-10.228-1.393-10.715-2.963c0,0,13.8-17.6,15.584-19.816s5.519-5.519,6.764-10.768,10.169-25.429,10.2-26.188c0,0,1.437-6.221,3.519-8.116s9.658.325,10.848,4.274S1047.891,1607.318,1047.891,1607.318Z" transform="translate(-1004.838 -1587.368)" fill="#2d314f"/>
        </g>
        <g id="Group_29205" data-name="Group 29205" transform="translate(65.445 16.624)">
          <path id="Path_14516" data-name="Path 14516" d="M1234.86,1475.427l1.725-.681a12.959,12.959,0,0,1,6.871,4.491l-.216,1.043S1236.6,1478.84,1234.86,1475.427Z" transform="translate(-1234.86 -1474.747)" fill="#d4d8e8"/>
        </g>
        <g id="Group_29206" data-name="Group 29206" transform="translate(38.555 62.828)">
          <path id="Path_14517" data-name="Path 14517" d="M1144.193,1645.738s-.456,1.2-1.1,2.884c-1.455-1.674-4.774-8-4.774-8,.216.154.911.807,1.072.951S1144.193,1645.738,1144.193,1645.738Z" transform="translate(-1138.321 -1640.621)" fill="#1b2738"/>
        </g>
        <g id="Group_29208" data-name="Group 29208" transform="translate(79.184 10.767)">
          <g id="Group_29207" data-name="Group 29207">
            <path id="Path_14518" data-name="Path 14518" d="M1286.6,1455.356c.153-.5-.217-2.391-1.427-1.312s-1.205,3.5-.522,3.693S1286.208,1456.612,1286.6,1455.356Z" transform="translate(-1284.184 -1453.717)" fill="#eea886"/>
          </g>
        </g>
        <g id="Group_29210" data-name="Group 29210" transform="translate(71.186 1.196)">
          <g id="Group_29209" data-name="Group 29209">
            <path id="Path_14519" data-name="Path 14519" d="M1261.358,1419.926s-5.856-4.164-5.888,10.033Z" transform="translate(-1255.47 -1419.357)" fill="#3a3f47"/>
          </g>
        </g>
        <g id="Group_29211" data-name="Group 29211" transform="translate(37.44 17.259)">
          <path id="Path_14520" data-name="Path 14520" d="M1168.974,1502.477a6.905,6.905,0,0,1-.813.993c-.123.107-.273.232-.445.372l0,0a68.456,68.456,0,0,1-7.073,4.821c-1.894,1.029-5.485,9.692-5.485,9.692s-16.943-1.143-20.839-9.908a77.53,77.53,0,0,1,5.275-9.82c2.516-3.652,8.035-16.8,10.957-18.667s5.438-3.084,11.2-2.922a12.083,12.083,0,0,1,8.955,4.735s4.383,4.707,4.815,7.2C1175.891,1491.11,1171.136,1499.466,1168.974,1502.477Z" transform="translate(-1134.317 -1477.025)" fill="#4ba2f4"/>
        </g>
      </g>
    </g>
  </g>
</svg>
