<svg xmlns="http://www.w3.org/2000/svg" xmlns:xlink="http://www.w3.org/1999/xlink" width="22" height="16.253" viewBox="0 0 22 16.253">
  <defs>
    <linearGradient id="linear-gradient" y1="0.027" x2="1" y2="0.91" gradientUnits="objectBoundingBox">
      <stop offset="0" stop-color="#1d0b77"/>
      <stop offset="1" stop-color="#6a5fa2"/>
    </linearGradient>
  </defs>
  <path id="Union_537" data-name="Union 537" d="M20062.74,1186.252a4.745,4.745,0,0,1-4.738-4.745v-6.763a4.908,4.908,0,0,1,2.105-3.947,4.444,4.444,0,0,1,2.633-.8h4.563a4.75,4.75,0,0,1,4.744,4.745v2.705h5.645l-2.23-2.228a.68.68,0,0,1,0-.959.671.671,0,0,1,.955,0l3.363,3.362a.741.741,0,0,1,.092.1s0,0,0,0a.143.143,0,0,0,.016.021.642.642,0,0,1,.092.206h0a.071.071,0,0,1,.006.028.007.007,0,0,1,0,.006.133.133,0,0,1,.006.027s0,0,0,.006,0,.017,0,.025,0,.006,0,.009,0,.018,0,.027v.08c0,.009,0,.018,0,.027s0,.006,0,.009,0,.017,0,.025,0,0,0,.005a.137.137,0,0,1-.006.027.007.007,0,0,1,0,.006.071.071,0,0,1-.006.028v0a.686.686,0,0,1-.092.206.125.125,0,0,0-.014.019l0,.005a.731.731,0,0,1-.092.1l-3.363,3.362a.671.671,0,0,1-.955,0,.68.68,0,0,1,0-.959l2.23-2.228h-10.555a.676.676,0,0,0,0,1.353h4.91v1.353a4.75,4.75,0,0,1-4.744,4.745Z" transform="translate(-20058.002 -1169.999)" opacity="0.8" fill="url(#linear-gradient)"/>
</svg>
