<svg xmlns="http://www.w3.org/2000/svg" width="10" height="7.354" viewBox="0 0 10 7.354">
  <path id="Subtraction_245" data-name="Subtraction 245" d="M-1297.821,14224.854a1.027,1.027,0,0,1-.729-.3l-2.648-2.646a1.011,1.011,0,0,1-.3-.725,1.042,1.042,0,0,1,.3-.73,1.022,1.022,0,0,1,.73-.3,1.022,1.022,0,0,1,.729.3l1.919,1.92,4.564-4.566a1.013,1.013,0,0,1,.727-.3,1.028,1.028,0,0,1,.729.3,1.03,1.03,0,0,1,.3.73,1.01,1.01,0,0,1-.3.725l-5.294,5.293A1.023,1.023,0,0,1-1297.821,14224.854Z" transform="translate(1301.5 -14217.5)" fill="#fa9c2b"/>
</svg>
