<svg xmlns="http://www.w3.org/2000/svg" width="608.73" height="200" viewBox="0 0 608.73 200">
  <path id="Path_1778" data-name="Path 1778" d="M90.32,94.16V-56.369h52.646V-88.115H1.96v31.746H54.341V94.16Zm149.206,0V-56.369h52.646V-88.115H151.166v31.746h52.381V94.16Zm90.212-153.7c12.7,0,23.545-10.582,23.545-23.016,0-12.7-10.847-23.28-23.545-23.28a23.308,23.308,0,0,0-23.28,23.28A23.086,23.086,0,0,0,329.738-59.544ZM347.2,94.16V-39.173H312.807V94.16Zm205.82-137.3c-21.429,0-38.1,8.73-47.619,23.016-8.466-14.55-23.81-23.016-44.974-23.016-19.841,0-35.45,7.407-44.18,21.164v-17.2H381.854V94.16h34.392V24.848c0-22.487,12.434-37.3,33.333-37.3,18.519,0,29.63,11.9,29.63,32.011v74.6h34.127V24.319c0-21.958,12.7-36.508,33.333-36.508,18.783,0,29.63,12.169,29.63,32.275V94.16H610.69V12.679C610.69-20.655,589-43.142,553.018-43.142Z" transform="translate(-1.96 105.84)" fill="#1d0b77"/>
</svg>
