<svg xmlns="http://www.w3.org/2000/svg" xmlns:xlink="http://www.w3.org/1999/xlink" width="283.179" height="100" viewBox="0 0 283.179 100">
  <defs>
    <linearGradient id="linear-gradient" x2="0.977" y2="1" gradientUnits="objectBoundingBox">
      <stop offset="0" stop-color="#fa9c2b"/>
      <stop offset="0.587" stop-color="#814d55"/>
      <stop offset="1" stop-color="#1d0b77"/>
    </linearGradient>
  </defs>
  <g id="TTim" transform="translate(-464.436 -365)">
    <path id="Union_481" data-name="Union 481" d="M0,75V25L43.3,0,59.163,9.163l-7.331,5.67-8.5-4.926L8.62,29.954v17L38.746,30.126l10.6-5.871L64.99,15.573,61.4,8.849,85.71,10.624,73.654,31.786l-3.668-6.864L49.342,36.369v45.1l-5.384,3.007-5.212-3.007V42.239L8.62,59.068V70.046L43.328,90.092,78.036,70.046V41.552L86.6,26.461V75L43.3,100ZM53.695,57.961l10.6-6.071V73.224L53.695,79.1ZM23.769,73.2V55.671l3.465-1.833,7.13-3.78V79.067ZM53.695,39.748l10.6-5.613v12.4l-10.6,6.3Z" transform="translate(464.436 365)" fill="url(#linear-gradient)"/>
    <path id="Path_1778" data-name="Path 1778" d="M27.206-48.7V-91.705H42.247v-9.07H1.96v9.07H16.926V-48.7Zm42.63,0V-91.705H84.878v-9.07H44.59v9.07H59.556V-48.7ZM95.611-92.613a6.762,6.762,0,0,0,6.727-6.576,6.776,6.776,0,0,0-6.727-6.652,6.659,6.659,0,0,0-6.652,6.652A6.6,6.6,0,0,0,95.611-92.613ZM100.6-48.7v-38.1H90.773v38.1ZM159.4-87.926c-6.122,0-10.884,2.494-13.605,6.576-2.419-4.157-6.8-6.576-12.85-6.576-5.669,0-10.128,2.116-12.623,6.047v-4.913H110.5v38.1h9.826V-68.5c0-6.425,3.553-10.658,9.524-10.658,5.291,0,8.466,3.4,8.466,9.146V-48.7h9.751V-68.652c0-6.274,3.628-10.431,9.524-10.431,5.367,0,8.466,3.477,8.466,9.221V-48.7h9.826v-23.28C175.883-81.5,169.685-87.926,159.4-87.926Z" transform="translate(571.732 488.84)" fill="#1d0b77"/>
  </g>
</svg>
