<svg xmlns="http://www.w3.org/2000/svg" xmlns:xlink="http://www.w3.org/1999/xlink" width="20" height="19.999" viewBox="0 0 20 19.999">
  <defs>
    <linearGradient id="linear-gradient" y1="0.027" x2="1" y2="0.91" gradientUnits="objectBoundingBox">
      <stop offset="0" stop-color="#1d0b77"/>
      <stop offset="1" stop-color="#6a5fa2"/>
    </linearGradient>
  </defs>
  <path id="Subtraction_261" data-name="Subtraction 261" d="M21848.967,11723h-.012a10.144,10.144,0,1,1,.012,0Zm4.369-6.174h0v2.421h1.4v-4.974h-4.975v1.276h2.807a4.166,4.166,0,0,1-3.57,2.168,3.994,3.994,0,0,1-2.9-1.243,4.268,4.268,0,0,1-1.18-2.968h-1.4A5.427,5.427,0,0,0,21849,11719a5.565,5.565,0,0,0,4.334-2.167Zm-4.719-8.038a4.057,4.057,0,0,1,4.08,4.213h1.531a5.648,5.648,0,0,0-1.609-3.969,5.377,5.377,0,0,0-3.875-1.646,5.3,5.3,0,0,0-4.08,1.785v-2.421h-1.4v4.975h4.975v-1.276h-2.934A4.222,4.222,0,0,1,21848.617,11708.789Z" transform="translate(-21839 -11703.002)" opacity="0.8" fill="url(#linear-gradient)"/>
</svg>
