<svg id="Group_30639" data-name="Group 30639" xmlns="http://www.w3.org/2000/svg" width="22" height="22" viewBox="0 0 22 22">
  <rect id="Selection_box" data-name="Selection box" width="22" height="22" rx="4" fill="#fa9c2b"/>
  <path id="Subtraction_243" data-name="Subtraction 243" d="M-1297.087,14226.325a1.231,1.231,0,0,1-.875-.364l-3.178-3.175a1.22,1.22,0,0,1-.361-.871,1.235,1.235,0,0,1,.364-.878,1.222,1.222,0,0,1,.871-.36,1.226,1.226,0,0,1,.875.36l2.3,2.3,5.477-5.478a1.23,1.23,0,0,1,.875-.36,1.225,1.225,0,0,1,.871.36,1.229,1.229,0,0,1,.362.875,1.229,1.229,0,0,1-.362.875l-6.348,6.349A1.232,1.232,0,0,1-1297.087,14226.325Z" transform="translate(1306.5 -14210.912)" fill="#010101"/>
</svg>
