<svg xmlns="http://www.w3.org/2000/svg" xmlns:xlink="http://www.w3.org/1999/xlink" width="141.872" height="34"
  viewBox="0 0 141.872 34">
  <defs>
    <linearGradient id="linear-gradient" x2="0.977" y2="1" gradientUnits="objectBoundingBox">
      <stop offset="0" stop-color="#fa9c2b" />
      <stop offset="0.587" stop-color="#814d55" />
      <stop offset="1" stop-color="#1d0b77" />
    </linearGradient>
  </defs>
  <g id="Sundial_Logo" data-name="Sundial Logo" transform="translate(-425.891 -412)">
    <path id="Path_6117" data-name="Path 6117"
      d="M10.416-70.8c3.9,0,6.951-2.041,6.951-5.452,0-2.481-1.421-3.9-4.884-5.013l-2.713-.9c-1.292-.413-2.4-.93-2.4-2.248,0-1.24,1.163-2.093,2.816-2.093a4.014,4.014,0,0,1,3.669,2.248l2.816-1.473a7.112,7.112,0,0,0-6.537-3.643c-3.385,0-6.253,1.99-6.253,5.219,0,2.868,2.067,4.186,4.754,5.064l2.61.827c1.809.594,2.558,1.137,2.558,2.145,0,1.292-1.137,2.3-3.462,2.3a4.772,4.772,0,0,1-4.625-2.791L3-75.062C4.189-72.374,7.108-70.8,10.416-70.8Zm15.374,0c3.669,0,6.331-2.093,6.331-5.865v-7.545H28.787v7.261c0,2.015-1.059,3.127-2.946,3.127-1.912,0-3-1.059-3-3.152v-7.235H19.511v7.545C19.511-72.917,22.043-70.8,25.79-70.8ZM43.025-84.6a4.84,4.84,0,0,0-4.315,2.067v-1.68H35.35v13.023h3.359v-6.77c0-2.2,1.214-3.643,3.256-3.643,1.809,0,2.894,1.163,2.894,3.127v7.287h3.333v-7.958C48.192-82.4,46.384-84.6,43.025-84.6Zm18.5,2.248A5.108,5.108,0,0,0,57.236-84.6,6.671,6.671,0,0,0,50.6-77.62,6.547,6.547,0,0,0,57.133-70.8a5.4,5.4,0,0,0,4.393-2.222v1.835h3.2V-89.376h-3.2Zm-3.8,8.527a3.755,3.755,0,0,1-3.85-3.876,3.776,3.776,0,0,1,3.876-3.876A3.853,3.853,0,0,1,61.629-77.7,3.843,3.843,0,0,1,57.727-73.821ZM69.794-86.2a2.312,2.312,0,0,0,2.3-2.248,2.316,2.316,0,0,0-2.3-2.274,2.277,2.277,0,0,0-2.274,2.274A2.255,2.255,0,0,0,69.794-86.2ZM71.5-71.186V-84.209H68.14v13.023ZM85.013-82.3A5.081,5.081,0,0,0,80.7-84.6a6.676,6.676,0,0,0-6.666,6.977A6.568,6.568,0,0,0,80.594-70.8a5.354,5.354,0,0,0,4.393-2.248v1.86h3.2v-13.72Zm-3.824,8.475a3.755,3.755,0,0,1-3.85-3.876,3.776,3.776,0,0,1,3.876-3.876A3.853,3.853,0,0,1,85.09-77.7,3.843,3.843,0,0,1,81.189-73.821Zm13.746,2.636V-89.376H91.576v18.191Z"
      transform="translate(472.828 509.759)" fill="#fff" />
    <g id="Logo_Option_1" data-name="Logo Option 1" transform="translate(425.891 412)">
      <path id="round_1" data-name="round 1"
        d="M21.648,0C33.6,0,43.3,6.244,43.3,13.945S33.6,27.891,21.648,27.891,0,21.647,0,13.945,9.692,0,21.648,0Z"
        transform="translate(0 6.109)" fill="#2b1258" />
      <path id="Union_480" data-name="Union 480"
        d="M0,18.992C0,12.6,6.681,7.208,15.793,5.563L15.406.533,16.469,0l.854.705,1.994,4.422c.766-.053,1.544-.08,2.332-.08C33.6,5.047,43.3,11.29,43.3,18.992S33.6,32.937,21.648,32.937,0,26.694,0,18.992Z"
        transform="translate(0 0)" fill="url(#linear-gradient)" />
      <path id="Subtraction_193" data-name="Subtraction 193"
        d="M16.535,11.023a24.124,24.124,0,0,1-6.436-.851,20.474,20.474,0,0,1-2.809-1A17.125,17.125,0,0,1,4.843,7.853a13.635,13.635,0,0,1-2.019-1.6A10.55,10.55,0,0,1,1.3,4.412,8.341,8.341,0,0,1,.336,2.381,7.305,7.305,0,0,1,0,.2C0,.133,0,.066,0,0c.078,2.849,1.833,5.52,4.94,7.52a21.642,21.642,0,0,0,11.592,3.105A21.643,21.643,0,0,0,28.127,7.52c3.107-2,4.862-4.671,4.94-7.52,0,.07,0,.137,0,.2a7.305,7.305,0,0,1-.336,2.181,8.34,8.34,0,0,1-.963,2.032,10.549,10.549,0,0,1-1.525,1.839,13.635,13.635,0,0,1-2.019,1.6A17.126,17.126,0,0,1,25.78,9.175a20.473,20.473,0,0,1-2.809,1A24.124,24.124,0,0,1,16.535,11.023Z"
        transform="translate(5.445 19.125)" fill="#2b1258" />
      <path id="Line" d="M0-1l.854.705,9.505,21.076L0,13.344Z" transform="translate(15.406 1.531)" fill="#08041e" />
      <path id="Path_13560" data-name="Path 13560" d="M-58.62,3.126-43.53,0l10.358,7.432Z"
        transform="translate(58.936 14.875)" opacity="0.5" />
    </g>
  </g>
</svg>