<svg xmlns="http://www.w3.org/2000/svg" width="18" height="18" viewBox="0 0 18 18">
  <path id="Subtraction_308" data-name="Subtraction 308" d="M-5260,26554a9.013,9.013,0,0,1-9-9,8.936,8.936,0,0,1,2.637-6.363A8.945,8.945,0,0,1-5260,26536a8.935,8.935,0,0,1,6.36,2.633A8.934,8.934,0,0,1-5251,26545,9.01,9.01,0,0,1-5260,26554Zm0-7.2a1.2,1.2,0,0,0-1.2,1.2,1.2,1.2,0,0,0,1.2,1.2,1.2,1.2,0,0,0,1.2-1.2A1.2,1.2,0,0,0-5260,26546.8Zm0-6a1.058,1.058,0,0,0-.8.359,1.046,1.046,0,0,0-.252.84l.378,3a.679.679,0,0,0,.672.6.678.678,0,0,0,.671-.6l.378-3a1.042,1.042,0,0,0-.251-.84A1.057,1.057,0,0,0-5260,26540.8Z" transform="translate(5269.002 -26536.004)" fill="#f8f8f8" opacity="0.8"/>
</svg>
