<svg xmlns="http://www.w3.org/2000/svg" width="21.998" height="17.121" viewBox="0 0 21.998 17.121">
  <g id="View_Icon" data-name="View Icon" transform="translate(-1220.006 -1989.539)" opacity="0.5">
    <path id="Subtraction_139" data-name="Subtraction 139" d="M21383.227,19814.662v0l-1.561-1.559,2.063-2.062a16.834,16.834,0,0,1-3.559-4.045.592.592,0,0,0-.035-.053.842.842,0,0,1,0-.914l.023-.035.023-.035a16.927,16.927,0,0,1,3.135-3.672,11.494,11.494,0,0,1,7.68-3.1,10.634,10.634,0,0,1,3.855.73l2.375-2.375,1.557,1.563-1.863,1.865-1.334,1.338-1.775,1.771-1.314,1.318-1.322,1.32-5.6,5.6-.309.309-2.041,2.039Zm7.77-13.65c-4.916,0-8.088,4.189-8.943,5.473a14.423,14.423,0,0,0,2.986,3.244l2.342-2.342a3.706,3.706,0,0,1,3.615-4.592,3.591,3.591,0,0,1,.869.107l1.541-1.543A8.614,8.614,0,0,0,21391,19801.012Zm0,12.777a10.56,10.56,0,0,1-3.258-.516l1.5-1.494a8.512,8.512,0,0,0,1.762.184c4.916,0,8.09-4.193,8.947-5.479a14.77,14.77,0,0,0-2.547-2.871l1.3-1.307a17.2,17.2,0,0,1,3.1,3.627l.012.018c.025.039.041.064.051.076a.835.835,0,0,1,0,.914.265.265,0,0,1-.023.035l-.014.021C21400.83,19808.592,21397.107,19813.789,21391,19813.789Zm0-3.609-.082,0h-.078l3.881-3.885c0,.064.006.131.006.2A3.713,3.713,0,0,1,21391,19810.18Z" transform="translate(-20159.994 -17808.002)" fill="#474b4f"/>
  </g>
</svg>
