<svg xmlns="http://www.w3.org/2000/svg" width="20.002" height="20.002" viewBox="0 0 20.002 20.002">
  <g id="Info_Icon" data-name="Info Icon" transform="translate(-273.998 -2346)">
    <path id="Subtraction_307" data-name="Subtraction 307" d="M-312,15609a10.012,10.012,0,0,1-10-10,10.012,10.012,0,0,1,10-10,10.012,10.012,0,0,1,10,10A10.012,10.012,0,0,1-312,15609Zm0-12.375a.839.839,0,0,0-.838.838v6.694a.841.841,0,0,0,.838.843.838.838,0,0,0,.83-.843v-6.694A.835.835,0,0,0-312,15596.627Zm0-3.628a1.118,1.118,0,0,0-1.116,1.116,1.118,1.118,0,0,0,1.116,1.117,1.118,1.118,0,0,0,1.116-1.117A1.118,1.118,0,0,0-312,15593Z" transform="translate(596 -13243)" fill="#f8f8f8" opacity="0.8"/>
  </g>
</svg>
