<svg id="Group_30638" data-name="Group 30638" xmlns="http://www.w3.org/2000/svg" width="22" height="22" viewBox="0 0 22 22">
  <rect id="Selection_box" data-name="Selection box" width="22" height="22" rx="4" fill="#fa9c2b"/>
  <path id="Subtraction_243" data-name="Subtraction 243" d="M-1297.085,14226.325a1.231,1.231,0,0,1-.875-.365l-3.178-3.174a1.223,1.223,0,0,1-.361-.873,1.244,1.244,0,0,1,.361-.875,1.231,1.231,0,0,1,.875-.36,1.232,1.232,0,0,1,.875.36l2.3,2.3,5.477-5.477a1.215,1.215,0,0,1,.872-.365,1.231,1.231,0,0,1,.875.365,1.228,1.228,0,0,1,.361.874,1.227,1.227,0,0,1-.361.873l-6.352,6.349A1.227,1.227,0,0,1-1297.085,14226.325Z" transform="translate(1306.5 -14210.912)" fill="#fff"/>
</svg>
