<svg xmlns="http://www.w3.org/2000/svg" width="15.074" height="15.074" viewBox="0 0 15.074 15.074">
  <path id="close_20_" data-name="close (20)" d="M12.225,11l5.513-5.513a.866.866,0,0,0-1.225-1.225L11,9.775,5.487,4.262A.866.866,0,0,0,4.262,5.487L9.775,11,4.262,16.513A.794.794,0,0,0,4,17.125.827.827,0,0,0,4.875,18a.794.794,0,0,0,.612-.263L11,12.225l5.513,5.512a.846.846,0,0,0,1.225,0,.846.846,0,0,0,0-1.225Z" transform="translate(-3.426 -3.426)" fill="#474b4f" stroke="rgba(0,0,0,0)" stroke-width="1" opacity="0.8"/>
</svg>
