<svg xmlns="http://www.w3.org/2000/svg" xmlns:xlink="http://www.w3.org/1999/xlink" width="308.07" height="223.262" viewBox="0 0 308.07 223.262">
  <defs>
    <clipPath id="clip-path">
      <rect id="Rectangle_8626" data-name="Rectangle 8626" width="59.773" height="38.066"/>
    </clipPath>
  </defs>
  <g id="Group_30594" data-name="Group 30594" transform="translate(-884.356 -288.573)">
    <g id="Group_30590" data-name="Group 30590" transform="translate(884.356 288.573)">
      <g id="Group_30534" data-name="Group 30534" transform="translate(38.638 52.111)">
        <g id="Group_30532" data-name="Group 30532">
          <g id="Group_30531" data-name="Group 30531">
            <path id="Path_15388" data-name="Path 15388" d="M1205.334,567.579a10,10,0,0,1-9.973,9.975H995.675a10,10,0,0,1-9.973-9.975V448.831a10,10,0,0,1,9.973-9.974H1195.36a10,10,0,0,1,9.973,9.974Z" transform="translate(-985.702 -438.857)" fill="#242424"/>
            <path id="Path_15389" data-name="Path 15389" d="M985.706,711.979v24.6a10,10,0,0,0,9.973,9.975h199.685a10,10,0,0,0,9.973-9.975v-24.6Z" transform="translate(-985.704 -607.852)" fill="#a2a4a6"/>
          </g>
          <path id="Path_15390" data-name="Path 15390" d="M1208.917,544.219a3.215,3.215,0,0,1-3.206,3.205H1003.965a3.215,3.215,0,0,1-3.206-3.205V457.3a3.215,3.215,0,0,1,3.206-3.206h201.745a3.215,3.215,0,0,1,3.206,3.206Z" transform="translate(-995.019 -448.284)" fill="#f3f2f8"/>
        </g>
        <rect id="Rectangle_8609" data-name="Rectangle 8609" width="107.936" height="5.7" transform="translate(55.848 159.698)" fill="#707070"/>
        <g id="Group_30533" data-name="Group 30533" transform="translate(69.92 138.697)">
          <rect id="Rectangle_8610" data-name="Rectangle 8610" width="79.795" height="21.001" fill="#a2a4a6"/>
          <path id="Path_15391" data-name="Path 15391" d="M1169.1,802.656H1248.9v12.1l-79.795-8.193Z" transform="translate(-1169.1 -802.656)" fill="#707070"/>
        </g>
      </g>
      <g id="Group_30540" data-name="Group 30540" transform="translate(98.72 60.357)">
        <g id="Group_30535" data-name="Group 30535">
          <path id="Path_15392" data-name="Path 15392" d="M1239.212,477.956c-23-.377-41.3-13.595-46.182-17.469-4.877,3.875-23.177,17.092-46.182,17.469,0,0-22.595,76.718,46.182,101.977C1261.812,554.673,1239.212,477.956,1239.212,477.956Z" transform="translate(-1143.296 -460.486)" fill="#d1cee4"/>
          <path id="Path_15393" data-name="Path 15393" d="M1307.843,506.008c-1.283-.021-2.549-.088-3.8-.185,3.773,21.676,7.283,77.323-49.827,99.067q3.533,1.652,7.447,3.095C1330.443,582.726,1307.843,506.008,1307.843,506.008Z" transform="translate(-1211.927 -488.539)" fill="#e4e1f6"/>
        </g>
        <g id="Group_30539" data-name="Group 30539" transform="translate(26.569 26.881)">
          <g id="Group_30537" data-name="Group 30537">
            <g id="Group_30536" data-name="Group 30536" transform="translate(7.207)">
              <path id="Path_15394" data-name="Path 15394" d="M1250.075,562.4h-4.451a13.752,13.752,0,0,1-13.735-13.734v-3.936a13.75,13.75,0,0,1,13.735-13.734h4.451a13.751,13.751,0,0,1,13.737,13.734v3.936A13.753,13.753,0,0,1,1250.075,562.4Zm-4.449-27.287a9.63,9.63,0,0,0-9.618,9.617v3.936a9.63,9.63,0,0,0,9.618,9.617h4.451a9.627,9.627,0,0,0,9.615-9.617v-3.936a9.627,9.627,0,0,0-9.615-9.617Z" transform="translate(-1231.889 -530.994)" fill="#6a5fa2"/>
            </g>
            <path id="Path_15395" data-name="Path 15395" d="M1259.32,611.116a13.511,13.511,0,0,1-13.472,13.472h-19.393a13.51,13.51,0,0,1-13.47-13.472V591.724a13.513,13.513,0,0,1,13.47-13.473h19.393a13.514,13.514,0,0,1,13.472,13.473Z" transform="translate(-1212.985 -560.234)" fill="#6a5fa2"/>
          </g>
          <g id="Group_30538" data-name="Group 30538" transform="translate(16.214 27.305)">
            <path id="Path_15396" data-name="Path 15396" d="M1269.417,609.567a6.951,6.951,0,1,0-9.966,6.237L1256,628.829a.947.947,0,0,0,.965,1.182h11.012a.95.95,0,0,0,.967-1.182l-3.456-13.026A6.93,6.93,0,0,0,1269.417,609.567Z" transform="translate(-1255.514 -602.614)" fill="#f0f9ff"/>
          </g>
        </g>
      </g>
      <g id="Group_30553" data-name="Group 30553" transform="translate(220.866 123.752)">
        <g id="Group_30543" data-name="Group 30543">
          <g id="Group_30541" data-name="Group 30541">
            <rect id="Rectangle_8611" data-name="Rectangle 8611" width="87.204" height="49.765" fill="#d1cee4" opacity="0.9"/>
            <rect id="Rectangle_8612" data-name="Rectangle 8612" width="87.204" height="7.242" fill="#a49dc8"/>
          </g>
          <g id="Group_30542" data-name="Group 30542" transform="translate(2.607 2.489)">
            <path id="Path_15397" data-name="Path 15397" d="M1472.608,634.344a1.045,1.045,0,1,1-1.046-1.045A1.046,1.046,0,0,1,1472.608,634.344Z" transform="translate(-1470.518 -633.299)" fill="#d9f1ff"/>
            <path id="Path_15398" data-name="Path 15398" d="M1482.921,634.344a1.044,1.044,0,1,1-1.044-1.045A1.045,1.045,0,0,1,1482.921,634.344Z" transform="translate(-1476.9 -633.299)" fill="#d9f1ff"/>
            <path id="Path_15399" data-name="Path 15399" d="M1493.239,634.344a1.045,1.045,0,1,1-1.045-1.045A1.046,1.046,0,0,1,1493.239,634.344Z" transform="translate(-1483.284 -633.299)" fill="#d9f1ff"/>
          </g>
        </g>
        <g id="Group_30552" data-name="Group 30552" transform="translate(8.756 14.903)">
          <g id="Group_30546" data-name="Group 30546" transform="translate(0 0.757)">
            <g id="Group_30545" data-name="Group 30545">
              <path id="Path_15400" data-name="Path 15400" d="M1510.651,679.848a12,12,0,1,1-12-12A12,12,0,0,1,1510.651,679.848Z" transform="translate(-1486.646 -667.846)" fill="#fda353"/>
              <g id="Group_30544" data-name="Group 30544" transform="translate(9.037 6.154)">
                <path id="Path_15401" data-name="Path 15401" d="M1516.282,686.956a2.966,2.966,0,1,0-4.251,2.664l-1.48,5.561a.409.409,0,0,0,.416.5h4.7a.406.406,0,0,0,.416-.5l-1.474-5.561A2.957,2.957,0,0,0,1516.282,686.956Z" transform="translate(-1510.35 -683.989)" fill="#d4d1e5"/>
              </g>
            </g>
          </g>
          <g id="Group_30551" data-name="Group 30551" transform="translate(30.772)">
            <g id="Group_30547" data-name="Group 30547" transform="translate(0)">
              <rect id="Rectangle_8613" data-name="Rectangle 8613" width="21.383" height="1.483" fill="#6a5fa2"/>
              <rect id="Rectangle_8614" data-name="Rectangle 8614" width="38.59" height="1.482" transform="translate(0 3.934)" fill="#6a5fa2"/>
            </g>
            <g id="Group_30549" data-name="Group 30549" transform="translate(0 9.294)">
              <path id="Path_15402" data-name="Path 15402" d="M1605.949,694.38c0,2.276-2.509,4.138-5.574,4.138h-27.441c-3.068,0-5.576-1.863-5.576-4.138s2.508-4.14,5.576-4.14h27.441C1603.441,690.24,1605.949,692.1,1605.949,694.38Z" transform="translate(-1567.359 -690.24)" fill="#c6c2dd"/>
              <g id="Group_30548" data-name="Group 30548" transform="translate(8.787 3.465)">
                <path id="Path_15403" data-name="Path 15403" d="M1591.757,700a.675.675,0,1,1-.675-.675A.674.674,0,0,1,1591.757,700Z" transform="translate(-1590.406 -699.329)" fill="#1d0b77"/>
                <path id="Path_15404" data-name="Path 15404" d="M1602.077,700a.675.675,0,1,1-.676-.675A.672.672,0,0,1,1602.077,700Z" transform="translate(-1596.792 -699.329)" fill="#1d0b77"/>
                <path id="Path_15405" data-name="Path 15405" d="M1612.385,700a.676.676,0,1,1-.677-.675A.673.673,0,0,1,1612.385,700Z" transform="translate(-1603.168 -699.329)" fill="#1d0b77"/>
                <path id="Path_15406" data-name="Path 15406" d="M1622.708,700a.675.675,0,1,1-.675-.675A.672.672,0,0,1,1622.708,700Z" transform="translate(-1609.557 -699.329)" fill="#1d0b77"/>
                <path id="Path_15407" data-name="Path 15407" d="M1633.018,700a.675.675,0,1,1-.675-.675A.673.673,0,0,1,1633.018,700Z" transform="translate(-1615.937 -699.329)" fill="#1d0b77"/>
                <path id="Path_15408" data-name="Path 15408" d="M1643.335,700a.676.676,0,1,1-.677-.675A.674.674,0,0,1,1643.335,700Z" transform="translate(-1622.319 -699.329)" fill="#1d0b77"/>
              </g>
            </g>
            <g id="Group_30550" data-name="Group 30550" transform="translate(0 21.876)">
              <rect id="Rectangle_8615" data-name="Rectangle 8615" width="18.117" height="5.429" fill="#6a5fa2"/>
              <rect id="Rectangle_8616" data-name="Rectangle 8616" width="13.387" height="1.482" transform="translate(2.364 1.974)" fill="#d1cee4" opacity="0.9"/>
            </g>
          </g>
        </g>
      </g>
      <g id="Group_30564" data-name="Group 30564" transform="translate(224.998 18.978)">
        <g id="Group_30563" data-name="Group 30563">
          <g id="Group_30562" data-name="Group 30562">
            <g id="Group_30556" data-name="Group 30556" transform="translate(10.591)">
              <g id="Group_30554" data-name="Group 30554">
                <path id="Path_15409" data-name="Path 15409" d="M1556.658,413.516H1502.3V351.952h42.12l12.238,13.224Z" transform="translate(-1502.3 -351.952)" fill="#fff"/>
                <path id="Path_15410" data-name="Path 15410" d="M1612.78,351.952l12.238,13.224H1612.78Z" transform="translate(-1570.66 -351.952)" fill="#a49dc8"/>
              </g>
              <g id="Group_30555" data-name="Group 30555" transform="translate(5.906 9.053)">
                <rect id="Rectangle_8617" data-name="Rectangle 8617" width="30.518" height="1.729" fill="#d1cee4"/>
                <rect id="Rectangle_8618" data-name="Rectangle 8618" width="30.518" height="1.73" transform="translate(0 6.103)" fill="#d1cee4"/>
                <rect id="Rectangle_8619" data-name="Rectangle 8619" width="43.538" height="1.73" transform="translate(0 12.207)" fill="#d1cee4"/>
                <rect id="Rectangle_8620" data-name="Rectangle 8620" width="43.538" height="1.73" transform="translate(0 18.31)" fill="#d1cee4"/>
                <rect id="Rectangle_8621" data-name="Rectangle 8621" width="43.538" height="1.73" transform="translate(0 24.413)" fill="#d1cee4"/>
                <rect id="Rectangle_8622" data-name="Rectangle 8622" width="43.538" height="1.729" transform="translate(0 30.517)" fill="#d1cee4"/>
                <rect id="Rectangle_8623" data-name="Rectangle 8623" width="43.538" height="1.729" transform="translate(0 36.62)" fill="#d1cee4"/>
                <rect id="Rectangle_8624" data-name="Rectangle 8624" width="43.538" height="1.729" transform="translate(0 42.724)" fill="#d1cee4"/>
              </g>
            </g>
            <g id="Group_30561" data-name="Group 30561" transform="translate(0 17.899)">
              <g id="Group_30560" data-name="Group 30560">
                <g id="Group_30559" data-name="Group 30559">
                  <g id="Group_30557" data-name="Group 30557" transform="translate(3.904)">
                    <path id="Path_15411" data-name="Path 15411" d="M1524.878,407.231a4.194,4.194,0,0,1-4.2-4.164,4.2,4.2,0,0,0-4.2-4.167h-27.959a3.676,3.676,0,0,0-3.73,4.175l5.052,44.634a4.831,4.831,0,0,0,4.675,4.176h49.579a4.953,4.953,0,0,0,4.76-4.165l4.883-36.325a3.588,3.588,0,0,0-3.645-4.163h-25.211Z" transform="translate(-1484.758 -398.9)" fill="#a49dc8"/>
                  </g>
                  <g id="Group_30558" data-name="Group 30558">
                    <path id="Path_15412" data-name="Path 15412" d="M1514.638,407.231a4.2,4.2,0,0,1-4.2-4.164,4.2,4.2,0,0,0-4.2-4.167h-27.959a3.677,3.677,0,0,0-3.729,4.175l5.052,44.634a4.831,4.831,0,0,0,4.676,4.176h49.579a4.952,4.952,0,0,0,4.758-4.165L1543.5,411.4a3.589,3.589,0,0,0-3.646-4.163h-25.211Z" transform="translate(-1474.52 -398.9)" fill="#d1cee4"/>
                  </g>
                </g>
              </g>
            </g>
          </g>
        </g>
        <path id="Path_15413" data-name="Path 15413" d="M1558.953,437.416c-6.629-.109-11.9-3.918-13.311-5.035-1.406,1.117-6.681,4.925-13.31,5.035,0,0-6.513,22.112,13.31,29.393C1565.468,459.528,1558.953,437.416,1558.953,437.416Zm-9.234,20.064a.6.6,0,0,1-.61.745h-6.937a.6.6,0,0,1-.607-.745l2.177-8.2a4.38,4.38,0,1,1,3.8,0Z" transform="translate(-1509.657 -401.718)" fill="#f0f9ff"/>
      </g>
      <g id="Group_30576" data-name="Group 30576" transform="translate(9.023 114.754)">
        <g id="Group_30570" data-name="Group 30570" transform="translate(0 19.921)">
          <g id="Group_30569" data-name="Group 30569">
            <rect id="Rectangle_8625" data-name="Rectangle 8625" width="59.773" height="38.066" fill="#c9c3eb"/>
            <path id="Path_15414" data-name="Path 15414" d="M908.022,655.42l29.888,25.55L967.8,655.42Z" transform="translate(-908.022 -655.42)" fill="#a49dc8"/>
            <g id="Group_30568" data-name="Group 30568">
              <g id="Group_30567" data-name="Group 30567" clip-path="url(#clip-path)">
                <g id="Group_30565" data-name="Group 30565" transform="translate(-1.249 11.578)">
                  <path id="Path_15415" data-name="Path 15415" d="M906.861,713.143q13.785-12.652,27.574-25.294c1.165-1.068-.571-2.79-1.729-1.726q-13.787,12.642-27.575,25.288c-1.165,1.069.573,2.793,1.73,1.732Z" transform="translate(-904.745 -685.788)" fill="#a49dc8"/>
                </g>
                <g id="Group_30566" data-name="Group 30566" transform="translate(31.148 11.578)">
                  <path id="Path_15416" data-name="Path 15416" d="M1017.682,713.143q-13.784-12.652-27.574-25.294c-1.164-1.068.569-2.79,1.727-1.726q13.79,12.642,27.576,25.288c1.165,1.069-.566,2.793-1.729,1.732Z" transform="translate(-989.722 -685.788)" fill="#a49dc8"/>
                </g>
              </g>
            </g>
          </g>
        </g>
        <g id="Group_30575" data-name="Group 30575" transform="translate(35.297)">
          <g id="Group_30574" data-name="Group 30574">
            <g id="Group_30573" data-name="Group 30573">
              <g id="Group_30571" data-name="Group 30571">
                <path id="Path_15417" data-name="Path 15417" d="M1006.615,609.178a20.523,20.523,0,1,0,29.024,0A20.525,20.525,0,0,0,1006.615,609.178Zm25.73,25.732a15.869,15.869,0,1,1,0-22.441A15.871,15.871,0,0,1,1032.346,634.91Z" transform="translate(-1000.605 -603.168)" fill="#d1cee4"/>
                <path id="Path_15418" data-name="Path 15418" d="M1039.893,642.462a15.869,15.869,0,1,1,0-22.441A15.871,15.871,0,0,1,1039.893,642.462Z" transform="translate(-1008.152 -610.72)" fill="#fda353"/>
              </g>
              <g id="Group_30572" data-name="Group 30572" transform="translate(29.949 29.937)">
                <rect id="Rectangle_8627" data-name="Rectangle 8627" width="5.055" height="23.494" transform="matrix(0.707, -0.707, 0.707, 0.707, 0, 3.573)" fill="#d1cee4"/>
                <path id="Path_15419" data-name="Path 15419" d="M1120.522,719.515l-3.576,3.573-3.576-3.573,3.576-3.577Z" transform="translate(-1100.328 -702.882)" fill="#5c9fdc"/>
              </g>
            </g>
          </g>
          <path id="Path_15420" data-name="Path 15420" d="M1048.128,643.492l-4,.417a7.851,7.851,0,0,0-.725-2.991l3.582-2.247c.575-.361.046-1.274-.532-.911L1042.88,640a5.436,5.436,0,0,0-1.1-1.193,2.957,2.957,0,1,0-4.908,0,5.431,5.431,0,0,0-1.1,1.193l-3.575-2.242c-.578-.363-1.107.55-.532.911l3.582,2.247a7.838,7.838,0,0,0-.725,2.992l-4-.417c-.676-.071-.67.985,0,1.056l4.013.419a7.834,7.834,0,0,0,.656,2.613l-2.86,2.669c-.5.466.249,1.211.746.747l2.64-2.464a4.094,4.094,0,0,0,7.218,0l2.64,2.464c.5.464,1.245-.281.746-.747q-1.431-1.334-2.86-2.669a7.836,7.836,0,0,0,.655-2.613l4.013-.419C1048.8,644.477,1048.806,643.421,1048.128,643.492Z" transform="translate(-1018.804 -622.369)" fill="#f3f2f8"/>
        </g>
      </g>
      <g id="Group_30586" data-name="Group 30586" transform="translate(0 22.617)">
        <g id="Group_30579" data-name="Group 30579" transform="translate(14.874)">
          <g id="Group_30577" data-name="Group 30577">
            <path id="Path_15421" data-name="Path 15421" d="M980.923,426.68H923.37V361.5h44.594l12.959,14Z" transform="translate(-923.37 -361.497)" fill="#fff"/>
            <path id="Path_15422" data-name="Path 15422" d="M1040.34,361.5l12.959,14H1040.34Z" transform="translate(-995.745 -361.497)" fill="#a49dc8"/>
          </g>
          <g id="Group_30578" data-name="Group 30578" transform="translate(6.255 9.586)">
            <rect id="Rectangle_8628" data-name="Rectangle 8628" width="32.31" height="1.831" fill="#d1cee4"/>
            <rect id="Rectangle_8629" data-name="Rectangle 8629" width="32.31" height="1.831" transform="translate(0 6.462)" fill="#d1cee4"/>
            <rect id="Rectangle_8630" data-name="Rectangle 8630" width="46.097" height="1.83" transform="translate(0 12.924)" fill="#d1cee4"/>
            <rect id="Rectangle_8631" data-name="Rectangle 8631" width="46.097" height="1.832" transform="translate(0 19.386)" fill="#d1cee4"/>
            <rect id="Rectangle_8632" data-name="Rectangle 8632" width="46.097" height="1.831" transform="translate(0 25.848)" fill="#d1cee4"/>
            <rect id="Rectangle_8633" data-name="Rectangle 8633" width="46.097" height="1.831" transform="translate(0 32.311)" fill="#d1cee4"/>
            <rect id="Rectangle_8634" data-name="Rectangle 8634" width="46.097" height="1.832" transform="translate(0 38.772)" fill="#d1cee4"/>
            <rect id="Rectangle_8635" data-name="Rectangle 8635" width="46.097" height="1.832" transform="translate(0 45.234)" fill="#d1cee4"/>
          </g>
        </g>
        <g id="Group_30585" data-name="Group 30585" transform="translate(0 37.856)">
          <g id="Group_30584" data-name="Group 30584">
            <path id="Path_15423" data-name="Path 15423" d="M918.4,477.813a17.02,17.02,0,1,1-17.019-17.02A17.02,17.02,0,0,1,918.4,477.813Z" transform="translate(-884.356 -460.793)" fill="#fda353"/>
            <g id="Group_30583" data-name="Group 30583" transform="translate(9.471 6.534)">
              <g id="Group_30581" data-name="Group 30581">
                <g id="Group_30580" data-name="Group 30580" transform="translate(2.348)">
                  <path id="Path_15424" data-name="Path 15424" d="M921.282,488.165h-1.451a4.481,4.481,0,0,1-4.476-4.475v-1.283a4.481,4.481,0,0,1,4.476-4.475h1.451a4.481,4.481,0,0,1,4.477,4.475v1.283A4.481,4.481,0,0,1,921.282,488.165Zm-1.45-8.891a3.138,3.138,0,0,0-3.134,3.133v1.283a3.138,3.138,0,0,0,3.134,3.133h1.451a3.137,3.137,0,0,0,3.133-3.133v-1.283a3.137,3.137,0,0,0-3.133-3.133Z" transform="translate(-915.356 -477.932)" fill="#f8f8f8"/>
                </g>
                <path id="Path_15425" data-name="Path 15425" d="M924.3,504.042a4.4,4.4,0,0,1-4.39,4.39h-6.32a4.4,4.4,0,0,1-4.389-4.39v-6.32a4.4,4.4,0,0,1,4.389-4.39h6.32a4.4,4.4,0,0,1,4.39,4.39Z" transform="translate(-909.197 -487.461)" fill="#f8f8f8"/>
              </g>
              <g id="Group_30582" data-name="Group 30582" transform="translate(5.283 8.898)">
                <path id="Path_15426" data-name="Path 15426" d="M927.585,503.537a2.265,2.265,0,1,0-3.247,2.033l-1.126,4.244a.308.308,0,0,0,.314.385h3.588a.309.309,0,0,0,.316-.385l-1.126-4.245A2.257,2.257,0,0,0,927.585,503.537Z" transform="translate(-923.054 -501.272)" fill="#fda353"/>
              </g>
            </g>
          </g>
        </g>
      </g>
      <g id="Group_30589" data-name="Group 30589" transform="translate(123.132)">
        <g id="Group_30587" data-name="Group 30587">
          <path id="Path_15427" data-name="Path 15427" d="M1208.563,332.334c-2.614,3.847-.947,6.995,3.7,6.995h39.161c4.652,0,6.318-3.148,3.7-6.995L1236.6,305.058c-2.614-3.848-6.891-3.848-9.505,0Z" transform="translate(-1207.327 -302.172)" fill="#fba153"/>
          <path id="Path_15428" data-name="Path 15428" d="M1292.873,332.335l-18.531-27.276c-1.63-2.4-3.906-3.3-6.02-2.71a6.4,6.4,0,0,1,3.483,2.71l18.532,27.276c2.613,3.847.947,6.995-3.7,6.995h2.537C1293.823,339.329,1295.489,336.182,1292.873,332.335Z" transform="translate(-1245.068 -302.173)" fill="#f5882f"/>
        </g>
        <g id="Group_30588" data-name="Group 30588" transform="translate(22.813 9.236)">
          <path id="Path_15429" data-name="Path 15429" d="M1268.874,326.4a1.71,1.71,0,0,0-1.71,1.711v15.079a1.711,1.711,0,1,0,3.422,0V328.109A1.714,1.714,0,0,0,1268.874,326.4Z" transform="translate(-1267.164 -326.398)" fill="#f8f8f8"/>
          <path id="Path_15430" data-name="Path 15430" d="M1268.874,379a1.711,1.711,0,1,0,1.712,1.71A1.71,1.71,0,0,0,1268.874,379Z" transform="translate(-1267.164 -358.946)" fill="#f8f8f8"/>
        </g>
      </g>
    </g>
    <path id="Path_15439" data-name="Path 15439" d="M1193.929,874.432a3.144,3.144,0,0,1-3.145,3.144H893.833a3.144,3.144,0,0,1-3.144-3.144h0a3.144,3.144,0,0,1,3.144-3.144h296.951a3.147,3.147,0,0,1,3.146,3.144Z" transform="translate(-3.918 -365.741)" fill="#a2a4a6"/>
  </g>
</svg>
