<svg xmlns="http://www.w3.org/2000/svg" xmlns:xlink="http://www.w3.org/1999/xlink" width="333.973" height="80.037"
  viewBox="0 0 333.973 80.037">
  <defs>
    <linearGradient id="linear-gradient" x2="0.977" y2="1" gradientUnits="objectBoundingBox">
      <stop offset="0" stop-color="#fa9c2b" />
      <stop offset="0.587" stop-color="#814d55" />
      <stop offset="1" stop-color="#1d0b77" />
    </linearGradient>
  </defs>
  <g id="Sundial_Logo" data-name="Sundial Logo" transform="translate(-425.891 -412)">
    <path id="Path_6117" data-name="Path 6117"
      d="M20.457-43.823c9.185,0,16.362-4.805,16.362-12.834,0-5.839-3.345-9.185-11.5-11.8l-6.387-2.129c-3.041-.973-5.657-2.19-5.657-5.292,0-2.92,2.737-4.927,6.63-4.927a9.448,9.448,0,0,1,8.637,5.292l6.63-3.467c-2.859-5.292-8.333-8.576-15.389-8.576-7.968,0-14.72,4.684-14.72,12.287,0,6.752,4.866,9.854,11.192,11.922L22.4-61.4c4.258,1.4,6.022,2.676,6.022,5.049,0,3.041-2.676,5.414-8.151,5.414-5.109,0-9.185-2.494-10.888-6.569L3-53.86C5.8-47.534,12.671-43.823,20.457-43.823Zm36.191,0c8.637,0,14.9-4.927,14.9-13.807V-75.392H63.7V-58.3c0,4.744-2.494,7.36-6.934,7.36-4.5,0-7.056-2.494-7.056-7.421V-75.392H41.868v17.761C41.868-48.811,47.829-43.823,56.648-43.823ZM97.219-76.3c-4.562,0-8.151,1.7-10.158,4.866v-3.954H79.154v30.656h7.907V-60.672c0-5.17,2.859-8.576,7.664-8.576,4.258,0,6.813,2.737,6.813,7.36v17.153h7.847V-63.47C109.384-71.134,105.127-76.3,97.219-76.3Zm43.551,5.292a12.025,12.025,0,0,0-10.1-5.292c-9.063,0-15.632,7.238-15.632,16.423,0,8.881,6.387,16.058,15.389,16.058a12.7,12.7,0,0,0,10.34-5.231v4.319h7.542V-87.557h-7.542ZM131.829-50.94a8.839,8.839,0,0,1-9.063-9.124,8.888,8.888,0,0,1,9.124-9.124,9.069,9.069,0,0,1,9.124,9.124A9.047,9.047,0,0,1,131.829-50.94Zm28.406-29.136a5.442,5.442,0,0,0,5.413-5.292,5.453,5.453,0,0,0-5.413-5.353,5.359,5.359,0,0,0-5.353,5.353A5.308,5.308,0,0,0,160.235-80.075Zm4.014,35.34V-75.392h-7.907v30.656Zm31.812-26.155A11.961,11.961,0,0,0,185.9-76.3c-9.124,0-15.693,7.238-15.693,16.423,0,8.881,6.448,16.058,15.45,16.058A12.6,12.6,0,0,0,196-49.115v4.379h7.542v-32.3Zm-9,19.951A8.839,8.839,0,0,1,178-60.064a8.888,8.888,0,0,1,9.124-9.124,9.069,9.069,0,0,1,9.124,9.124A9.047,9.047,0,0,1,187.059-50.94Zm32.359,6.2V-87.557h-7.907v42.821Z"
      transform="translate(540.445 519.29)" fill="#1d0b77" />
    <g id="Logo_Option_1" data-name="Logo Option 1" transform="translate(425.891 412)">
      <path id="round_1" data-name="round 1"
        d="M50.961,0c28.145,0,50.961,14.7,50.961,32.828S79.106,65.655,50.961,65.655,0,50.958,0,32.828,22.816,0,50.961,0Z"
        transform="translate(0 14.382)" fill="#2b1258" />
      <path id="Union_480" data-name="Union 480"
        d="M0,44.708C0,29.654,15.728,16.967,37.178,13.1l-.911-11.84L38.768,0l2.01,1.66,4.694,10.408c1.8-.124,3.635-.188,5.489-.188,28.145,0,50.961,14.7,50.961,32.828S79.106,77.536,50.961,77.536,0,62.838,0,44.708Z"
        transform="translate(0 0)" fill="url(#linear-gradient)" />
      <path id="Subtraction_193" data-name="Subtraction 193"
        d="M38.924,25.949a56.788,56.788,0,0,1-15.151-2A48.2,48.2,0,0,1,17.161,21.6,40.314,40.314,0,0,1,11.4,18.486a32.1,32.1,0,0,1-4.753-3.771,24.835,24.835,0,0,1-3.589-4.328A19.634,19.634,0,0,1,.791,5.6,17.2,17.2,0,0,1,0,.469C0,.314,0,.156.006,0c.185,6.707,4.315,12.994,11.63,17.7s17.015,7.31,27.288,7.31,19.964-2.6,27.288-7.31S77.658,6.707,77.842,0c0,.165.006.323.006.469A17.2,17.2,0,0,1,77.058,5.6a19.633,19.633,0,0,1-2.268,4.783A24.834,24.834,0,0,1,71.2,14.715a32.1,32.1,0,0,1-4.753,3.771A40.314,40.314,0,0,1,60.687,21.6a48.2,48.2,0,0,1-6.612,2.349A56.789,56.789,0,0,1,38.924,25.949Z"
        transform="translate(12.818 45.021)" fill="#2b1258" />
      <path id="Line" d="M0-1,2.01.66,24.386,50.274,0,32.766Z" transform="translate(36.267 2.251)" fill="#08041e" />
      <path id="Path_13560" data-name="Path 13560" d="M-58.62,7.359-23.1,0,1.287,17.495Z"
        transform="translate(59.364 35.016)" opacity="0.5" />
    </g>
  </g>
</svg>