<svg xmlns="http://www.w3.org/2000/svg" width="22.002" height="14.605" viewBox="0 0 22.002 14.605">
  <g id="View_Icon" data-name="View Icon" transform="translate(-1220 -1991.184)" opacity="0.8">
    <path id="Union_417" data-name="Union 417" d="M21380.131,19805.3a.831.831,0,0,1,0-.912c.184-.27,4.018-6.844,10.861-6.844s10.684,6.574,10.865,6.844a.824.824,0,0,1,0,.912c-.182.275-4.018,6.85-10.865,6.85S21380.314,19805.574,21380.131,19805.3Zm1.918-.455c.914,1.369,4.109,5.479,8.943,5.479s8.035-4.109,8.949-5.479c-.914-1.371-4.109-5.475-8.949-5.475S21382.963,19803.473,21382.049,19804.844Zm5.221,0a3.725,3.725,0,1,1,3.723,3.691A3.719,3.719,0,0,1,21387.27,19804.848Zm1.863,0a1.861,1.861,0,1,0,1.859-1.848A1.857,1.857,0,0,0,21389.133,19804.848Z" transform="translate(-20159.994 -17806.359)" fill="#474b4f"/>
  </g>
</svg>
