<svg xmlns="http://www.w3.org/2000/svg" width="40" height="40" viewBox="0 0 40 40">
  <g id="Light_Dark_Mode" data-name="Light / Dark Mode" transform="translate(-1840 -30)">
    <g id="Ellipse_3773" data-name="Ellipse 3773" transform="translate(1840 30)" fill="#fff" stroke="#ebecf0" stroke-width="1">
      <circle cx="20" cy="20" r="20" stroke="none"/>
      <circle cx="20" cy="20" r="19.5" fill="none"/>
    </g>
    <path id="Union_414" data-name="Union 414" d="M9.167,19.167V17.5a.833.833,0,1,1,1.667,0v1.667a.833.833,0,0,1-1.667,0Zm6.728-2.094L14.711,15.89a.834.834,0,0,1,1.179-1.179l1.184,1.184a.834.834,0,1,1-1.179,1.179Zm-12.966,0a.833.833,0,0,1,0-1.179l1.184-1.184A.833.833,0,1,1,5.289,15.89L4.106,17.073a.831.831,0,0,1-1.178,0ZM5,10a5,5,0,1,1,5,5A5.008,5.008,0,0,1,5,10Zm12.5.833a.833.833,0,1,1,0-1.667h1.667a.833.833,0,0,1,0,1.667Zm-16.667,0a.833.833,0,1,1,0-1.667H2.5a.833.833,0,0,1,0,1.667ZM14.711,5.289a.835.835,0,0,1,0-1.178l1.184-1.184a.834.834,0,0,1,1.179,0,.831.831,0,0,1,0,1.178L15.89,5.289a.833.833,0,0,1-1.179,0Zm-10.6,0L2.928,4.106A.833.833,0,0,1,4.106,2.928L5.289,4.112A.833.833,0,1,1,4.112,5.289ZM9.167,2.5V.834a.833.833,0,1,1,1.667,0V2.5a.833.833,0,0,1-1.667,0Z" transform="translate(1850 40)" fill="#242424" opacity="0.8"/>
  </g>
</svg>
