<svg xmlns="http://www.w3.org/2000/svg" xmlns:xlink="http://www.w3.org/1999/xlink" width="208.636" height="50" viewBox="0 0 208.636 50">
  <defs>
    <linearGradient id="linear-gradient" x2="0.977" y2="1" gradientUnits="objectBoundingBox">
      <stop offset="0" stop-color="#fa9c2b"/>
      <stop offset="0.587" stop-color="#814d55"/>
      <stop offset="1" stop-color="#1d0b77"/>
    </linearGradient>
  </defs>
  <g id="Sundial_Logo" data-name="Sundial Logo" transform="translate(-425.891 -412)">
    <path id="Path_6117" data-name="Path 6117" d="M13.906-61.423c5.738,0,10.222-3,10.222-8.018,0-3.648-2.09-5.738-7.182-7.372l-3.99-1.33c-1.9-.608-3.534-1.368-3.534-3.306,0-1.824,1.71-3.078,4.142-3.078a5.9,5.9,0,0,1,5.4,3.306L23.1-83.386a10.459,10.459,0,0,0-9.614-5.358c-4.978,0-9.2,2.926-9.2,7.676,0,4.218,3.04,6.156,6.992,7.448L15.122-72.4c2.66.874,3.762,1.672,3.762,3.154,0,1.9-1.672,3.382-5.092,3.382a7.018,7.018,0,0,1-6.8-4.1L3-67.693C4.748-63.741,9.042-61.423,13.906-61.423Zm22.609,0c5.4,0,9.31-3.078,9.31-8.626v-11.1h-4.9v10.678c0,2.964-1.558,4.6-4.332,4.6-2.812,0-4.408-1.558-4.408-4.636v-10.64h-4.9v11.1C27.281-64.539,31-61.423,36.515-61.423ZM61.86-81.714c-2.85,0-5.092,1.064-6.346,3.04v-2.47h-4.94v19.151h4.94v-9.956c0-3.23,1.786-5.358,4.788-5.358,2.66,0,4.256,1.71,4.256,4.6v10.716h4.9V-73.7C69.459-78.484,66.8-81.714,61.86-81.714Zm27.207,3.306a7.512,7.512,0,0,0-6.308-3.306c-5.662,0-9.766,4.522-9.766,10.26,0,5.548,3.99,10.032,9.614,10.032a7.936,7.936,0,0,0,6.46-3.268v2.7h4.712V-88.744H89.067Zm-5.586,12.54a5.522,5.522,0,0,1-5.662-5.7,5.553,5.553,0,0,1,5.7-5.7,5.666,5.666,0,0,1,5.7,5.7A5.652,5.652,0,0,1,83.481-65.869Zm17.745-18.2a3.4,3.4,0,0,0,3.382-3.306,3.407,3.407,0,0,0-3.382-3.344,3.348,3.348,0,0,0-3.344,3.344A3.316,3.316,0,0,0,101.226-84.07Zm2.508,22.077V-81.144h-4.94v19.151Zm19.873-16.339a7.472,7.472,0,0,0-6.346-3.382c-5.7,0-9.8,4.522-9.8,10.26,0,5.548,4.028,10.032,9.652,10.032a7.873,7.873,0,0,0,6.46-3.306v2.736h4.712V-82.17Zm-5.624,12.464a5.522,5.522,0,0,1-5.662-5.7,5.553,5.553,0,0,1,5.7-5.7,5.666,5.666,0,0,1,5.7,5.7A5.652,5.652,0,0,1,117.983-65.869ZM138.2-61.993V-88.744h-4.94v26.751Z" transform="translate(496.328 513.072)" fill="#1d0b77"/>
    <g id="Logo_Option_1" data-name="Logo Option 1" transform="translate(425.891 412)">
      <path id="round_1" data-name="round 1" d="M31.836,0C49.418,0,63.672,9.182,63.672,20.508S49.418,41.016,31.836,41.016,0,31.834,0,20.508,14.253,0,31.836,0Z" transform="translate(0 8.984)" fill="#2b1258"/>
      <path id="Union_480" data-name="Union 480" d="M0,27.93c0-9.4,9.825-17.33,23.225-19.749l-.569-7.4L24.219,0l1.256,1.037,2.933,6.5c1.126-.078,2.271-.118,3.429-.118,17.583,0,31.836,9.182,31.836,20.508S49.418,48.437,31.836,48.437,0,39.256,0,27.93Z" transform="translate(0 0)" fill="url(#linear-gradient)"/>
      <path id="Subtraction_193" data-name="Subtraction 193" d="M24.316,16.211a35.476,35.476,0,0,1-9.465-1.251,30.108,30.108,0,0,1-4.13-1.468,25.184,25.184,0,0,1-3.6-1.944A20.051,20.051,0,0,1,4.153,9.193a15.515,15.515,0,0,1-2.242-2.7A12.266,12.266,0,0,1,.494,3.5,10.743,10.743,0,0,1,0,.293C0,.2,0,.1,0,0,.119,4.19,2.7,8.118,7.269,11.059a31.827,31.827,0,0,0,17.047,4.566,31.827,31.827,0,0,0,17.047-4.566C45.933,8.118,48.514,4.19,48.629,0c0,.1,0,.2,0,.293A10.743,10.743,0,0,1,48.139,3.5a12.265,12.265,0,0,1-1.417,2.988,15.514,15.514,0,0,1-2.242,2.7,20.052,20.052,0,0,1-2.969,2.356,25.184,25.184,0,0,1-3.6,1.944,30.107,30.107,0,0,1-4.131,1.468A35.477,35.477,0,0,1,24.316,16.211Z" transform="translate(8.008 28.125)" fill="#2b1258"/>
      <path id="Line" d="M0-1,1.256.037,15.234,31.031,0,20.094Z" transform="translate(22.656 1.781)" fill="#08041e"/>
      <path id="Path_13560" data-name="Path 13560" d="M-58.62,4.6-36.428,0-21.2,10.929Z" transform="translate(59.085 21.875)" opacity="0.5"/>
    </g>
  </g>
</svg>
