<svg xmlns="http://www.w3.org/2000/svg" xmlns:xlink="http://www.w3.org/1999/xlink" width="550.496" height="124.093" viewBox="0 0 550.496 124.093">
  <defs>
    <linearGradient id="linear-gradient" x1="0.967" y1="1.122" x2="0.011" y2="0.106" gradientUnits="objectBoundingBox">
      <stop offset="0" stop-color="#1d0b77"/>
      <stop offset="1" stop-color="#fa9c2b"/>
    </linearGradient>
    <linearGradient id="linear-gradient-2" x1="0" y1="0.08" x2="0.987" y2="1" xlink:href="#linear-gradient"/>
  </defs>
  <g id="Unleash_the_Power" data-name="Unleash the Power" transform="translate(-128 -271.801)">
    <path id="Every_Minute" data-name="Every Minute" d="M29.348-91.076H7.44V-55.31H29.348v-6.98h-13.2v-7.846H27.819v-6.725H16.152V-84.1h13.2ZM32.3-83.74,42.391-55.31h10.75L63.228-83.74H53.956L47.791-63.462,41.626-83.74ZM79.43-77.167c2.9,0,5.35,1.783,5.35,4.891h-10.9A5.388,5.388,0,0,1,79.43-77.167Zm13.6,12.431H83.761a4.632,4.632,0,0,1-4.534,2.751c-2.8,0-5.095-1.732-5.4-5.451H93.543a22.015,22.015,0,0,0,.153-2.547c0-8.661-5.859-14.164-14.164-14.164-8.457,0-14.367,5.6-14.367,14.622S71.176-54.9,79.532-54.9C86.614-54.9,91.658-59.182,93.033-64.736Zm13.96-3.77c0-4.891,2.395-6.318,6.521-6.318h2.395v-9.222A10.6,10.6,0,0,0,106.993-79V-83.74H98.281V-55.31h8.712Zm26.187,2.547L126.608-83.74h-9.731l11.565,27.461-6.521,14.469H131.3L149.127-83.74H139.7ZM163.087-55.31H171.8v-21.5l8.05,21.5h7.031l8-21.449V-55.31h8.712V-91.076H193.35l-9.935,24.761L173.379-91.076H163.087Zm46.771,0h8.712V-83.74h-8.712Zm4.382-31.384c3.057,0,5.146-2.089,5.146-4.687a4.8,4.8,0,0,0-5.146-4.738c-3.108,0-5.2,2.089-5.2,4.738C209.042-88.783,211.131-86.695,214.239-86.695ZM244.5-55.31h8.661V-71.92c0-7.642-4.382-12.126-10.954-12.126a10.424,10.424,0,0,0-8.61,4.076v-3.77h-8.712V-55.31H233.6V-70.748c0-3.872,2.14-6.012,5.451-6.012s5.451,2.14,5.451,6.012ZM287.3-83.74h-8.712V-68.3c0,3.872-2.14,6.012-5.5,6.012-3.261,0-5.451-2.14-5.451-6.012V-83.74h-8.661V-67.13c0,7.591,4.432,12.126,11,12.126a10.358,10.358,0,0,0,8.61-4.178v3.872H287.3Zm7.642,18.545c0,7.388,4.127,9.884,10.037,9.884h4.432V-62.7H306.3c-1.936,0-2.649-.713-2.649-2.395V-76.5h5.706V-83.74h-5.706v-6.929h-8.712v6.929h-3.464V-76.5h3.464Zm31.843-11.973c2.9,0,5.35,1.783,5.35,4.891h-10.9A5.388,5.388,0,0,1,326.784-77.167Zm13.6,12.431h-9.273a4.632,4.632,0,0,1-4.534,2.751c-2.8,0-5.095-1.732-5.4-5.451H340.9a22.015,22.015,0,0,0,.153-2.547c0-8.661-5.859-14.164-14.164-14.164-8.457,0-14.367,5.6-14.367,14.622S318.53-54.9,326.886-54.9C333.967-54.9,339.011-59.182,340.387-64.736Z" transform="translate(229.236 437.703)" fill="url(#linear-gradient)"/>
    <path id="Union_523" data-name="Union 523" d="M502.044,25.715c0-9.018,6.471-14.623,14.773-14.623,8.357,0,14.775,5.6,14.775,14.623s-6.52,14.623-14.877,14.623S502.044,34.734,502.044,25.715Zm8.863,0c0,4.787,2.649,7.08,5.808,7.08,3.108,0,6.014-2.293,6.014-7.08,0-4.84-2.853-7.081-5.912-7.081C513.658,18.635,510.907,20.875,510.907,25.715Zm-72.858,0c0-9.018,5.912-14.623,14.371-14.623,8.3,0,14.165,5.5,14.165,14.165a21.624,21.624,0,0,1-.157,2.547H446.712c.308,3.72,2.6,5.449,5.4,5.449a4.629,4.629,0,0,0,4.533-2.751h9.276c-1.378,5.556-6.423,9.836-13.5,9.836C444.063,40.338,438.05,34.734,438.05,25.715Zm8.716-2.751h10.9c0-3.107-2.447-4.893-5.351-4.893A5.387,5.387,0,0,0,446.765,22.964Zm-85.287,2.751c0-9.018,6.471-14.623,14.773-14.623,8.355,0,14.775,5.6,14.775,14.623S384.5,40.338,376.149,40.338,361.478,34.734,361.478,25.715Zm8.865,0c0,4.787,2.645,7.08,5.806,7.08,3.106,0,6.014-2.293,6.014-7.08,0-4.84-2.853-7.081-5.912-7.081C373.09,18.635,370.343,20.875,370.343,25.715Zm-82.842,0c0-9.018,5.91-14.623,14.365-14.623,8.306,0,14.165,5.5,14.165,14.165a22.01,22.01,0,0,1-.151,2.547H296.161c.3,3.72,2.6,5.449,5.4,5.449a4.626,4.626,0,0,0,4.531-2.751h9.273c-1.373,5.556-6.418,9.836-13.5,9.836C293.514,40.338,287.5,34.734,287.5,25.715Zm8.71-2.751h10.9c0-3.107-2.445-4.893-5.347-4.893A5.393,5.393,0,0,0,296.211,22.964ZM149.891,30.6h8.61c.2,1.987,1.988,3.311,4.382,3.311,2.239,0,3.414-1.018,3.414-2.289,0-4.587-15.49-1.276-15.49-11.72,0-4.84,4.129-8.814,11.565-8.814,7.339,0,11.416,4.076,11.975,9.68H166.3c-.253-1.938-1.733-3.209-4.178-3.209-2.039,0-3.161.813-3.161,2.191,0,4.534,15.388,1.325,15.539,11.921,0,4.942-4.379,8.663-11.512,8.663C155.395,40.338,150.3,36.107,149.891,30.6Zm-34.8-4.942c0-8.965,5.551-14.57,12.533-14.57,4.228,0,7.232,1.938,8.761,4.431V11.5H145.1V39.929h-8.712V35.9a10.046,10.046,0,0,1-8.814,4.436C120.646,40.338,115.094,34.631,115.094,25.662Zm8.863,0c0,4.538,2.957,7.085,6.218,7.085,3.312,0,6.214-2.5,6.214-7.031s-2.9-7.031-6.214-7.031C126.914,18.684,123.957,21.129,123.957,25.662Zm-40.247.053c0-9.018,5.907-14.623,14.365-14.623,8.307,0,14.166,5.5,14.166,14.165a22.043,22.043,0,0,1-.157,2.547H92.37c.306,3.72,2.6,5.449,5.4,5.449a4.633,4.633,0,0,0,4.537-2.751h9.273c-1.378,5.556-6.418,9.836-13.5,9.836C89.72,40.338,83.711,34.734,83.711,25.715Zm8.712-2.751h10.9c0-3.107-2.443-4.893-5.35-4.893A5.388,5.388,0,0,0,92.423,22.964ZM0,25.511V4.163H8.715v21.4c0,4.227,2.089,6.672,6.214,6.672s6.317-2.445,6.317-6.672V4.163h8.716V25.511c0,9.885-6.93,14.774-15.183,14.774C6.471,40.285,0,35.4,0,25.511ZM537.094,39.929v-21.2h-3.159V11.5h3.159v-.818c0-7.436,4.588-11.1,13.245-10.645V7.425c-3.359-.2-4.533.813-4.533,3.818V11.5h4.69v7.232h-4.69v21.2Zm-65.926,0V11.5h8.712v4.738a10.6,10.6,0,0,1,8.916-5.045v9.223h-2.4c-4.126,0-6.52,1.427-6.52,6.316v13.2Zm-52.016,0-4.484-18.445L410.03,39.929h-9.577L392.71,11.5h8.712l4.022,20.326,4.79-20.326h9.22L424.3,31.729,428.271,11.5h8.2l-7.692,28.428Zm-87.734,0V4.163h14.112c8.765,0,13.143,4.942,13.143,11.516,0,5.907-4.022,11.41-13.143,11.41h-5.4V39.929Zm8.712-19.77h4.737c3.465,0,4.943-1.729,4.943-4.481s-1.478-4.485-4.943-4.485h-4.737Zm-65.62,19.77V24.493c0-3.871-2.139-6.014-5.453-6.014s-5.451,2.142-5.451,6.014V39.929h-8.71V2.229h8.71v13.09a10.489,10.489,0,0,1,8.765-4.125c6.467,0,10.8,4.485,10.8,12.125v16.61Zm-42.187,0V11.145h-9.475V4.163H250.51v6.982h-9.475V39.929Zm-32.857,0V24.493c0-3.871-2.139-6.014-5.453-6.014s-5.451,2.142-5.451,6.014V39.929h-8.71V2.229h8.71v13.09a10.489,10.489,0,0,1,8.765-4.125c6.467,0,10.8,4.485,10.8,12.125v16.61Zm-129.053,0V2.229h8.713v37.7Zm-14.726,0V24.493c0-3.871-2.137-6.014-5.448-6.014s-5.454,2.142-5.454,6.014V39.929H36.072V11.5h8.712V15.27a10.423,10.423,0,0,1,8.609-4.076c6.575,0,10.957,4.485,10.957,12.125v16.61Z" transform="translate(128 271.801)" fill="url(#linear-gradient-2)"/>
  </g>
</svg>
